%TF.GenerationSoftware,KiCad,Pcbnew,7.0.7*%
%TF.CreationDate,2024-07-31T13:54:12+09:00*%
%TF.ProjectId,w65c_Rev1.2,77363563-5f52-4657-9631-2e322e6b6963,Rev1.2*%
%TF.SameCoordinates,PX5f6f270PY775a330*%
%TF.FileFunction,Soldermask,Bot*%
%TF.FilePolarity,Negative*%
%FSLAX46Y46*%
G04 Gerber Fmt 4.6, Leading zero omitted, Abs format (unit mm)*
G04 Created by KiCad (PCBNEW 7.0.7) date 2024-07-31 13:54:12*
%MOMM*%
%LPD*%
G01*
G04 APERTURE LIST*
%ADD10R,1.800000X1.800000*%
%ADD11C,1.800000*%
%ADD12R,1.600000X1.600000*%
%ADD13O,1.600000X1.600000*%
%ADD14C,1.600000*%
%ADD15R,1.700000X1.700000*%
%ADD16O,1.700000X1.700000*%
%ADD17C,0.605000*%
G04 APERTURE END LIST*
D10*
X20226000Y8622000D03*
D11*
X17686000Y8622000D03*
D12*
X46845000Y3530000D03*
D13*
X49385000Y3530000D03*
X51925000Y3530000D03*
X54465000Y3530000D03*
X57005000Y3530000D03*
X59545000Y3530000D03*
X62085000Y3530000D03*
X62085000Y11150000D03*
X59545000Y11150000D03*
X57005000Y11150000D03*
X54465000Y11150000D03*
X51925000Y11150000D03*
X49385000Y11150000D03*
X46845000Y11150000D03*
D14*
X9210000Y9400000D03*
D13*
X9210000Y1780000D03*
D14*
X43740000Y11150000D03*
X43740000Y8650000D03*
D10*
X20095000Y3780000D03*
D11*
X17555000Y3780000D03*
D12*
X33150000Y31675000D03*
D13*
X33150000Y29135000D03*
X33150000Y26595000D03*
X33150000Y24055000D03*
X33150000Y21515000D03*
X33150000Y18975000D03*
X33150000Y16435000D03*
X40770000Y16435000D03*
X40770000Y18975000D03*
X40770000Y21515000D03*
X40770000Y24055000D03*
X40770000Y26595000D03*
X40770000Y29135000D03*
X40770000Y31675000D03*
D12*
X4450000Y40620000D03*
D13*
X4450000Y43160000D03*
X4450000Y45700000D03*
X4450000Y48240000D03*
X4450000Y50780000D03*
D14*
X43410000Y31710000D03*
X43410000Y29210000D03*
X64529000Y54840000D03*
X64529000Y52340000D03*
D15*
X63160000Y60830000D03*
D16*
X63160000Y63370000D03*
X63160000Y65910000D03*
D12*
X10331000Y62795000D03*
D13*
X10331000Y60255000D03*
X10331000Y57715000D03*
X10331000Y55175000D03*
X10331000Y52635000D03*
X10331000Y50095000D03*
X10331000Y47555000D03*
X10331000Y45015000D03*
X10331000Y42475000D03*
X10331000Y39935000D03*
X10331000Y37395000D03*
X10331000Y34855000D03*
X10331000Y32315000D03*
X10331000Y29775000D03*
X10331000Y27235000D03*
X10331000Y24695000D03*
X10331000Y22155000D03*
X10331000Y19615000D03*
X10331000Y17075000D03*
X10331000Y14535000D03*
X25571000Y14535000D03*
X25571000Y17075000D03*
X25571000Y19615000D03*
X25571000Y22155000D03*
X25571000Y24695000D03*
X25571000Y27235000D03*
X25571000Y29775000D03*
X25571000Y32315000D03*
X25571000Y34855000D03*
X25571000Y37395000D03*
X25571000Y39935000D03*
X25571000Y42475000D03*
X25571000Y45015000D03*
X25571000Y47555000D03*
X25571000Y50095000D03*
X25571000Y52635000D03*
X25571000Y55175000D03*
X25571000Y57715000D03*
X25571000Y60255000D03*
X25571000Y62795000D03*
D14*
X12320000Y1780000D03*
D13*
X12320000Y9400000D03*
D15*
X38800000Y7740000D03*
D16*
X36260000Y7740000D03*
X33720000Y7740000D03*
X31180000Y7740000D03*
X28640000Y7740000D03*
X26100000Y7740000D03*
D12*
X42310000Y66010000D03*
D13*
X39770000Y66010000D03*
X37230000Y66010000D03*
X34690000Y66010000D03*
X32150000Y66010000D03*
D12*
X46699000Y54790000D03*
D13*
X46699000Y52250000D03*
X46699000Y49710000D03*
X46699000Y47170000D03*
X46699000Y44630000D03*
X46699000Y42090000D03*
X46699000Y39550000D03*
X46699000Y37010000D03*
X46699000Y34470000D03*
X46699000Y31930000D03*
X46699000Y29390000D03*
X46699000Y26850000D03*
X46699000Y24310000D03*
X46699000Y21770000D03*
X46699000Y19230000D03*
X46699000Y16690000D03*
X61939000Y16690000D03*
X61939000Y19230000D03*
X61939000Y21770000D03*
X61939000Y24310000D03*
X61939000Y26850000D03*
X61939000Y29390000D03*
X61939000Y31930000D03*
X61939000Y34470000D03*
X61939000Y37010000D03*
X61939000Y39550000D03*
X61939000Y42090000D03*
X61939000Y44630000D03*
X61939000Y47170000D03*
X61939000Y49710000D03*
X61939000Y52250000D03*
X61939000Y54790000D03*
D12*
X33150000Y61450000D03*
D13*
X33150000Y58910000D03*
X33150000Y56370000D03*
X33150000Y53830000D03*
X33150000Y51290000D03*
X33150000Y48750000D03*
X33150000Y46210000D03*
X33150000Y43670000D03*
X33150000Y41130000D03*
X33150000Y38590000D03*
X40770000Y38590000D03*
X40770000Y41130000D03*
X40770000Y43670000D03*
X40770000Y46210000D03*
X40770000Y48750000D03*
X40770000Y51290000D03*
X40770000Y53830000D03*
X40770000Y56370000D03*
X40770000Y58910000D03*
X40770000Y61450000D03*
D14*
X43420000Y61460000D03*
X43420000Y58960000D03*
X4060000Y37380000D03*
X4060000Y34880000D03*
D15*
X28111000Y62795000D03*
D16*
X28111000Y60255000D03*
X28111000Y57715000D03*
X28111000Y55175000D03*
X28111000Y52635000D03*
X28111000Y50095000D03*
X28111000Y47555000D03*
X28111000Y45015000D03*
X28111000Y42475000D03*
X28111000Y39935000D03*
X28111000Y37395000D03*
X28111000Y34855000D03*
X28111000Y32315000D03*
X28111000Y29775000D03*
X28111000Y27235000D03*
X28111000Y24695000D03*
X28111000Y22155000D03*
X28111000Y19615000D03*
X28111000Y17075000D03*
X28111000Y14535000D03*
D15*
X7791000Y62795000D03*
D16*
X7791000Y60255000D03*
X7791000Y57715000D03*
X7791000Y55175000D03*
X7791000Y52635000D03*
X7791000Y50095000D03*
X7791000Y47555000D03*
X7791000Y45015000D03*
X7791000Y42475000D03*
X7791000Y39935000D03*
X7791000Y37395000D03*
X7791000Y34855000D03*
X7791000Y32315000D03*
X7791000Y29775000D03*
X7791000Y27235000D03*
X7791000Y24695000D03*
X7791000Y22155000D03*
X7791000Y19615000D03*
X7791000Y17075000D03*
X7791000Y14535000D03*
D17*
X15320200Y44979800D03*
X36660000Y11140000D03*
X36650000Y60910002D03*
X51960000Y6220000D03*
X6290000Y3880000D03*
X57010000Y6240000D03*
X28640000Y1930000D03*
X15330000Y1930000D03*
X41630007Y1939997D03*
X61939000Y57260000D03*
X2200000Y32890000D03*
X36650000Y30740000D03*
X37670000Y43680000D03*
X1770000Y53600000D03*
X44370000Y1490000D03*
X49370000Y16310000D03*
X17750000Y49490000D03*
X13510000Y14500000D03*
X33790000Y34290000D03*
X62630000Y13860000D03*
X29885100Y15830245D03*
X14170000Y9900000D03*
X50820000Y48160000D03*
X53330000Y16340000D03*
X50850000Y55170000D03*
X60630000Y7690000D03*
X43710000Y19040000D03*
X13460000Y16680000D03*
X46850000Y8520000D03*
X33010000Y14630000D03*
X38140000Y26550000D03*
X4330000Y30500000D03*
X9310200Y4990000D03*
X65520000Y26600000D03*
X20760000Y67220000D03*
X46830000Y67370000D03*
X17930000Y22910000D03*
X50480000Y29200000D03*
X59350000Y48680000D03*
X34800000Y37900000D03*
X5790000Y9180000D03*
X3530000Y59930000D03*
X23034998Y14534998D03*
X17810000Y44980000D03*
X9630000Y67220000D03*
X34950000Y28970000D03*
X57340000Y34450000D03*
X17630000Y24840000D03*
X34970000Y18950000D03*
X51160000Y40570000D03*
X43940157Y26203029D03*
X50330000Y23750000D03*
X65110000Y12160000D03*
X43610000Y43930000D03*
X57310000Y37410000D03*
X43550000Y56260000D03*
X55660000Y48380000D03*
X37700000Y46130000D03*
X65780000Y42070000D03*
X3010000Y1970000D03*
X21790000Y20790000D03*
X24740000Y4850000D03*
X23710000Y9320000D03*
X17080000Y62020000D03*
X35250000Y16150000D03*
X37790000Y38420000D03*
X34950000Y26550000D03*
X64380000Y1950000D03*
X44010000Y16100000D03*
X54835288Y21997097D03*
X38390000Y28910000D03*
X13690000Y20680000D03*
X54340000Y7840000D03*
X59200000Y53550000D03*
X51300000Y34220000D03*
X55040000Y31650000D03*
X50750000Y31570000D03*
X18000000Y16790000D03*
X18040000Y20980000D03*
X46039996Y63360000D03*
X35680000Y61460000D03*
X32590000Y5390000D03*
X35680000Y21520000D03*
X35680000Y63360000D03*
X12330000Y5350000D03*
X9210000Y7740000D03*
X12020000Y64720000D03*
X60250000Y13730000D03*
X19860000Y17050000D03*
X19860000Y58879998D03*
X45610000Y59640000D03*
X16290000Y19610000D03*
X58030000Y18550000D03*
X58670000Y44630000D03*
X16170000Y56680000D03*
X44970000Y22990000D03*
X13500000Y22160000D03*
X44970000Y48830000D03*
X13190000Y54330000D03*
X19320000Y52699998D03*
X19320000Y24690000D03*
X30350000Y53320000D03*
X59540000Y35390000D03*
X13720000Y51480000D03*
X30344100Y35980000D03*
X13720000Y55170000D03*
X45500600Y33090000D03*
X13790000Y32320000D03*
X13790000Y46770000D03*
X44070000Y34920000D03*
X44080000Y42620000D03*
X6000000Y35910000D03*
X43320000Y40660000D03*
X43320000Y36970000D03*
X6030000Y31130000D03*
X18200000Y41790000D03*
X18170000Y38930000D03*
X17248229Y40961887D03*
X16690000Y27230000D03*
X38960000Y34710000D03*
X38960000Y30421100D03*
X42400000Y23320000D03*
X42380000Y44580000D03*
X17630000Y42680000D03*
X17780000Y28700000D03*
X45510000Y25660000D03*
X2020000Y38480000D03*
X3330000Y27230000D03*
X32460000Y3530000D03*
X7410000Y11739400D03*
X38800000Y3530000D03*
X34990000Y24590000D03*
X31630000Y11740000D03*
X51700000Y37130000D03*
X51830000Y12931100D03*
X21110000Y26150000D03*
X31000000Y27260000D03*
X21110000Y15570006D03*
X21110000Y52650000D03*
X58720000Y17950000D03*
X58720000Y31930000D03*
X20460000Y61160000D03*
X20460000Y18509998D03*
X31020000Y60250000D03*
X12690000Y59710000D03*
X56910000Y57850000D03*
X12690000Y19620000D03*
X56910000Y39550000D03*
X31020000Y58010000D03*
X57680000Y42100000D03*
X14980000Y57740000D03*
X14090000Y23020000D03*
X57680000Y57250000D03*
X54140004Y53700000D03*
X54140000Y26850000D03*
X18750000Y56340000D03*
X18750000Y27220000D03*
X54880000Y28060000D03*
X29810000Y31190002D03*
X54880000Y24310000D03*
X56600000Y21760000D03*
X31870000Y50090000D03*
X31180000Y33000000D03*
X56600002Y30410000D03*
X57300000Y19230000D03*
X57290000Y32990000D03*
X23810000Y48600000D03*
X23570000Y35790000D03*
X55990000Y45210000D03*
X23850000Y37390000D03*
X55970000Y16690000D03*
X23950000Y46150000D03*
X31340000Y46210000D03*
X23770000Y20730000D03*
X50840000Y19250000D03*
X31340000Y42470000D03*
X48490000Y38500000D03*
X48150000Y6440000D03*
X35000000Y39940000D03*
X23830000Y38440000D03*
X33720000Y10230000D03*
X30410000Y10230000D03*
X30440000Y25110000D03*
X31100000Y37390000D03*
X16720000Y31290000D03*
X16710000Y55810000D03*
X21690000Y50740000D03*
X22410000Y28040000D03*
X21790000Y23200000D03*
X21790000Y47550000D03*
X23010000Y16050000D03*
X25570000Y66150000D03*
X23010000Y62800000D03*
X5870000Y12270000D03*
X28110000Y12270000D03*
X5539998Y61470000D03*
X30070000Y4800000D03*
X22240000Y6270000D03*
X11630000Y6270000D03*
X22240000Y10790000D03*
X40800000Y10120000D03*
X23780000Y63420000D03*
X63330000Y57280000D03*
X37710000Y20970000D03*
X37710000Y24048900D03*
X53160000Y29390000D03*
X53160000Y20490000D03*
X53610000Y60720000D03*
X13420000Y64900000D03*
X13420000Y57720000D03*
X39000000Y47820000D03*
X38870000Y21510000D03*
X37670000Y720000D03*
X48170000Y14380000D03*
X34370000Y14380000D03*
X34910000Y53590000D03*
X44900000Y54790000D03*
X44900000Y49800000D03*
X31030000Y12400000D03*
M02*
