M48
; DRILL file {KiCad 7.0.7} date Wed Jul 31 13:54:09 2024
; FORMAT={-:-/ absolute / metric / decimal}
; #@! TF.CreationDate,2024-07-31T13:54:09+09:00
; #@! TF.GenerationSoftware,Kicad,Pcbnew,7.0.7
; #@! TF.FileFunction,MixedPlating,1,2
FMAT,2
METRIC
; #@! TA.AperFunction,Plated,PTH,ViaDrill
T1C0.300
; #@! TA.AperFunction,Plated,PTH,ComponentDrill
T2C0.800
; #@! TA.AperFunction,Plated,PTH,ComponentDrill
T3C0.900
; #@! TA.AperFunction,Plated,PTH,ComponentDrill
T4C1.000
%
G90
G05
T1
X1.77Y53.6
X2.02Y38.48
X2.2Y32.89
X3.01Y1.97
X3.33Y27.23
X3.53Y59.93
X4.33Y30.5
X5.54Y61.47
X5.79Y9.18
X5.87Y12.27
X6.0Y35.91
X6.03Y31.13
X6.29Y3.88
X7.41Y11.739
X9.21Y7.74
X9.31Y4.99
X9.63Y67.22
X11.63Y6.27
X12.02Y64.72
X12.33Y5.35
X12.69Y59.71
X12.69Y19.62
X13.19Y54.33
X13.42Y64.9
X13.42Y57.72
X13.46Y16.68
X13.5Y22.16
X13.51Y14.5
X13.69Y20.68
X13.72Y55.17
X13.72Y51.48
X13.79Y46.77
X13.79Y32.32
X14.09Y23.02
X14.17Y9.9
X14.98Y57.74
X15.32Y44.98
X15.33Y1.93
X16.17Y56.68
X16.29Y19.61
X16.69Y27.23
X16.71Y55.81
X16.72Y31.29
X17.08Y62.02
X17.248Y40.962
X17.63Y42.68
X17.63Y24.84
X17.75Y49.49
X17.78Y28.7
X17.81Y44.98
X17.93Y22.91
X18.0Y16.79
X18.04Y20.98
X18.17Y38.93
X18.2Y41.79
X18.75Y56.34
X18.75Y27.22
X19.32Y52.7
X19.32Y24.69
X19.86Y58.88
X19.86Y17.05
X20.46Y61.16
X20.46Y18.51
X20.76Y67.22
X21.11Y52.65
X21.11Y26.15
X21.11Y15.57
X21.69Y50.74
X21.79Y47.55
X21.79Y23.2
X21.79Y20.79
X22.24Y10.79
X22.24Y6.27
X22.41Y28.04
X23.01Y62.8
X23.01Y16.05
X23.035Y14.535
X23.57Y35.79
X23.71Y9.32
X23.77Y20.73
X23.78Y63.42
X23.81Y48.6
X23.83Y38.44
X23.85Y37.39
X23.95Y46.15
X24.74Y4.85
X25.57Y66.15
X28.11Y12.27
X28.64Y1.93
X29.81Y31.19
X29.885Y15.83
X30.07Y4.8
X30.344Y35.98
X30.35Y53.32
X30.41Y10.23
X30.44Y25.11
X31.0Y27.26
X31.02Y60.25
X31.02Y58.01
X31.03Y12.4
X31.1Y37.39
X31.18Y33.0
X31.34Y46.21
X31.34Y42.47
X31.63Y11.74
X31.87Y50.09
X32.46Y3.53
X32.59Y5.39
X33.01Y14.63
X33.72Y10.23
X33.79Y34.29
X34.37Y14.38
X34.8Y37.9
X34.91Y53.59
X34.95Y28.97
X34.95Y26.55
X34.97Y18.95
X34.99Y24.59
X35.0Y39.94
X35.25Y16.15
X35.68Y63.36
X35.68Y61.46
X35.68Y21.52
X36.65Y60.91
X36.65Y30.74
X36.66Y11.14
X37.67Y43.68
X37.67Y0.72
X37.7Y46.13
X37.71Y24.049
X37.71Y20.97
X37.79Y38.42
X38.14Y26.55
X38.39Y28.91
X38.8Y3.53
X38.87Y21.51
X38.96Y34.71
X38.96Y30.421
X39.0Y47.82
X40.8Y10.12
X41.63Y1.94
X42.38Y44.58
X42.4Y23.32
X43.32Y40.66
X43.32Y36.97
X43.55Y56.26
X43.61Y43.93
X43.71Y19.04
X43.94Y26.203
X44.01Y16.1
X44.07Y34.92
X44.08Y42.62
X44.37Y1.49
X44.9Y54.79
X44.9Y49.8
X44.97Y48.83
X44.97Y22.99
X45.501Y33.09
X45.51Y25.66
X45.61Y59.64
X46.04Y63.36
X46.83Y67.37
X46.85Y8.52
X48.15Y6.44
X48.17Y14.38
X48.49Y38.5
X49.37Y16.31
X50.33Y23.75
X50.48Y29.2
X50.75Y31.57
X50.82Y48.16
X50.84Y19.25
X50.85Y55.17
X51.16Y40.57
X51.3Y34.22
X51.7Y37.13
X51.83Y12.931
X51.96Y6.22
X53.16Y29.39
X53.16Y20.49
X53.33Y16.34
X53.61Y60.72
X54.14Y26.85
X54.14Y53.7
X54.34Y7.84
X54.835Y21.997
X54.88Y28.06
X54.88Y24.31
X55.04Y31.65
X55.66Y48.38
X55.97Y16.69
X55.99Y45.21
X56.6Y21.76
X56.6Y30.41
X56.91Y57.85
X56.91Y39.55
X57.01Y6.24
X57.29Y32.99
X57.3Y19.23
X57.31Y37.41
X57.34Y34.45
X57.68Y57.25
X57.68Y42.1
X58.03Y18.55
X58.67Y44.63
X58.72Y31.93
X58.72Y17.95
X59.2Y53.55
X59.35Y48.68
X59.54Y35.39
X60.25Y13.73
X60.63Y7.69
X61.939Y57.26
X62.63Y13.86
X63.33Y57.28
X64.38Y1.95
X65.11Y12.16
X65.52Y26.6
X65.78Y42.07
T2
X4.06Y37.38
X4.06Y34.88
X4.45Y50.78
X4.45Y48.24
X4.45Y45.7
X4.45Y43.16
X4.45Y40.62
X9.21Y9.4
X9.21Y1.78
X10.331Y62.795
X10.331Y60.255
X10.331Y57.715
X10.331Y55.175
X10.331Y52.635
X10.331Y50.095
X10.331Y47.555
X10.331Y45.015
X10.331Y42.475
X10.331Y39.935
X10.331Y37.395
X10.331Y34.855
X10.331Y32.315
X10.331Y29.775
X10.331Y27.235
X10.331Y24.695
X10.331Y22.155
X10.331Y19.615
X10.331Y17.075
X10.331Y14.535
X12.32Y9.4
X12.32Y1.78
X25.571Y62.795
X25.571Y60.255
X25.571Y57.715
X25.571Y55.175
X25.571Y52.635
X25.571Y50.095
X25.571Y47.555
X25.571Y45.015
X25.571Y42.475
X25.571Y39.935
X25.571Y37.395
X25.571Y34.855
X25.571Y32.315
X25.571Y29.775
X25.571Y27.235
X25.571Y24.695
X25.571Y22.155
X25.571Y19.615
X25.571Y17.075
X25.571Y14.535
X32.15Y66.01
X33.15Y61.45
X33.15Y58.91
X33.15Y56.37
X33.15Y53.83
X33.15Y51.29
X33.15Y48.75
X33.15Y46.21
X33.15Y43.67
X33.15Y41.13
X33.15Y38.59
X33.15Y31.675
X33.15Y29.135
X33.15Y26.595
X33.15Y24.055
X33.15Y21.515
X33.15Y18.975
X33.15Y16.435
X34.69Y66.01
X37.23Y66.01
X39.77Y66.01
X40.77Y61.45
X40.77Y58.91
X40.77Y56.37
X40.77Y53.83
X40.77Y51.29
X40.77Y48.75
X40.77Y46.21
X40.77Y43.67
X40.77Y41.13
X40.77Y38.59
X40.77Y31.675
X40.77Y29.135
X40.77Y26.595
X40.77Y24.055
X40.77Y21.515
X40.77Y18.975
X40.77Y16.435
X42.31Y66.01
X43.41Y31.71
X43.41Y29.21
X43.42Y61.46
X43.42Y58.96
X43.74Y11.15
X43.74Y8.65
X46.699Y54.79
X46.699Y52.25
X46.699Y49.71
X46.699Y47.17
X46.699Y44.63
X46.699Y42.09
X46.699Y39.55
X46.699Y37.01
X46.699Y34.47
X46.699Y31.93
X46.699Y29.39
X46.699Y26.85
X46.699Y24.31
X46.699Y21.77
X46.699Y19.23
X46.699Y16.69
X46.845Y11.15
X46.845Y3.53
X49.385Y11.15
X49.385Y3.53
X51.925Y11.15
X51.925Y3.53
X54.465Y11.15
X54.465Y3.53
X57.005Y11.15
X57.005Y3.53
X59.545Y11.15
X59.545Y3.53
X61.939Y54.79
X61.939Y52.25
X61.939Y49.71
X61.939Y47.17
X61.939Y44.63
X61.939Y42.09
X61.939Y39.55
X61.939Y37.01
X61.939Y34.47
X61.939Y31.93
X61.939Y29.39
X61.939Y26.85
X61.939Y24.31
X61.939Y21.77
X61.939Y19.23
X61.939Y16.69
X62.085Y11.15
X62.085Y3.53
X64.529Y54.84
X64.529Y52.34
T3
X17.555Y3.78
X17.686Y8.622
X20.095Y3.78
X20.226Y8.622
T4
X7.791Y62.795
X7.791Y60.255
X7.791Y57.715
X7.791Y55.175
X7.791Y52.635
X7.791Y50.095
X7.791Y47.555
X7.791Y45.015
X7.791Y42.475
X7.791Y39.935
X7.791Y37.395
X7.791Y34.855
X7.791Y32.315
X7.791Y29.775
X7.791Y27.235
X7.791Y24.695
X7.791Y22.155
X7.791Y19.615
X7.791Y17.075
X7.791Y14.535
X26.1Y7.74
X28.111Y62.795
X28.111Y60.255
X28.111Y57.715
X28.111Y55.175
X28.111Y52.635
X28.111Y50.095
X28.111Y47.555
X28.111Y45.015
X28.111Y42.475
X28.111Y39.935
X28.111Y37.395
X28.111Y34.855
X28.111Y32.315
X28.111Y29.775
X28.111Y27.235
X28.111Y24.695
X28.111Y22.155
X28.111Y19.615
X28.111Y17.075
X28.111Y14.535
X28.64Y7.74
X31.18Y7.74
X33.72Y7.74
X36.26Y7.74
X38.8Y7.74
X63.16Y65.91
X63.16Y63.37
X63.16Y60.83
T0
M30
