%TF.GenerationSoftware,KiCad,Pcbnew,7.0.7*%
%TF.CreationDate,2024-07-31T13:54:12+09:00*%
%TF.ProjectId,w65c_Rev1.2,77363563-5f52-4657-9631-2e322e6b6963,Rev1.2*%
%TF.SameCoordinates,PX5f6f270PY775a330*%
%TF.FileFunction,Copper,L1,Top*%
%TF.FilePolarity,Positive*%
%FSLAX46Y46*%
G04 Gerber Fmt 4.6, Leading zero omitted, Abs format (unit mm)*
G04 Created by KiCad (PCBNEW 7.0.7) date 2024-07-31 13:54:12*
%MOMM*%
%LPD*%
G01*
G04 APERTURE LIST*
%TA.AperFunction,ComponentPad*%
%ADD10R,1.800000X1.800000*%
%TD*%
%TA.AperFunction,ComponentPad*%
%ADD11C,1.800000*%
%TD*%
%TA.AperFunction,ComponentPad*%
%ADD12R,1.600000X1.600000*%
%TD*%
%TA.AperFunction,ComponentPad*%
%ADD13O,1.600000X1.600000*%
%TD*%
%TA.AperFunction,ComponentPad*%
%ADD14C,1.600000*%
%TD*%
%TA.AperFunction,ComponentPad*%
%ADD15R,1.700000X1.700000*%
%TD*%
%TA.AperFunction,ComponentPad*%
%ADD16O,1.700000X1.700000*%
%TD*%
%TA.AperFunction,ViaPad*%
%ADD17C,0.605000*%
%TD*%
%TA.AperFunction,Conductor*%
%ADD18C,1.000000*%
%TD*%
%TA.AperFunction,Conductor*%
%ADD19C,0.400000*%
%TD*%
%TA.AperFunction,Conductor*%
%ADD20C,0.152400*%
%TD*%
G04 APERTURE END LIST*
D10*
X20226000Y8622000D03*
D11*
X17686000Y8622000D03*
D12*
X46845000Y3530000D03*
D13*
X49385000Y3530000D03*
X51925000Y3530000D03*
X54465000Y3530000D03*
X57005000Y3530000D03*
X59545000Y3530000D03*
X62085000Y3530000D03*
X62085000Y11150000D03*
X59545000Y11150000D03*
X57005000Y11150000D03*
X54465000Y11150000D03*
X51925000Y11150000D03*
X49385000Y11150000D03*
X46845000Y11150000D03*
D14*
X9210000Y9400000D03*
D13*
X9210000Y1780000D03*
D14*
X43740000Y11150000D03*
X43740000Y8650000D03*
D10*
X20095000Y3780000D03*
D11*
X17555000Y3780000D03*
D12*
X33150000Y31675000D03*
D13*
X33150000Y29135000D03*
X33150000Y26595000D03*
X33150000Y24055000D03*
X33150000Y21515000D03*
X33150000Y18975000D03*
X33150000Y16435000D03*
X40770000Y16435000D03*
X40770000Y18975000D03*
X40770000Y21515000D03*
X40770000Y24055000D03*
X40770000Y26595000D03*
X40770000Y29135000D03*
X40770000Y31675000D03*
D12*
X4450000Y40620000D03*
D13*
X4450000Y43160000D03*
X4450000Y45700000D03*
X4450000Y48240000D03*
X4450000Y50780000D03*
D14*
X43410000Y31710000D03*
X43410000Y29210000D03*
X64529000Y54840000D03*
X64529000Y52340000D03*
D15*
X63160000Y60830000D03*
D16*
X63160000Y63370000D03*
X63160000Y65910000D03*
D12*
X10331000Y62795000D03*
D13*
X10331000Y60255000D03*
X10331000Y57715000D03*
X10331000Y55175000D03*
X10331000Y52635000D03*
X10331000Y50095000D03*
X10331000Y47555000D03*
X10331000Y45015000D03*
X10331000Y42475000D03*
X10331000Y39935000D03*
X10331000Y37395000D03*
X10331000Y34855000D03*
X10331000Y32315000D03*
X10331000Y29775000D03*
X10331000Y27235000D03*
X10331000Y24695000D03*
X10331000Y22155000D03*
X10331000Y19615000D03*
X10331000Y17075000D03*
X10331000Y14535000D03*
X25571000Y14535000D03*
X25571000Y17075000D03*
X25571000Y19615000D03*
X25571000Y22155000D03*
X25571000Y24695000D03*
X25571000Y27235000D03*
X25571000Y29775000D03*
X25571000Y32315000D03*
X25571000Y34855000D03*
X25571000Y37395000D03*
X25571000Y39935000D03*
X25571000Y42475000D03*
X25571000Y45015000D03*
X25571000Y47555000D03*
X25571000Y50095000D03*
X25571000Y52635000D03*
X25571000Y55175000D03*
X25571000Y57715000D03*
X25571000Y60255000D03*
X25571000Y62795000D03*
D14*
X12320000Y1780000D03*
D13*
X12320000Y9400000D03*
D15*
X38800000Y7740000D03*
D16*
X36260000Y7740000D03*
X33720000Y7740000D03*
X31180000Y7740000D03*
X28640000Y7740000D03*
X26100000Y7740000D03*
D12*
X42310000Y66010000D03*
D13*
X39770000Y66010000D03*
X37230000Y66010000D03*
X34690000Y66010000D03*
X32150000Y66010000D03*
D12*
X46699000Y54790000D03*
D13*
X46699000Y52250000D03*
X46699000Y49710000D03*
X46699000Y47170000D03*
X46699000Y44630000D03*
X46699000Y42090000D03*
X46699000Y39550000D03*
X46699000Y37010000D03*
X46699000Y34470000D03*
X46699000Y31930000D03*
X46699000Y29390000D03*
X46699000Y26850000D03*
X46699000Y24310000D03*
X46699000Y21770000D03*
X46699000Y19230000D03*
X46699000Y16690000D03*
X61939000Y16690000D03*
X61939000Y19230000D03*
X61939000Y21770000D03*
X61939000Y24310000D03*
X61939000Y26850000D03*
X61939000Y29390000D03*
X61939000Y31930000D03*
X61939000Y34470000D03*
X61939000Y37010000D03*
X61939000Y39550000D03*
X61939000Y42090000D03*
X61939000Y44630000D03*
X61939000Y47170000D03*
X61939000Y49710000D03*
X61939000Y52250000D03*
X61939000Y54790000D03*
D12*
X33150000Y61450000D03*
D13*
X33150000Y58910000D03*
X33150000Y56370000D03*
X33150000Y53830000D03*
X33150000Y51290000D03*
X33150000Y48750000D03*
X33150000Y46210000D03*
X33150000Y43670000D03*
X33150000Y41130000D03*
X33150000Y38590000D03*
X40770000Y38590000D03*
X40770000Y41130000D03*
X40770000Y43670000D03*
X40770000Y46210000D03*
X40770000Y48750000D03*
X40770000Y51290000D03*
X40770000Y53830000D03*
X40770000Y56370000D03*
X40770000Y58910000D03*
X40770000Y61450000D03*
D14*
X43420000Y61460000D03*
X43420000Y58960000D03*
X4060000Y37380000D03*
X4060000Y34880000D03*
D15*
X28111000Y62795000D03*
D16*
X28111000Y60255000D03*
X28111000Y57715000D03*
X28111000Y55175000D03*
X28111000Y52635000D03*
X28111000Y50095000D03*
X28111000Y47555000D03*
X28111000Y45015000D03*
X28111000Y42475000D03*
X28111000Y39935000D03*
X28111000Y37395000D03*
X28111000Y34855000D03*
X28111000Y32315000D03*
X28111000Y29775000D03*
X28111000Y27235000D03*
X28111000Y24695000D03*
X28111000Y22155000D03*
X28111000Y19615000D03*
X28111000Y17075000D03*
X28111000Y14535000D03*
D15*
X7791000Y62795000D03*
D16*
X7791000Y60255000D03*
X7791000Y57715000D03*
X7791000Y55175000D03*
X7791000Y52635000D03*
X7791000Y50095000D03*
X7791000Y47555000D03*
X7791000Y45015000D03*
X7791000Y42475000D03*
X7791000Y39935000D03*
X7791000Y37395000D03*
X7791000Y34855000D03*
X7791000Y32315000D03*
X7791000Y29775000D03*
X7791000Y27235000D03*
X7791000Y24695000D03*
X7791000Y22155000D03*
X7791000Y19615000D03*
X7791000Y17075000D03*
X7791000Y14535000D03*
D17*
X15320200Y44979800D03*
X36660000Y11140000D03*
X36650000Y60910002D03*
X51960000Y6220000D03*
X6290000Y3880000D03*
X57010000Y6240000D03*
X28640000Y1930000D03*
X15330000Y1930000D03*
X41630007Y1939997D03*
X61939000Y57260000D03*
X2200000Y32890000D03*
X36650000Y30740000D03*
X37670000Y43680000D03*
X1770000Y53600000D03*
X44370000Y1490000D03*
X49370000Y16310000D03*
X17750000Y49490000D03*
X13510000Y14500000D03*
X33790000Y34290000D03*
X62630000Y13860000D03*
X29885100Y15830245D03*
X14170000Y9900000D03*
X50820000Y48160000D03*
X53330000Y16340000D03*
X50850000Y55170000D03*
X60630000Y7690000D03*
X43710000Y19040000D03*
X13460000Y16680000D03*
X46850000Y8520000D03*
X33010000Y14630000D03*
X38140000Y26550000D03*
X4330000Y30500000D03*
X9310200Y4990000D03*
X65520000Y26600000D03*
X20760000Y67220000D03*
X46830000Y67370000D03*
X17930000Y22910000D03*
X50480000Y29200000D03*
X59350000Y48680000D03*
X34800000Y37900000D03*
X5790000Y9180000D03*
X3530000Y59930000D03*
X23034998Y14534998D03*
X17810000Y44980000D03*
X9630000Y67220000D03*
X34950000Y28970000D03*
X57340000Y34450000D03*
X17630000Y24840000D03*
X34970000Y18950000D03*
X51160000Y40570000D03*
X43940157Y26203029D03*
X50330000Y23750000D03*
X65110000Y12160000D03*
X43610000Y43930000D03*
X57310000Y37410000D03*
X43550000Y56260000D03*
X55660000Y48380000D03*
X37700000Y46130000D03*
X65780000Y42070000D03*
X3010000Y1970000D03*
X21790000Y20790000D03*
X24740000Y4850000D03*
X23710000Y9320000D03*
X17080000Y62020000D03*
X35250000Y16150000D03*
X37790000Y38420000D03*
X34950000Y26550000D03*
X64380000Y1950000D03*
X44010000Y16100000D03*
X54835288Y21997097D03*
X38390000Y28910000D03*
X13690000Y20680000D03*
X54340000Y7840000D03*
X59200000Y53550000D03*
X51300000Y34220000D03*
X55040000Y31650000D03*
X50750000Y31570000D03*
X18000000Y16790000D03*
X18040000Y20980000D03*
X46039996Y63360000D03*
X35680000Y61460000D03*
X32590000Y5390000D03*
X35680000Y21520000D03*
X35680000Y63360000D03*
X12330000Y5350000D03*
X9210000Y7740000D03*
X12020000Y64720000D03*
X60250000Y13730000D03*
X19860000Y17050000D03*
X19860000Y58879998D03*
X45610000Y59640000D03*
X16290000Y19610000D03*
X58030000Y18550000D03*
X58670000Y44630000D03*
X16170000Y56680000D03*
X44970000Y22990000D03*
X13500000Y22160000D03*
X44970000Y48830000D03*
X13190000Y54330000D03*
X19320000Y52699998D03*
X19320000Y24690000D03*
X30350000Y53320000D03*
X59540000Y35390000D03*
X13720000Y51480000D03*
X30344100Y35980000D03*
X13720000Y55170000D03*
X45500600Y33090000D03*
X13790000Y32320000D03*
X13790000Y46770000D03*
X44070000Y34920000D03*
X44080000Y42620000D03*
X6000000Y35910000D03*
X43320000Y40660000D03*
X43320000Y36970000D03*
X6030000Y31130000D03*
X18200000Y41790000D03*
X18170000Y38930000D03*
X17248229Y40961887D03*
X16690000Y27230000D03*
X38960000Y34710000D03*
X38960000Y30421100D03*
X42400000Y23320000D03*
X42380000Y44580000D03*
X17630000Y42680000D03*
X17780000Y28700000D03*
X45510000Y25660000D03*
X2020000Y38480000D03*
X3330000Y27230000D03*
X32460000Y3530000D03*
X7410000Y11739400D03*
X38800000Y3530000D03*
X34990000Y24590000D03*
X31630000Y11740000D03*
X51700000Y37130000D03*
X51830000Y12931100D03*
X21110000Y26150000D03*
X31000000Y27260000D03*
X21110000Y15570006D03*
X21110000Y52650000D03*
X58720000Y17950000D03*
X58720000Y31930000D03*
X20460000Y61160000D03*
X20460000Y18509998D03*
X31020000Y60250000D03*
X12690000Y59710000D03*
X56910000Y57850000D03*
X12690000Y19620000D03*
X56910000Y39550000D03*
X31020000Y58010000D03*
X57680000Y42100000D03*
X14980000Y57740000D03*
X14090000Y23020000D03*
X57680000Y57250000D03*
X54140004Y53700000D03*
X54140000Y26850000D03*
X18750000Y56340000D03*
X18750000Y27220000D03*
X54880000Y28060000D03*
X29810000Y31190002D03*
X54880000Y24310000D03*
X56600000Y21760000D03*
X31870000Y50090000D03*
X31180000Y33000000D03*
X56600002Y30410000D03*
X57300000Y19230000D03*
X57290000Y32990000D03*
X23810000Y48600000D03*
X23570000Y35790000D03*
X55990000Y45210000D03*
X23850000Y37390000D03*
X55970000Y16690000D03*
X23950000Y46150000D03*
X31340000Y46210000D03*
X23770000Y20730000D03*
X50840000Y19250000D03*
X31340000Y42470000D03*
X48490000Y38500000D03*
X48150000Y6440000D03*
X35000000Y39940000D03*
X23830000Y38440000D03*
X33720000Y10230000D03*
X30410000Y10230000D03*
X30440000Y25110000D03*
X31100000Y37390000D03*
X16720000Y31290000D03*
X16710000Y55810000D03*
X21690000Y50740000D03*
X22410000Y28040000D03*
X21790000Y23200000D03*
X21790000Y47550000D03*
X23010000Y16050000D03*
X25570000Y66150000D03*
X23010000Y62800000D03*
X5870000Y12270000D03*
X28110000Y12270000D03*
X5539998Y61470000D03*
X30070000Y4800000D03*
X22240000Y6270000D03*
X11630000Y6270000D03*
X22240000Y10790000D03*
X40800000Y10120000D03*
X23780000Y63420000D03*
X63330000Y57280000D03*
X37710000Y20970000D03*
X37710000Y24048900D03*
X53160000Y29390000D03*
X53160000Y20490000D03*
X53610000Y60720000D03*
X13420000Y64900000D03*
X13420000Y57720000D03*
X39000000Y47820000D03*
X38870000Y21510000D03*
X37670000Y720000D03*
X48170000Y14380000D03*
X34370000Y14380000D03*
X34910000Y53590000D03*
X44900000Y54790000D03*
X44900000Y49800000D03*
X31030000Y12400000D03*
D18*
X36650000Y60910002D02*
X37189998Y61450000D01*
X48030000Y59260000D02*
X45830000Y61460000D01*
X4060000Y37380000D02*
X7776000Y37380000D01*
X6290000Y3880000D02*
X13380000Y3880000D01*
X7776000Y37380000D02*
X7791000Y37395000D01*
X40770000Y31675000D02*
X43375000Y31675000D01*
X61939000Y54790000D02*
X64479000Y54790000D01*
X45830000Y61460000D02*
X43420000Y61460000D01*
X2200000Y35520000D02*
X4060000Y37380000D01*
D19*
X50455000Y9680000D02*
X48315000Y9680000D01*
D20*
X64479000Y54790000D02*
X64529000Y54840000D01*
D18*
X37189998Y61450000D02*
X40770000Y61450000D01*
D19*
X48315000Y9680000D02*
X46845000Y11150000D01*
D18*
X10346000Y45000000D02*
X15300000Y45000000D01*
D19*
X51925000Y11150000D02*
X50455000Y9680000D01*
D18*
X13380000Y3880000D02*
X15330000Y1930000D01*
X37585000Y31675000D02*
X36650000Y30740000D01*
D20*
X7780000Y37384000D02*
X7791000Y37395000D01*
D18*
X59939000Y59260000D02*
X48030000Y59260000D01*
X43740000Y11150000D02*
X46845000Y11150000D01*
X43420000Y61460000D02*
X40780000Y61460000D01*
X61939000Y57260000D02*
X59939000Y59260000D01*
X2200000Y32890000D02*
X2200000Y35520000D01*
X40770000Y31675000D02*
X37585000Y31675000D01*
D20*
X40780000Y61460000D02*
X40770000Y61450000D01*
D18*
X15300000Y45000000D02*
X15320200Y44979800D01*
X15330000Y1930000D02*
X41620010Y1930000D01*
X43740000Y11150000D02*
X36670000Y11150000D01*
D19*
X51960000Y6220000D02*
X56990000Y6220000D01*
X25571000Y14535000D02*
X23035000Y14535000D01*
D18*
X40770000Y43670000D02*
X37680000Y43670000D01*
D20*
X38615000Y29135000D02*
X40770000Y29135000D01*
X23035000Y14535000D02*
X23034998Y14534998D01*
D18*
X40770000Y29135000D02*
X43335000Y29135000D01*
D20*
X38390000Y28910000D02*
X38615000Y29135000D01*
D19*
X29375000Y34855000D02*
X29940000Y34290000D01*
D20*
X33150000Y38590000D02*
X37620000Y38590000D01*
X37620000Y38590000D02*
X37790000Y38420000D01*
X43350000Y43670000D02*
X40770000Y43670000D01*
X37780000Y46210000D02*
X40770000Y46210000D01*
X37700000Y46130000D02*
X37780000Y46210000D01*
D18*
X37660000Y43670000D02*
X33150000Y43670000D01*
D20*
X43610000Y43930000D02*
X43350000Y43670000D01*
D19*
X28111000Y34855000D02*
X29375000Y34855000D01*
D20*
X43335000Y29135000D02*
X43410000Y29210000D01*
D19*
X29940000Y34290000D02*
X33790000Y34290000D01*
D20*
X35680000Y61460000D02*
X35670000Y61450000D01*
X35670000Y61450000D02*
X33150000Y61450000D01*
X35675000Y21515000D02*
X35680000Y21520000D01*
X33150000Y21515000D02*
X35675000Y21515000D01*
X52605000Y5390000D02*
X32590000Y5390000D01*
X54465000Y3530000D02*
X52605000Y5390000D01*
X35680000Y63360000D02*
X46039996Y63360000D01*
X15985000Y5350000D02*
X12330000Y5350000D01*
X17555000Y3780000D02*
X15985000Y5350000D01*
X16804000Y7740000D02*
X17686000Y8622000D01*
X9210000Y7740000D02*
X16804000Y7740000D01*
X9716000Y64720000D02*
X7791000Y62795000D01*
X12020000Y64720000D02*
X9716000Y64720000D01*
X11486000Y13380000D02*
X10331000Y14535000D01*
X60250000Y13730000D02*
X29570000Y13730000D01*
X29570000Y13730000D02*
X29220000Y13380000D01*
X29220000Y13380000D02*
X11486000Y13380000D01*
X9166002Y58879998D02*
X19860000Y58879998D01*
X31270002Y58860002D02*
X19879996Y58860002D01*
X7791000Y60255000D02*
X9166002Y58879998D01*
X45190000Y60060000D02*
X32470000Y60060000D01*
X45610000Y59640000D02*
X45190000Y60060000D01*
X25571000Y17075000D02*
X19885000Y17075000D01*
X19879996Y58860002D02*
X19860000Y58879998D01*
X32470000Y60060000D02*
X31270002Y58860002D01*
X19885000Y17075000D02*
X19860000Y17050000D01*
X45408948Y18170000D02*
X57650000Y18170000D01*
X45128948Y17890000D02*
X45408948Y18170000D01*
X16290000Y19610000D02*
X16295000Y19615000D01*
X25571000Y19615000D02*
X26706000Y18480000D01*
X57650000Y18170000D02*
X58030000Y18550000D01*
X58670000Y44630000D02*
X61939000Y44630000D01*
X31450000Y18480000D02*
X32040000Y17890000D01*
X26706000Y18480000D02*
X31450000Y18480000D01*
X8826000Y56680000D02*
X16170000Y56680000D01*
X7791000Y57715000D02*
X8826000Y56680000D01*
X16295000Y19615000D02*
X25571000Y19615000D01*
X32040000Y17890000D02*
X45128948Y17890000D01*
X44655200Y22675200D02*
X44970000Y22990000D01*
X11225000Y54120000D02*
X8846000Y54120000D01*
X28660000Y21030000D02*
X30305200Y22675200D01*
X45819000Y48830000D02*
X46699000Y49710000D01*
X26696000Y21030000D02*
X28660000Y21030000D01*
X13505000Y22155000D02*
X13500000Y22160000D01*
X25571000Y22155000D02*
X13505000Y22155000D01*
X44970000Y48830000D02*
X45819000Y48830000D01*
X25571000Y22155000D02*
X26696000Y21030000D01*
X13190000Y54330000D02*
X11435000Y54330000D01*
X30305200Y22675200D02*
X44655200Y22675200D01*
X8846000Y54120000D02*
X7791000Y55175000D01*
X11435000Y54330000D02*
X11225000Y54120000D01*
X19325000Y24695000D02*
X19320000Y24690000D01*
X8876000Y53720000D02*
X18299998Y53720000D01*
X18299998Y53720000D02*
X19320000Y52699998D01*
X25571000Y24695000D02*
X19325000Y24695000D01*
X28620000Y51490000D02*
X20529998Y51490000D01*
X60849000Y51160000D02*
X42380000Y51160000D01*
X42380000Y51160000D02*
X41140000Y52400000D01*
X41140000Y52400000D02*
X29530000Y52400000D01*
X61939000Y52250000D02*
X60849000Y51160000D01*
X20529998Y51490000D02*
X19320000Y52699998D01*
X7791000Y52635000D02*
X8876000Y53720000D01*
X29530000Y52400000D02*
X28620000Y51490000D01*
X29930000Y53740000D02*
X27006000Y53740000D01*
X59431400Y35498600D02*
X30825500Y35498600D01*
X25571000Y55175000D02*
X13725000Y55175000D01*
X13720000Y51480000D02*
X9176000Y51480000D01*
X59540000Y35390000D02*
X59431400Y35498600D01*
X13725000Y55175000D02*
X13720000Y55170000D01*
X27006000Y53740000D02*
X25571000Y55175000D01*
X30350000Y53320000D02*
X29930000Y53740000D01*
X9176000Y51480000D02*
X7791000Y50095000D01*
X30825500Y35498600D02*
X30344100Y35980000D01*
X13785000Y32315000D02*
X10331000Y32315000D01*
X15168400Y33698400D02*
X13790000Y32320000D01*
X7791000Y47555000D02*
X8819600Y46526400D01*
X8819600Y46526400D02*
X13546400Y46526400D01*
X13546400Y46526400D02*
X13790000Y46770000D01*
X13790000Y32320000D02*
X13785000Y32315000D01*
X44892200Y33698400D02*
X15168400Y33698400D01*
X45500600Y33090000D02*
X44892200Y33698400D01*
X44305200Y34684800D02*
X45286252Y34684800D01*
X8916000Y43890000D02*
X31370000Y43890000D01*
X32640000Y42620000D02*
X44080000Y42620000D01*
X10331000Y34855000D02*
X9252400Y35933600D01*
X31370000Y43890000D02*
X32640000Y42620000D01*
X45501052Y34470000D02*
X46699000Y34470000D01*
X44070000Y34920000D02*
X44305200Y34684800D01*
X6023600Y35933600D02*
X6000000Y35910000D01*
X7791000Y45015000D02*
X8916000Y43890000D01*
X9252400Y35933600D02*
X6023600Y35933600D01*
X45286252Y34684800D02*
X45501052Y34470000D01*
X11610000Y41790000D02*
X18200000Y41790000D01*
X31480000Y38740000D02*
X33250000Y36970000D01*
X18211100Y38971100D02*
X24190000Y38971100D01*
X43320000Y40660000D02*
X45589000Y40660000D01*
X11150000Y41330000D02*
X11610000Y41790000D01*
X24190000Y38971100D02*
X24421100Y38740000D01*
X8936000Y41330000D02*
X11150000Y41330000D01*
X18170000Y38930000D02*
X18211100Y38971100D01*
X7791000Y42475000D02*
X8936000Y41330000D01*
X6030000Y31130000D02*
X8976000Y31130000D01*
X33250000Y36970000D02*
X43320000Y36970000D01*
X24421100Y38740000D02*
X31480000Y38740000D01*
X45589000Y40660000D02*
X46699000Y39550000D01*
X8976000Y31130000D02*
X10331000Y29775000D01*
X46699000Y42090000D02*
X45899001Y41290001D01*
X31000000Y43580000D02*
X25180000Y43580000D01*
X16685000Y27235000D02*
X16690000Y27230000D01*
X8819600Y40963600D02*
X17246516Y40963600D01*
X25180000Y43580000D02*
X22561887Y40961887D01*
X22561887Y40961887D02*
X17248229Y40961887D01*
X17246516Y40963600D02*
X17248229Y40961887D01*
X32390000Y42190000D02*
X31000000Y43580000D01*
X44658910Y41290001D02*
X43758911Y42190000D01*
X10331000Y27235000D02*
X16685000Y27235000D01*
X43758911Y42190000D02*
X32390000Y42190000D01*
X45899001Y41290001D02*
X44658910Y41290001D01*
X7791000Y39935000D02*
X8819600Y40963600D01*
X45343800Y30574800D02*
X39113700Y30574800D01*
X38500000Y35170000D02*
X38960000Y34710000D01*
X29295200Y36264800D02*
X29308211Y36264800D01*
X39113700Y30574800D02*
X38960000Y30421100D01*
X29285200Y36274800D02*
X29295200Y36264800D01*
X29308211Y36264800D02*
X30403011Y35170000D01*
X46699000Y31930000D02*
X45343800Y30574800D01*
X23005000Y37395000D02*
X24125200Y36274800D01*
X10331000Y37395000D02*
X23005000Y37395000D01*
X30403011Y35170000D02*
X38500000Y35170000D01*
X24125200Y36274800D02*
X29285200Y36274800D01*
X22210000Y23800000D02*
X22510000Y23500000D01*
X22510000Y23500000D02*
X31970000Y23500000D01*
X31970000Y23500000D02*
X32490000Y22980000D01*
X10331000Y24695000D02*
X11226000Y23800000D01*
X11226000Y23800000D02*
X22210000Y23800000D01*
X42380000Y44580000D02*
X42430000Y44630000D01*
X42430000Y44630000D02*
X46699000Y44630000D01*
X32490000Y22980000D02*
X42060000Y22980000D01*
X42060000Y22980000D02*
X42400000Y23320000D01*
X17805200Y28674800D02*
X30385200Y28674800D01*
X31360000Y27700000D02*
X45849000Y27700000D01*
X17780000Y28700000D02*
X17805200Y28674800D01*
X30385200Y28674800D02*
X31360000Y27700000D01*
X10936000Y43080000D02*
X17230000Y43080000D01*
X8866000Y28700000D02*
X7791000Y29775000D01*
X45849000Y27700000D02*
X46699000Y26850000D01*
X17780000Y28700000D02*
X8866000Y28700000D01*
X10331000Y42475000D02*
X10936000Y43080000D01*
X17230000Y43080000D02*
X17630000Y42680000D01*
X8876000Y38480000D02*
X2020000Y38480000D01*
X8996000Y26030000D02*
X10920000Y26030000D01*
X10331000Y39935000D02*
X8876000Y38480000D01*
X7791000Y27235000D02*
X8996000Y26030000D01*
X30544800Y25815200D02*
X30820000Y25540000D01*
X30820000Y25540000D02*
X45390000Y25540000D01*
X11331100Y25618900D02*
X24498900Y25618900D01*
X3335000Y27235000D02*
X7791000Y27235000D01*
X24498900Y25618900D02*
X24695200Y25815200D01*
X24695200Y25815200D02*
X30544800Y25815200D01*
X3330000Y27230000D02*
X3335000Y27235000D01*
X45390000Y25540000D02*
X45510000Y25660000D01*
X10920000Y26030000D02*
X11331100Y25618900D01*
X7410000Y11739400D02*
X31629400Y11739400D01*
X38800000Y3530000D02*
X32460000Y3530000D01*
X46845000Y3530000D02*
X38800000Y3530000D01*
X40235000Y24590000D02*
X34990000Y24590000D01*
X40770000Y24055000D02*
X40235000Y24590000D01*
X49118911Y37120000D02*
X51710000Y37120000D01*
X48108911Y38130000D02*
X49118911Y37120000D01*
X6520000Y13930000D02*
X6520000Y15804000D01*
X40770000Y38590000D02*
X41230000Y38130000D01*
X41230000Y38130000D02*
X48108911Y38130000D01*
X34840000Y12931100D02*
X7518900Y12931100D01*
X51710000Y37120000D02*
X51700000Y37130000D01*
X6520000Y15804000D02*
X7791000Y17075000D01*
X51830000Y12931100D02*
X60303900Y12931100D01*
X7518900Y12931100D02*
X6520000Y13930000D01*
X34840000Y12931100D02*
X51830000Y12931100D01*
X62085000Y11150000D02*
X60303900Y12931100D01*
X7791000Y14535000D02*
X8826006Y15570006D01*
X31000000Y27260000D02*
X29860000Y26120000D01*
X8826006Y15570006D02*
X21110000Y15570006D01*
X29860000Y26120000D02*
X21140000Y26120000D01*
X25571000Y52635000D02*
X21125000Y52635000D01*
X21125000Y52635000D02*
X21110000Y52650000D01*
X21140000Y26120000D02*
X21110000Y26150000D01*
X11765998Y18509998D02*
X20460000Y18509998D01*
X58720000Y31930000D02*
X61939000Y31930000D01*
X10331000Y17075000D02*
X11765998Y18509998D01*
X58720000Y17950000D02*
X58635200Y17865200D01*
X58635200Y17865200D02*
X45535200Y17865200D01*
X27010800Y61694800D02*
X28111000Y62795000D01*
X45195200Y17525200D02*
X31903748Y17525200D01*
X20994800Y61694800D02*
X27010800Y61694800D01*
X31903748Y17525200D02*
X31253748Y18175200D01*
X31253748Y18175200D02*
X20794798Y18175200D01*
X20460000Y61160000D02*
X20994800Y61694800D01*
X45535200Y17865200D02*
X45195200Y17525200D01*
X20794798Y18175200D02*
X20460000Y18509998D01*
X20077489Y59710000D02*
X12690000Y59710000D01*
X28111000Y60255000D02*
X27036000Y59180000D01*
X56910000Y57850000D02*
X56900000Y57840000D01*
X28111000Y60255000D02*
X31015000Y60255000D01*
X31020000Y57840000D02*
X31020000Y58010000D01*
X56900000Y57840000D02*
X31020000Y57840000D01*
X56910000Y39550000D02*
X61939000Y39550000D01*
X27036000Y59180000D02*
X20607489Y59180000D01*
X12685000Y19615000D02*
X10331000Y19615000D01*
X12690000Y19620000D02*
X12685000Y19615000D01*
X31015000Y60255000D02*
X31020000Y60250000D01*
X20607489Y59180000D02*
X20077489Y59710000D01*
X57680000Y57250000D02*
X41344661Y57250000D01*
X27082400Y56686400D02*
X19154689Y56686400D01*
X28111000Y57715000D02*
X27082400Y56686400D01*
X41184661Y57410000D02*
X28416000Y57410000D01*
X28416000Y57410000D02*
X28111000Y57715000D01*
X14090000Y23020000D02*
X11196000Y23020000D01*
X11196000Y23020000D02*
X10331000Y22155000D01*
X57690000Y42090000D02*
X57680000Y42100000D01*
X18101089Y57740000D02*
X14980000Y57740000D01*
X19154689Y56686400D02*
X18101089Y57740000D01*
X41344661Y57250000D02*
X41184661Y57410000D01*
X61939000Y42090000D02*
X57690000Y42090000D01*
X28111000Y55175000D02*
X43763911Y55175000D01*
X26946000Y56340000D02*
X28111000Y55175000D01*
X18750000Y56340000D02*
X26946000Y56340000D01*
X18765000Y27235000D02*
X18750000Y27220000D01*
X45238911Y53700000D02*
X54140004Y53700000D01*
X43763911Y55175000D02*
X45238911Y53700000D01*
X25571000Y27235000D02*
X18765000Y27235000D01*
X54140000Y26850000D02*
X61939000Y26850000D01*
X29810000Y31190002D02*
X30836402Y30163600D01*
X54880000Y24310000D02*
X61939000Y24310000D01*
X30836402Y30163600D02*
X35466400Y30163600D01*
X25571000Y29775000D02*
X26005000Y29775000D01*
X27420002Y31190002D02*
X29810000Y31190002D01*
X26005000Y29775000D02*
X27420002Y31190002D01*
X35466400Y30163600D02*
X37570000Y28060000D01*
X37570000Y28060000D02*
X54880000Y28060000D01*
X31865000Y50095000D02*
X28111000Y50095000D01*
X32157800Y30610000D02*
X35460000Y30610000D01*
X31180000Y33000000D02*
X31180000Y31587800D01*
X36300000Y29770000D02*
X39059989Y29770000D01*
X25571000Y32315000D02*
X26649600Y33393600D01*
X30786400Y33393600D02*
X31180000Y33000000D01*
X45480000Y30270000D02*
X45630000Y30420000D01*
X26649600Y33393600D02*
X30786400Y33393600D01*
X45630000Y30420000D02*
X56590002Y30420000D01*
X56590002Y30420000D02*
X56600002Y30410000D01*
X39059989Y29770000D02*
X39559989Y30270000D01*
X35460000Y30610000D02*
X36300000Y29770000D01*
X31180000Y31587800D02*
X32157800Y30610000D01*
X39559989Y30270000D02*
X45480000Y30270000D01*
X31870000Y50090000D02*
X31865000Y50095000D01*
X56600000Y21760000D02*
X56610000Y21770000D01*
X56610000Y21770000D02*
X61939000Y21770000D01*
X25571000Y34855000D02*
X24636000Y35790000D01*
X38740011Y34178900D02*
X45361100Y34178900D01*
X38058911Y34860000D02*
X38740011Y34178900D01*
X46550000Y32990000D02*
X57290000Y32990000D01*
X30268948Y34860000D02*
X38058911Y34860000D01*
X57300000Y19230000D02*
X61939000Y19230000D01*
X29158948Y35970000D02*
X30268948Y34860000D01*
X23850000Y48640000D02*
X23810000Y48600000D01*
X24636000Y35790000D02*
X23570000Y35790000D01*
X28111000Y47555000D02*
X27026000Y48640000D01*
X27026000Y48640000D02*
X23850000Y48640000D01*
X45361100Y34178900D02*
X46550000Y32990000D01*
X25571000Y34855000D02*
X26686000Y35970000D01*
X26686000Y35970000D02*
X29158948Y35970000D01*
X41029661Y45015000D02*
X41673261Y45658600D01*
X41673261Y45658600D02*
X55541400Y45658600D01*
X28111000Y45015000D02*
X41029661Y45015000D01*
X23850000Y37390000D02*
X23855000Y37395000D01*
X28111000Y45015000D02*
X26976000Y46150000D01*
X55541400Y45658600D02*
X55990000Y45210000D01*
X23855000Y37395000D02*
X25571000Y37395000D01*
X55970000Y16690000D02*
X61939000Y16690000D01*
X26976000Y46150000D02*
X23950000Y46150000D01*
X23774800Y20725200D02*
X23770000Y20730000D01*
X33150000Y46210000D02*
X31340000Y46210000D01*
X31335000Y42475000D02*
X31340000Y42470000D01*
X46699000Y19230000D02*
X45899000Y20030000D01*
X28111000Y42475000D02*
X31335000Y42475000D01*
X50820000Y19230000D02*
X46699000Y19230000D01*
X29234800Y20725200D02*
X23774800Y20725200D01*
X50840000Y19250000D02*
X50820000Y19230000D01*
X29930000Y20030000D02*
X29234800Y20725200D01*
X45899000Y20030000D02*
X29930000Y20030000D01*
X34995000Y39935000D02*
X35000000Y39940000D01*
X28111000Y39935000D02*
X25571000Y42475000D01*
X37560000Y6440000D02*
X36260000Y7740000D01*
X44470000Y39940000D02*
X45910000Y38500000D01*
X45910000Y38500000D02*
X48490000Y38500000D01*
X28111000Y39935000D02*
X34995000Y39935000D01*
X35000000Y39940000D02*
X44470000Y39940000D01*
X48150000Y6440000D02*
X37560000Y6440000D01*
X31095000Y37395000D02*
X31100000Y37390000D01*
X46699000Y24310000D02*
X45887900Y25121100D01*
X23846400Y38423600D02*
X27082400Y38423600D01*
X28111000Y37395000D02*
X31095000Y37395000D01*
X27082400Y38423600D02*
X28111000Y37395000D01*
X45887900Y25121100D02*
X30451100Y25121100D01*
X33720000Y10230000D02*
X30410000Y10230000D01*
X10331000Y55175000D02*
X10966000Y55810000D01*
X16790000Y31220000D02*
X16720000Y31290000D01*
X27016000Y31220000D02*
X16790000Y31220000D01*
X28111000Y32315000D02*
X27016000Y31220000D01*
X10966000Y55810000D02*
X16710000Y55810000D01*
X24410000Y28040000D02*
X22410000Y28040000D01*
X10976000Y50740000D02*
X10331000Y50095000D01*
X21690000Y50740000D02*
X10976000Y50740000D01*
X26976000Y28370000D02*
X24740000Y28370000D01*
X28111000Y27235000D02*
X26976000Y28370000D01*
X24740000Y28370000D02*
X24410000Y28040000D01*
X41220000Y47280000D02*
X29450000Y47280000D01*
X4450000Y43300000D02*
X4450000Y43160000D01*
X21790000Y47550000D02*
X20380000Y46140000D01*
X60849000Y46080000D02*
X42420000Y46080000D01*
X42420000Y46080000D02*
X41220000Y47280000D01*
X21795000Y47555000D02*
X25571000Y47555000D01*
X61939000Y47170000D02*
X60849000Y46080000D01*
X28111000Y22155000D02*
X27070800Y23195200D01*
X26671200Y46454800D02*
X25571000Y47555000D01*
X21794800Y23195200D02*
X21790000Y23200000D01*
X7290000Y46140000D02*
X4450000Y43300000D01*
X27070800Y23195200D02*
X21794800Y23195200D01*
X21790000Y47550000D02*
X21795000Y47555000D01*
X29450000Y47280000D02*
X28624800Y46454800D01*
X28624800Y46454800D02*
X26671200Y46454800D01*
X20380000Y46140000D02*
X7290000Y46140000D01*
X23010000Y62800000D02*
X23015000Y62795000D01*
X23015000Y62795000D02*
X25571000Y62795000D01*
X38741400Y67038600D02*
X26458600Y67038600D01*
X39770000Y66010000D02*
X38741400Y67038600D01*
X27082400Y16046400D02*
X23013600Y16046400D01*
X28111000Y17075000D02*
X27082400Y16046400D01*
X23013600Y16046400D02*
X23010000Y16050000D01*
X26458600Y67038600D02*
X25570000Y66150000D01*
X9116000Y61470000D02*
X5539998Y61470000D01*
X10331000Y60255000D02*
X9116000Y61470000D01*
X28110000Y12270000D02*
X5870000Y12270000D01*
X49385000Y3530000D02*
X48145000Y4770000D01*
X48145000Y4770000D02*
X30060000Y4770000D01*
X22240000Y10790000D02*
X22261100Y10768900D01*
X34835260Y10768900D02*
X35484160Y10120000D01*
X35484160Y10120000D02*
X40800000Y10120000D01*
X22261100Y10768900D02*
X34835260Y10768900D01*
X11630000Y6270000D02*
X22240000Y6270000D01*
X63330000Y57280000D02*
X60430000Y60180000D01*
X49520000Y63920000D02*
X24280000Y63920000D01*
X53260000Y60180000D02*
X49520000Y63920000D01*
X24280000Y63920000D02*
X23780000Y63420000D01*
X60430000Y60180000D02*
X53260000Y60180000D01*
X38260000Y20420000D02*
X53090000Y20420000D01*
X53160000Y29390000D02*
X61939000Y29390000D01*
X33150000Y24055000D02*
X33156100Y24048900D01*
X37710000Y20970000D02*
X38260000Y20420000D01*
X33156100Y24048900D02*
X37710000Y24048900D01*
X53090000Y20420000D02*
X53160000Y20490000D01*
X49870000Y64900000D02*
X13420000Y64900000D01*
X53610000Y60720000D02*
X53610000Y61160000D01*
X13415000Y57715000D02*
X10331000Y57715000D01*
X53610000Y61160000D02*
X49870000Y64900000D01*
X13420000Y57720000D02*
X13415000Y57715000D01*
X4450000Y45850000D02*
X7402129Y48802129D01*
X29690000Y47680000D02*
X28420000Y48950000D01*
X22622129Y48802129D02*
X23915000Y50095000D01*
X4450000Y45700000D02*
X4450000Y45850000D01*
X34140000Y47820000D02*
X34000000Y47680000D01*
X23915000Y50095000D02*
X25571000Y50095000D01*
X39000000Y47820000D02*
X34140000Y47820000D01*
X7402129Y48802129D02*
X22622129Y48802129D01*
X26716000Y48950000D02*
X25571000Y50095000D01*
X34000000Y47680000D02*
X29690000Y47680000D01*
X28420000Y48950000D02*
X26716000Y48950000D01*
X40770000Y21515000D02*
X38875000Y21515000D01*
X38875000Y21515000D02*
X38870000Y21510000D01*
X9210000Y1780000D02*
X10270000Y720000D01*
X10270000Y720000D02*
X37670000Y720000D01*
X48170000Y14380000D02*
X34370000Y14380000D01*
X35795200Y52704800D02*
X46244200Y52704800D01*
X46244200Y52704800D02*
X46699000Y52250000D01*
X34910000Y53590000D02*
X35795200Y52704800D01*
X41230000Y50220000D02*
X34220000Y50220000D01*
X34220000Y50220000D02*
X33150000Y51290000D01*
X61939000Y49710000D02*
X60879000Y50770000D01*
X60879000Y50770000D02*
X41780000Y50770000D01*
X41780000Y50770000D02*
X41230000Y50220000D01*
X33150000Y48750000D02*
X34178600Y49778600D01*
X44878600Y49778600D02*
X44900000Y49800000D01*
X44900000Y54790000D02*
X46699000Y54790000D01*
X34178600Y49778600D02*
X44878600Y49778600D01*
X57005000Y11150000D02*
X55755000Y12400000D01*
X55755000Y12400000D02*
X31030000Y12400000D01*
%TA.AperFunction,Conductor*%
G36*
X22208403Y16478615D02*
G01*
X22254158Y16425811D01*
X22264102Y16356653D01*
X22258406Y16333346D01*
X22222178Y16229813D01*
X22222177Y16229807D01*
X22201919Y16050004D01*
X22201919Y16049997D01*
X22222177Y15870194D01*
X22222178Y15870188D01*
X22281943Y15699388D01*
X22346994Y15595861D01*
X22378217Y15546170D01*
X22506170Y15418217D01*
X22659387Y15321944D01*
X22830185Y15262179D01*
X22830191Y15262179D01*
X22830193Y15262178D01*
X23009996Y15241919D01*
X23010000Y15241919D01*
X23010004Y15241919D01*
X23189806Y15262178D01*
X23189805Y15262178D01*
X23189815Y15262179D01*
X23360613Y15321944D01*
X23513830Y15418217D01*
X23528993Y15433381D01*
X23590317Y15466866D01*
X23616675Y15469700D01*
X24400275Y15469700D01*
X24467314Y15450015D01*
X24513069Y15397211D01*
X24523013Y15328053D01*
X24501850Y15274576D01*
X24440866Y15187483D01*
X24344734Y14981327D01*
X24344730Y14981318D01*
X24292127Y14785001D01*
X24292128Y14785000D01*
X25060424Y14785000D01*
X25127463Y14765315D01*
X25173218Y14712511D01*
X25183162Y14643353D01*
X25182897Y14641603D01*
X25166014Y14535004D01*
X25166014Y14534997D01*
X25182897Y14428397D01*
X25173942Y14359104D01*
X25128946Y14305652D01*
X25062194Y14285013D01*
X25060424Y14285000D01*
X24292128Y14285000D01*
X24338270Y14112793D01*
X24336607Y14042943D01*
X24297444Y13985081D01*
X24233216Y13957577D01*
X24218495Y13956700D01*
X11776239Y13956700D01*
X11709200Y13976385D01*
X11688558Y13993019D01*
X11615828Y14065749D01*
X11582343Y14127072D01*
X11583733Y14185522D01*
X11616635Y14308308D01*
X11636468Y14535000D01*
X11636198Y14538081D01*
X11625519Y14660148D01*
X11616635Y14761692D01*
X11596399Y14837214D01*
X11598062Y14907062D01*
X11637224Y14964925D01*
X11701453Y14992429D01*
X11716174Y14993306D01*
X20499725Y14993306D01*
X20566764Y14973621D01*
X20587406Y14956987D01*
X20606170Y14938223D01*
X20759387Y14841950D01*
X20930185Y14782185D01*
X20930191Y14782185D01*
X20930193Y14782184D01*
X21109996Y14761925D01*
X21110000Y14761925D01*
X21110004Y14761925D01*
X21289806Y14782184D01*
X21289805Y14782184D01*
X21289815Y14782185D01*
X21460613Y14841950D01*
X21613830Y14938223D01*
X21741783Y15066176D01*
X21838056Y15219393D01*
X21897821Y15390191D01*
X21902865Y15434955D01*
X21918081Y15570003D01*
X21918081Y15570010D01*
X21897822Y15749813D01*
X21897821Y15749819D01*
X21897821Y15749821D01*
X21838056Y15920619D01*
X21741783Y16073836D01*
X21613830Y16201789D01*
X21613824Y16201794D01*
X21506378Y16269307D01*
X21460087Y16321641D01*
X21449439Y16390695D01*
X21477814Y16454543D01*
X21536204Y16492915D01*
X21572350Y16498300D01*
X22141364Y16498300D01*
X22208403Y16478615D01*
G37*
%TD.AperFunction*%
%TA.AperFunction,Conductor*%
G36*
X31030548Y17578815D02*
G01*
X31051190Y17562181D01*
X31466351Y17147020D01*
X31471704Y17140917D01*
X31475095Y17136498D01*
X31492441Y17113893D01*
X31518541Y17093866D01*
X31522686Y17090685D01*
X31612908Y17021454D01*
X31612911Y17021452D01*
X31701372Y16984811D01*
X31753199Y16963344D01*
X31798964Y16957319D01*
X31862861Y16929053D01*
X31901332Y16870728D01*
X31902554Y16802287D01*
X31864860Y16661611D01*
X31864858Y16661600D01*
X31845034Y16435003D01*
X31845034Y16434998D01*
X31864858Y16208401D01*
X31864860Y16208390D01*
X31923730Y15988683D01*
X31923734Y15988674D01*
X32019865Y15782519D01*
X32019866Y15782517D01*
X32070973Y15709529D01*
X32070973Y15709528D01*
X32612580Y16251135D01*
X32673903Y16284620D01*
X32743594Y16279636D01*
X32799528Y16237765D01*
X32810742Y16219754D01*
X32816527Y16208401D01*
X32822358Y16196956D01*
X32822363Y16196950D01*
X32911949Y16107364D01*
X32911951Y16107363D01*
X32911955Y16107359D01*
X32934747Y16095746D01*
X32985542Y16047772D01*
X33002337Y15979951D01*
X32979799Y15913816D01*
X32966132Y15897581D01*
X32424526Y15355975D01*
X32424526Y15355974D01*
X32497512Y15304869D01*
X32497516Y15304867D01*
X32703673Y15208735D01*
X32703682Y15208731D01*
X32923389Y15149861D01*
X32923400Y15149859D01*
X33149998Y15130034D01*
X33150002Y15130034D01*
X33376599Y15149859D01*
X33376610Y15149861D01*
X33596317Y15208731D01*
X33596331Y15208736D01*
X33802478Y15304864D01*
X33875472Y15355975D01*
X33333866Y15897581D01*
X33300381Y15958904D01*
X33305365Y16028596D01*
X33347237Y16084529D01*
X33365245Y16095742D01*
X33388045Y16107359D01*
X33477641Y16196955D01*
X33489254Y16219748D01*
X33537225Y16270542D01*
X33605046Y16287339D01*
X33671181Y16264803D01*
X33687419Y16251134D01*
X34229025Y15709528D01*
X34280136Y15782522D01*
X34376264Y15988669D01*
X34376269Y15988683D01*
X34435139Y16208390D01*
X34435141Y16208401D01*
X34454966Y16434998D01*
X34454966Y16435003D01*
X34435141Y16661600D01*
X34435139Y16661611D01*
X34400093Y16792407D01*
X34401756Y16862257D01*
X34440919Y16920119D01*
X34505147Y16947623D01*
X34519868Y16948500D01*
X39399615Y16948500D01*
X39466654Y16928815D01*
X39512409Y16876011D01*
X39522353Y16806853D01*
X39519390Y16792407D01*
X39484366Y16661697D01*
X39484364Y16661687D01*
X39464532Y16435002D01*
X39464532Y16434999D01*
X39484364Y16208314D01*
X39484366Y16208303D01*
X39543258Y15988512D01*
X39543261Y15988503D01*
X39639431Y15782268D01*
X39639432Y15782266D01*
X39769954Y15595859D01*
X39930858Y15434955D01*
X39964887Y15411128D01*
X40117266Y15304432D01*
X40323504Y15208261D01*
X40323509Y15208260D01*
X40323511Y15208259D01*
X40352561Y15200475D01*
X40412222Y15164110D01*
X40442751Y15101263D01*
X40434457Y15031888D01*
X40389971Y14978010D01*
X40323420Y14956735D01*
X40320468Y14956700D01*
X34980275Y14956700D01*
X34913236Y14976385D01*
X34892594Y14993019D01*
X34873830Y15011783D01*
X34720612Y15108057D01*
X34549812Y15167822D01*
X34549806Y15167823D01*
X34370004Y15188081D01*
X34369996Y15188081D01*
X34190193Y15167823D01*
X34190187Y15167822D01*
X34019387Y15108057D01*
X33866169Y15011783D01*
X33738217Y14883831D01*
X33641943Y14730613D01*
X33582178Y14559813D01*
X33582177Y14559808D01*
X33566067Y14416817D01*
X33539001Y14352403D01*
X33481406Y14312848D01*
X33442847Y14306700D01*
X29611863Y14306700D01*
X29603767Y14307231D01*
X29583060Y14309957D01*
X29566205Y14312176D01*
X29502309Y14340444D01*
X29463839Y14398769D01*
X29458865Y14445920D01*
X29466659Y14535000D01*
X29466389Y14538081D01*
X29451128Y14712511D01*
X29446063Y14770408D01*
X29384903Y14998663D01*
X29285035Y15212829D01*
X29280439Y15219394D01*
X29149494Y15406403D01*
X28982402Y15573494D01*
X28982401Y15573495D01*
X28802609Y15699387D01*
X28796841Y15703426D01*
X28753216Y15758003D01*
X28746024Y15827502D01*
X28777546Y15889856D01*
X28796836Y15906572D01*
X28982401Y16036505D01*
X29149495Y16203599D01*
X29285035Y16397170D01*
X29384903Y16611337D01*
X29446063Y16839592D01*
X29466659Y17075000D01*
X29446063Y17310408D01*
X29419821Y17408347D01*
X29410695Y17442407D01*
X29412358Y17512257D01*
X29451521Y17570119D01*
X29515750Y17597623D01*
X29530470Y17598500D01*
X30963509Y17598500D01*
X31030548Y17578815D01*
G37*
%TD.AperFunction*%
%TA.AperFunction,Conductor*%
G36*
X19393079Y17913613D02*
G01*
X19438834Y17860809D01*
X19448778Y17791651D01*
X19419753Y17728095D01*
X19392012Y17704305D01*
X19356175Y17681788D01*
X19356169Y17681783D01*
X19228217Y17553831D01*
X19131943Y17400613D01*
X19072178Y17229813D01*
X19072177Y17229807D01*
X19051919Y17050004D01*
X19051919Y17049997D01*
X19072177Y16870194D01*
X19072178Y16870188D01*
X19072178Y16870186D01*
X19072179Y16870185D01*
X19076426Y16858047D01*
X19131943Y16699388D01*
X19228217Y16546170D01*
X19356171Y16418216D01*
X19423836Y16375699D01*
X19470126Y16323365D01*
X19480774Y16254311D01*
X19452399Y16190463D01*
X19394009Y16152091D01*
X19357863Y16146706D01*
X11506821Y16146706D01*
X11439782Y16166391D01*
X11394027Y16219195D01*
X11384083Y16288353D01*
X11405246Y16341829D01*
X11419621Y16362359D01*
X11461568Y16422266D01*
X11557739Y16628504D01*
X11616635Y16848308D01*
X11636468Y17075000D01*
X11616635Y17301692D01*
X11583734Y17424479D01*
X11585397Y17494328D01*
X11615826Y17544251D01*
X11968555Y17896979D01*
X12029879Y17930464D01*
X12056237Y17933298D01*
X19326040Y17933298D01*
X19393079Y17913613D01*
G37*
%TD.AperFunction*%
%TA.AperFunction,Conductor*%
G36*
X39457222Y19433615D02*
G01*
X39502977Y19380811D01*
X39512921Y19311653D01*
X39509958Y19297207D01*
X39484366Y19201698D01*
X39484364Y19201687D01*
X39464532Y18975002D01*
X39464532Y18974999D01*
X39484364Y18748314D01*
X39484366Y18748303D01*
X39517996Y18622793D01*
X39516333Y18552943D01*
X39477170Y18495081D01*
X39412942Y18467577D01*
X39398221Y18466700D01*
X34521779Y18466700D01*
X34454740Y18486385D01*
X34408985Y18539189D01*
X34399041Y18608347D01*
X34402004Y18622793D01*
X34431226Y18731855D01*
X34435635Y18748308D01*
X34455468Y18975000D01*
X34452187Y19012497D01*
X34443973Y19106383D01*
X34435635Y19201692D01*
X34410041Y19297207D01*
X34411705Y19367057D01*
X34450868Y19424919D01*
X34515096Y19452423D01*
X34529817Y19453300D01*
X39390183Y19453300D01*
X39457222Y19433615D01*
G37*
%TD.AperFunction*%
%TA.AperFunction,Conductor*%
G36*
X45344785Y19433615D02*
G01*
X45390540Y19380811D01*
X45401274Y19318493D01*
X45393532Y19230002D01*
X45393532Y19229999D01*
X45413364Y19003314D01*
X45413366Y19003303D01*
X45441745Y18897389D01*
X45440082Y18827539D01*
X45400919Y18769676D01*
X45338159Y18742357D01*
X45316251Y18739473D01*
X45303708Y18737821D01*
X45293167Y18736434D01*
X45258400Y18731857D01*
X45258395Y18731855D01*
X45118112Y18673749D01*
X45045743Y18618217D01*
X44997640Y18581307D01*
X44976913Y18554295D01*
X44971562Y18548193D01*
X44926391Y18503021D01*
X44865069Y18469534D01*
X44838708Y18466700D01*
X42141779Y18466700D01*
X42074740Y18486385D01*
X42028985Y18539189D01*
X42019041Y18608347D01*
X42022004Y18622793D01*
X42051226Y18731855D01*
X42055635Y18748308D01*
X42075468Y18975000D01*
X42072187Y19012497D01*
X42063973Y19106383D01*
X42055635Y19201692D01*
X42030041Y19297207D01*
X42031705Y19367057D01*
X42070868Y19424919D01*
X42135096Y19452423D01*
X42149817Y19453300D01*
X45277746Y19453300D01*
X45344785Y19433615D01*
G37*
%TD.AperFunction*%
%TA.AperFunction,Conductor*%
G36*
X53432246Y27463615D02*
G01*
X53478001Y27410811D01*
X53487945Y27341653D01*
X53470201Y27293328D01*
X53411943Y27200613D01*
X53352178Y27029813D01*
X53352177Y27029807D01*
X53331919Y26850004D01*
X53331919Y26849997D01*
X53352177Y26670194D01*
X53352178Y26670188D01*
X53411943Y26499388D01*
X53501504Y26356853D01*
X53508217Y26346170D01*
X53636170Y26218217D01*
X53789387Y26121944D01*
X53960185Y26062179D01*
X53960191Y26062179D01*
X53960193Y26062178D01*
X54139996Y26041919D01*
X54140000Y26041919D01*
X54140004Y26041919D01*
X54319806Y26062178D01*
X54319805Y26062178D01*
X54319815Y26062179D01*
X54490613Y26121944D01*
X54643830Y26218217D01*
X54662593Y26236981D01*
X54723917Y26270466D01*
X54750275Y26273300D01*
X60693980Y26273300D01*
X60761019Y26253615D01*
X60806360Y26201709D01*
X60808342Y26197460D01*
X60808432Y26197266D01*
X60938954Y26010859D01*
X61099858Y25849955D01*
X61099861Y25849953D01*
X61286266Y25719432D01*
X61344275Y25692382D01*
X61396714Y25646209D01*
X61415866Y25579016D01*
X61395650Y25512135D01*
X61344275Y25467618D01*
X61286267Y25440569D01*
X61286265Y25440568D01*
X61099858Y25310046D01*
X60938954Y25149142D01*
X60808432Y24962735D01*
X60806361Y24958292D01*
X60760187Y24905854D01*
X60693980Y24886700D01*
X55490275Y24886700D01*
X55423236Y24906385D01*
X55402594Y24923019D01*
X55383830Y24941783D01*
X55230612Y25038057D01*
X55059812Y25097822D01*
X55059806Y25097823D01*
X54880004Y25118081D01*
X54879996Y25118081D01*
X54700193Y25097823D01*
X54700187Y25097822D01*
X54529387Y25038057D01*
X54376169Y24941783D01*
X54248217Y24813831D01*
X54151943Y24660613D01*
X54092178Y24489813D01*
X54092177Y24489807D01*
X54071919Y24310004D01*
X54071919Y24309997D01*
X54092177Y24130194D01*
X54092178Y24130188D01*
X54151943Y23959388D01*
X54212192Y23863503D01*
X54248217Y23806170D01*
X54376170Y23678217D01*
X54529387Y23581944D01*
X54700185Y23522179D01*
X54700191Y23522179D01*
X54700193Y23522178D01*
X54879996Y23501919D01*
X54880000Y23501919D01*
X54880004Y23501919D01*
X55059806Y23522178D01*
X55059805Y23522178D01*
X55059815Y23522179D01*
X55230613Y23581944D01*
X55383830Y23678217D01*
X55402594Y23696982D01*
X55463917Y23730466D01*
X55490275Y23733300D01*
X60693980Y23733300D01*
X60761019Y23713615D01*
X60806361Y23661708D01*
X60808432Y23657266D01*
X60938954Y23470859D01*
X61099858Y23309955D01*
X61099861Y23309953D01*
X61286266Y23179432D01*
X61344275Y23152382D01*
X61396714Y23106209D01*
X61415866Y23039016D01*
X61395650Y22972135D01*
X61344275Y22927618D01*
X61286267Y22900569D01*
X61286265Y22900568D01*
X61099858Y22770046D01*
X60938954Y22609142D01*
X60808432Y22422735D01*
X60806361Y22418292D01*
X60760187Y22365854D01*
X60693980Y22346700D01*
X57200275Y22346700D01*
X57133236Y22366385D01*
X57112594Y22383019D01*
X57103830Y22391783D01*
X56950612Y22488057D01*
X56779812Y22547822D01*
X56779806Y22547823D01*
X56600004Y22568081D01*
X56599996Y22568081D01*
X56420193Y22547823D01*
X56420187Y22547822D01*
X56249387Y22488057D01*
X56096169Y22391783D01*
X55968217Y22263831D01*
X55871943Y22110613D01*
X55812178Y21939813D01*
X55812177Y21939807D01*
X55791919Y21760004D01*
X55791919Y21759997D01*
X55812177Y21580194D01*
X55812178Y21580188D01*
X55871943Y21409388D01*
X55948023Y21288308D01*
X55968217Y21256170D01*
X56096170Y21128217D01*
X56249387Y21031944D01*
X56420185Y20972179D01*
X56420191Y20972179D01*
X56420193Y20972178D01*
X56599996Y20951919D01*
X56600000Y20951919D01*
X56600004Y20951919D01*
X56779806Y20972178D01*
X56779805Y20972178D01*
X56779815Y20972179D01*
X56950613Y21031944D01*
X57103830Y21128217D01*
X57132594Y21156982D01*
X57193917Y21190466D01*
X57220275Y21193300D01*
X60693980Y21193300D01*
X60761019Y21173615D01*
X60806361Y21121708D01*
X60808432Y21117266D01*
X60938954Y20930859D01*
X61099858Y20769955D01*
X61099861Y20769953D01*
X61286266Y20639432D01*
X61338562Y20615046D01*
X61344275Y20612382D01*
X61396714Y20566209D01*
X61415866Y20499016D01*
X61395650Y20432135D01*
X61344275Y20387618D01*
X61286267Y20360569D01*
X61286265Y20360568D01*
X61099858Y20230046D01*
X60938954Y20069142D01*
X60808432Y19882735D01*
X60806361Y19878292D01*
X60760187Y19825854D01*
X60693980Y19806700D01*
X57910275Y19806700D01*
X57843236Y19826385D01*
X57822594Y19843019D01*
X57803830Y19861783D01*
X57650612Y19958057D01*
X57479812Y20017822D01*
X57479806Y20017823D01*
X57300004Y20038081D01*
X57299996Y20038081D01*
X57120193Y20017823D01*
X57120187Y20017822D01*
X56949387Y19958057D01*
X56796169Y19861783D01*
X56668217Y19733831D01*
X56571943Y19580613D01*
X56512178Y19409813D01*
X56512177Y19409807D01*
X56491919Y19230004D01*
X56491919Y19229997D01*
X56512177Y19050194D01*
X56512178Y19050188D01*
X56560653Y18911654D01*
X56564214Y18841875D01*
X56529485Y18781248D01*
X56467491Y18749021D01*
X56443611Y18746700D01*
X51689391Y18746700D01*
X51622352Y18766385D01*
X51576597Y18819189D01*
X51566653Y18888347D01*
X51572349Y18911654D01*
X51594515Y18975002D01*
X51627821Y19070185D01*
X51630330Y19092455D01*
X51648081Y19249997D01*
X51648081Y19250004D01*
X51627822Y19429807D01*
X51627821Y19429813D01*
X51627821Y19429815D01*
X51568056Y19600613D01*
X51534933Y19653328D01*
X51515933Y19720564D01*
X51536301Y19787400D01*
X51589568Y19832614D01*
X51639927Y19843300D01*
X52644186Y19843300D01*
X52710157Y19824295D01*
X52809387Y19761944D01*
X52980185Y19702179D01*
X52980191Y19702179D01*
X52980193Y19702178D01*
X53159996Y19681919D01*
X53160000Y19681919D01*
X53160004Y19681919D01*
X53339806Y19702178D01*
X53339805Y19702178D01*
X53339815Y19702179D01*
X53510613Y19761944D01*
X53663830Y19858217D01*
X53791783Y19986170D01*
X53888056Y20139387D01*
X53947821Y20310185D01*
X53955618Y20379387D01*
X53968081Y20489997D01*
X53968081Y20490004D01*
X53947822Y20669807D01*
X53947821Y20669813D01*
X53947821Y20669815D01*
X53888056Y20840613D01*
X53791783Y20993830D01*
X53663830Y21121783D01*
X53614478Y21152793D01*
X53510612Y21218057D01*
X53339812Y21277822D01*
X53339806Y21277823D01*
X53160004Y21298081D01*
X53159996Y21298081D01*
X52980193Y21277823D01*
X52980187Y21277822D01*
X52809387Y21218057D01*
X52656169Y21121783D01*
X52567406Y21033019D01*
X52506083Y20999534D01*
X52479725Y20996700D01*
X47967988Y20996700D01*
X47900949Y21016385D01*
X47855194Y21069189D01*
X47845250Y21138347D01*
X47855606Y21173105D01*
X47883923Y21233830D01*
X47925739Y21323504D01*
X47984635Y21543308D01*
X48001992Y21741698D01*
X48004468Y21769999D01*
X48004468Y21770002D01*
X47984635Y21996687D01*
X47984635Y21996692D01*
X47934732Y22182934D01*
X47925741Y22216489D01*
X47925738Y22216498D01*
X47925717Y22216544D01*
X47829568Y22422734D01*
X47699047Y22609139D01*
X47699045Y22609142D01*
X47538141Y22770046D01*
X47351734Y22900568D01*
X47351728Y22900571D01*
X47293725Y22927618D01*
X47241285Y22973790D01*
X47222133Y23040983D01*
X47242348Y23107865D01*
X47293725Y23152382D01*
X47351734Y23179432D01*
X47538139Y23309953D01*
X47699047Y23470861D01*
X47829568Y23657266D01*
X47925739Y23863504D01*
X47984635Y24083308D01*
X48004468Y24310000D01*
X48003621Y24319677D01*
X47998801Y24374770D01*
X47984635Y24536692D01*
X47925739Y24756496D01*
X47829568Y24962734D01*
X47699047Y25149139D01*
X47699045Y25149142D01*
X47538141Y25310046D01*
X47351734Y25440568D01*
X47351728Y25440571D01*
X47324038Y25453483D01*
X47293724Y25467619D01*
X47241285Y25513790D01*
X47222133Y25580983D01*
X47242348Y25647865D01*
X47293725Y25692382D01*
X47351734Y25719432D01*
X47538139Y25849953D01*
X47699047Y26010861D01*
X47829568Y26197266D01*
X47925739Y26403504D01*
X47984635Y26623308D01*
X48001992Y26821698D01*
X48004468Y26849999D01*
X48004468Y26850002D01*
X47992950Y26981653D01*
X47984635Y27076692D01*
X47925739Y27296496D01*
X47920889Y27306897D01*
X47910398Y27375975D01*
X47938919Y27439758D01*
X47997396Y27477997D01*
X48033272Y27483300D01*
X53365207Y27483300D01*
X53432246Y27463615D01*
G37*
%TD.AperFunction*%
%TA.AperFunction,Conductor*%
G36*
X12652122Y22423615D02*
G01*
X12697877Y22370811D01*
X12708303Y22305417D01*
X12691919Y22160004D01*
X12691919Y22159997D01*
X12712177Y21980194D01*
X12712178Y21980188D01*
X12771943Y21809388D01*
X12841898Y21698056D01*
X12868217Y21656170D01*
X12996170Y21528217D01*
X13149387Y21431944D01*
X13320185Y21372179D01*
X13320191Y21372179D01*
X13320193Y21372178D01*
X13499996Y21351919D01*
X13500000Y21351919D01*
X13500004Y21351919D01*
X13679806Y21372178D01*
X13679805Y21372178D01*
X13679815Y21372179D01*
X13850613Y21431944D01*
X14003830Y21528217D01*
X14017594Y21541982D01*
X14078917Y21575466D01*
X14105275Y21578300D01*
X23183325Y21578300D01*
X23250364Y21558615D01*
X23296119Y21505811D01*
X23306063Y21436653D01*
X23277038Y21373097D01*
X23271006Y21366619D01*
X23138217Y21233831D01*
X23041943Y21080613D01*
X22982178Y20909813D01*
X22982177Y20909807D01*
X22961919Y20730004D01*
X22961919Y20729997D01*
X22982177Y20550194D01*
X22982178Y20550188D01*
X23041945Y20379382D01*
X23044964Y20373114D01*
X23043169Y20372251D01*
X23059508Y20314437D01*
X23039141Y20247601D01*
X22985874Y20202387D01*
X22935514Y20191700D01*
X16895275Y20191700D01*
X16828236Y20211385D01*
X16807594Y20228019D01*
X16793830Y20241783D01*
X16640612Y20338057D01*
X16469812Y20397822D01*
X16469806Y20397823D01*
X16290004Y20418081D01*
X16289996Y20418081D01*
X16110193Y20397823D01*
X16110187Y20397822D01*
X15939387Y20338057D01*
X15786169Y20241783D01*
X15658217Y20113831D01*
X15561943Y19960613D01*
X15502178Y19789813D01*
X15502177Y19789807D01*
X15481919Y19610004D01*
X15481919Y19609997D01*
X15502177Y19430194D01*
X15502178Y19430188D01*
X15502178Y19430186D01*
X15502179Y19430185D01*
X15502309Y19429813D01*
X15564244Y19252813D01*
X15561561Y19251875D01*
X15570832Y19195549D01*
X15543105Y19131417D01*
X15485107Y19092455D01*
X15447761Y19086698D01*
X13527423Y19086698D01*
X13460384Y19106383D01*
X13414629Y19159187D01*
X13404685Y19228345D01*
X13415703Y19264501D01*
X13418057Y19269390D01*
X13477821Y19440185D01*
X13496954Y19609997D01*
X13498081Y19619997D01*
X13498081Y19620004D01*
X13477822Y19799807D01*
X13477821Y19799813D01*
X13477821Y19799815D01*
X13418056Y19970613D01*
X13321783Y20123830D01*
X13193830Y20251783D01*
X13100884Y20310185D01*
X13040612Y20348057D01*
X12869812Y20407822D01*
X12869806Y20407823D01*
X12690004Y20428081D01*
X12689996Y20428081D01*
X12510193Y20407823D01*
X12510187Y20407822D01*
X12339387Y20348057D01*
X12186169Y20251783D01*
X12162406Y20228019D01*
X12101083Y20194534D01*
X12074725Y20191700D01*
X11576020Y20191700D01*
X11508981Y20211385D01*
X11463639Y20263292D01*
X11461568Y20267734D01*
X11331047Y20454139D01*
X11331045Y20454142D01*
X11170141Y20615046D01*
X11005972Y20729997D01*
X10983734Y20745568D01*
X10925722Y20772620D01*
X10873284Y20818792D01*
X10854133Y20885986D01*
X10874349Y20952867D01*
X10925721Y20997381D01*
X10983734Y21024432D01*
X11170139Y21154953D01*
X11331047Y21315861D01*
X11461568Y21502266D01*
X11557739Y21708504D01*
X11616635Y21928308D01*
X11636468Y22155000D01*
X11635028Y22171454D01*
X11627112Y22261944D01*
X11623039Y22308493D01*
X11636806Y22376992D01*
X11685421Y22427176D01*
X11746567Y22443300D01*
X12585083Y22443300D01*
X12652122Y22423615D01*
G37*
%TD.AperFunction*%
%TA.AperFunction,Conductor*%
G36*
X20935519Y23203615D02*
G01*
X20981274Y23150811D01*
X20991700Y23113184D01*
X21002177Y23020193D01*
X21002178Y23020188D01*
X21045404Y22896654D01*
X21048965Y22826875D01*
X21014236Y22766248D01*
X20952242Y22734021D01*
X20928362Y22731700D01*
X15004354Y22731700D01*
X14937315Y22751385D01*
X14891560Y22804189D01*
X14881134Y22869583D01*
X14898081Y23019997D01*
X14898081Y23020004D01*
X14890711Y23085417D01*
X14902766Y23154239D01*
X14950115Y23205618D01*
X15013931Y23223300D01*
X20868480Y23223300D01*
X20935519Y23203615D01*
G37*
%TD.AperFunction*%
%TA.AperFunction,Conductor*%
G36*
X18484777Y25022515D02*
G01*
X18530532Y24969711D01*
X18540476Y24900553D01*
X18534779Y24877244D01*
X18532178Y24869814D01*
X18532177Y24869807D01*
X18511919Y24690004D01*
X18511919Y24689997D01*
X18531683Y24514583D01*
X18519628Y24445761D01*
X18472279Y24394382D01*
X18408463Y24376700D01*
X11743942Y24376700D01*
X11676903Y24396385D01*
X11631148Y24449189D01*
X11620414Y24511507D01*
X11636468Y24695000D01*
X11633423Y24729800D01*
X11617886Y24907393D01*
X11631653Y24975893D01*
X11680268Y25026076D01*
X11741414Y25042200D01*
X18417738Y25042200D01*
X18484777Y25022515D01*
G37*
%TD.AperFunction*%
%TA.AperFunction,Conductor*%
G36*
X39470619Y27103615D02*
G01*
X39516374Y27050811D01*
X39526318Y26981653D01*
X39523355Y26967207D01*
X39484366Y26821698D01*
X39484364Y26821687D01*
X39464532Y26595002D01*
X39464532Y26594999D01*
X39484364Y26368314D01*
X39484366Y26368303D01*
X39509958Y26272793D01*
X39508295Y26202943D01*
X39469132Y26145081D01*
X39404904Y26117577D01*
X39390183Y26116700D01*
X34529817Y26116700D01*
X34462778Y26136385D01*
X34417023Y26189189D01*
X34407079Y26258347D01*
X34410042Y26272793D01*
X34417885Y26302064D01*
X34435635Y26368308D01*
X34455468Y26595000D01*
X34455186Y26598218D01*
X34441055Y26759743D01*
X34435635Y26821692D01*
X34396645Y26967207D01*
X34398308Y27037057D01*
X34437471Y27094919D01*
X34501699Y27122423D01*
X34516420Y27123300D01*
X39403580Y27123300D01*
X39470619Y27103615D01*
G37*
%TD.AperFunction*%
%TA.AperFunction,Conductor*%
G36*
X45349160Y27103615D02*
G01*
X45394915Y27050811D01*
X45405648Y26988494D01*
X45398728Y26909387D01*
X45393532Y26850001D01*
X45393532Y26849999D01*
X45413364Y26623314D01*
X45413366Y26623304D01*
X45419566Y26600163D01*
X45417901Y26530313D01*
X45378736Y26472452D01*
X45336258Y26451544D01*
X45336757Y26450120D01*
X45330187Y26447822D01*
X45330185Y26447821D01*
X45285483Y26432179D01*
X45159387Y26388057D01*
X45006169Y26291783D01*
X44878216Y26163830D01*
X44877862Y26163385D01*
X44877560Y26163174D01*
X44873293Y26158906D01*
X44872545Y26159654D01*
X44820672Y26123246D01*
X44780917Y26116700D01*
X42149817Y26116700D01*
X42082778Y26136385D01*
X42037023Y26189189D01*
X42027079Y26258347D01*
X42030042Y26272793D01*
X42037885Y26302064D01*
X42055635Y26368308D01*
X42075468Y26595000D01*
X42075186Y26598218D01*
X42061055Y26759743D01*
X42055635Y26821692D01*
X42016645Y26967207D01*
X42018308Y27037057D01*
X42057471Y27094919D01*
X42121699Y27122423D01*
X42136420Y27123300D01*
X45282121Y27123300D01*
X45349160Y27103615D01*
G37*
%TD.AperFunction*%
%TA.AperFunction,Conductor*%
G36*
X35243200Y29567215D02*
G01*
X35263842Y29550581D01*
X36326042Y28488381D01*
X36359527Y28427058D01*
X36354543Y28357366D01*
X36312671Y28301433D01*
X36247207Y28277016D01*
X36238361Y28276700D01*
X34374830Y28276700D01*
X34307791Y28296385D01*
X34262036Y28349189D01*
X34252092Y28418347D01*
X34273254Y28471822D01*
X34280568Y28482266D01*
X34376739Y28688504D01*
X34435635Y28908308D01*
X34455468Y29135000D01*
X34435635Y29361692D01*
X34423336Y29407593D01*
X34417116Y29430807D01*
X34418779Y29500657D01*
X34457942Y29558519D01*
X34522170Y29586023D01*
X34536891Y29586900D01*
X35176161Y29586900D01*
X35243200Y29567215D01*
G37*
%TD.AperFunction*%
%TA.AperFunction,Conductor*%
G36*
X40326463Y29365315D02*
G01*
X40372218Y29312511D01*
X40382162Y29243353D01*
X40381897Y29241603D01*
X40365014Y29135004D01*
X40365014Y29134997D01*
X40381897Y29028397D01*
X40372942Y28959104D01*
X40327946Y28905652D01*
X40261194Y28885013D01*
X40259424Y28885000D01*
X39491128Y28885000D01*
X39515834Y28792793D01*
X39514171Y28722943D01*
X39475008Y28665081D01*
X39410780Y28637577D01*
X39396059Y28636700D01*
X37860239Y28636700D01*
X37793200Y28656385D01*
X37772558Y28673019D01*
X37463958Y28981619D01*
X37430473Y29042942D01*
X37435457Y29112634D01*
X37477329Y29168567D01*
X37542793Y29192984D01*
X37551639Y29193300D01*
X39018125Y29193300D01*
X39026223Y29192770D01*
X39046994Y29190035D01*
X39059988Y29188324D01*
X39059989Y29188324D01*
X39059990Y29188324D01*
X39110172Y29194931D01*
X39210538Y29208144D01*
X39350827Y29266254D01*
X39441051Y29335485D01*
X39441051Y29335486D01*
X39463989Y29353086D01*
X39463998Y29353093D01*
X39472197Y29359383D01*
X39537368Y29384571D01*
X39547673Y29385000D01*
X40259424Y29385000D01*
X40326463Y29365315D01*
G37*
%TD.AperFunction*%
%TA.AperFunction,Conductor*%
G36*
X52360153Y29823615D02*
G01*
X52405908Y29770811D01*
X52415852Y29701653D01*
X52410156Y29678349D01*
X52376416Y29581924D01*
X52372178Y29569812D01*
X52372177Y29569807D01*
X52351919Y29390004D01*
X52351919Y29389997D01*
X52372177Y29210194D01*
X52372178Y29210188D01*
X52431943Y29039388D01*
X52528217Y28886170D01*
X52566006Y28848381D01*
X52599491Y28787058D01*
X52594507Y28717366D01*
X52552635Y28661433D01*
X52487171Y28637016D01*
X52478325Y28636700D01*
X47977314Y28636700D01*
X47910275Y28656385D01*
X47864520Y28709189D01*
X47854576Y28778347D01*
X47864931Y28813102D01*
X47925739Y28943504D01*
X47984635Y29163308D01*
X48004468Y29390000D01*
X48001138Y29428057D01*
X47995910Y29487822D01*
X47984635Y29616692D01*
X47965740Y29687210D01*
X47967403Y29757056D01*
X48006565Y29814918D01*
X48070793Y29842423D01*
X48085515Y29843300D01*
X52293114Y29843300D01*
X52360153Y29823615D01*
G37*
%TD.AperFunction*%
%TA.AperFunction,Conductor*%
G36*
X56746764Y32393615D02*
G01*
X56767406Y32376981D01*
X56786170Y32358217D01*
X56939387Y32261944D01*
X57110185Y32202179D01*
X57110191Y32202179D01*
X57110193Y32202178D01*
X57289996Y32181919D01*
X57290000Y32181919D01*
X57290004Y32181919D01*
X57469806Y32202178D01*
X57469805Y32202178D01*
X57469815Y32202179D01*
X57640613Y32261944D01*
X57782530Y32351118D01*
X57849767Y32370118D01*
X57916602Y32349751D01*
X57961817Y32296483D01*
X57971055Y32227227D01*
X57965545Y32205170D01*
X57932178Y32109813D01*
X57932177Y32109807D01*
X57911919Y31930004D01*
X57911919Y31929997D01*
X57932177Y31750194D01*
X57932178Y31750188D01*
X57991943Y31579388D01*
X58052192Y31483503D01*
X58088217Y31426170D01*
X58216170Y31298217D01*
X58369387Y31201944D01*
X58540185Y31142179D01*
X58540191Y31142179D01*
X58540193Y31142178D01*
X58719996Y31121919D01*
X58720000Y31121919D01*
X58720004Y31121919D01*
X58899806Y31142178D01*
X58899805Y31142178D01*
X58899815Y31142179D01*
X59070613Y31201944D01*
X59223830Y31298217D01*
X59242594Y31316982D01*
X59303917Y31350466D01*
X59330275Y31353300D01*
X60693980Y31353300D01*
X60761019Y31333615D01*
X60806361Y31281708D01*
X60808432Y31277266D01*
X60938954Y31090859D01*
X61099858Y30929955D01*
X61099861Y30929953D01*
X61286266Y30799432D01*
X61338562Y30775046D01*
X61344275Y30772382D01*
X61396714Y30726209D01*
X61415866Y30659016D01*
X61395650Y30592135D01*
X61344275Y30547618D01*
X61286267Y30520569D01*
X61286265Y30520568D01*
X61099858Y30390046D01*
X60938954Y30229142D01*
X60808432Y30042735D01*
X60806361Y30038292D01*
X60760187Y29985854D01*
X60693980Y29966700D01*
X57470387Y29966700D01*
X57403348Y29986385D01*
X57357593Y30039189D01*
X57347649Y30108347D01*
X57353345Y30131654D01*
X57387823Y30230185D01*
X57388778Y30238663D01*
X57408083Y30409997D01*
X57408083Y30410004D01*
X57387824Y30589807D01*
X57387823Y30589813D01*
X57387823Y30589815D01*
X57328058Y30760613D01*
X57231785Y30913830D01*
X57103832Y31041783D01*
X57029863Y31088261D01*
X56950614Y31138057D01*
X56779814Y31197822D01*
X56779808Y31197823D01*
X56600006Y31218081D01*
X56599998Y31218081D01*
X56420195Y31197823D01*
X56420189Y31197822D01*
X56249389Y31138057D01*
X56096171Y31041783D01*
X56087408Y31033019D01*
X56026085Y30999534D01*
X55999727Y30996700D01*
X47871316Y30996700D01*
X47804277Y31016385D01*
X47758522Y31069189D01*
X47748578Y31138347D01*
X47769739Y31191821D01*
X47829568Y31277266D01*
X47925739Y31483504D01*
X47984635Y31703308D01*
X48003282Y31916446D01*
X48004468Y31929999D01*
X48004468Y31930002D01*
X47998801Y31994770D01*
X47984635Y32156692D01*
X47957702Y32257208D01*
X47959365Y32327056D01*
X47998527Y32384919D01*
X48062756Y32412423D01*
X48077477Y32413300D01*
X56679725Y32413300D01*
X56746764Y32393615D01*
G37*
%TD.AperFunction*%
%TA.AperFunction,Conductor*%
G36*
X58187167Y45483615D02*
G01*
X58232922Y45430811D01*
X58242866Y45361653D01*
X58213841Y45298097D01*
X58186101Y45274307D01*
X58166172Y45261785D01*
X58166169Y45261783D01*
X58038217Y45133831D01*
X57941943Y44980613D01*
X57882178Y44809813D01*
X57882177Y44809807D01*
X57861919Y44630004D01*
X57861919Y44629997D01*
X57882177Y44450194D01*
X57882178Y44450188D01*
X57941943Y44279388D01*
X58002192Y44183503D01*
X58038217Y44126170D01*
X58166170Y43998217D01*
X58319387Y43901944D01*
X58490185Y43842179D01*
X58490191Y43842179D01*
X58490193Y43842178D01*
X58669996Y43821919D01*
X58670000Y43821919D01*
X58670004Y43821919D01*
X58849806Y43842178D01*
X58849805Y43842178D01*
X58849815Y43842179D01*
X59020613Y43901944D01*
X59173830Y43998217D01*
X59192594Y44016981D01*
X59253917Y44050466D01*
X59280275Y44053300D01*
X60693980Y44053300D01*
X60761019Y44033615D01*
X60806361Y43981708D01*
X60808432Y43977266D01*
X60938954Y43790859D01*
X61099858Y43629955D01*
X61133361Y43606496D01*
X61286266Y43499432D01*
X61344275Y43472382D01*
X61396714Y43426209D01*
X61415866Y43359016D01*
X61395650Y43292135D01*
X61344275Y43247618D01*
X61286267Y43220569D01*
X61286265Y43220568D01*
X61099858Y43090046D01*
X60938954Y42929142D01*
X60808432Y42742735D01*
X60806361Y42738292D01*
X60760187Y42685854D01*
X60693980Y42666700D01*
X58300275Y42666700D01*
X58233236Y42686385D01*
X58212594Y42703019D01*
X58183830Y42731783D01*
X58030612Y42828057D01*
X57859812Y42887822D01*
X57859806Y42887823D01*
X57680004Y42908081D01*
X57679996Y42908081D01*
X57500193Y42887823D01*
X57500187Y42887822D01*
X57329387Y42828057D01*
X57176169Y42731783D01*
X57048217Y42603831D01*
X56951943Y42450613D01*
X56892178Y42279813D01*
X56892177Y42279807D01*
X56871919Y42100004D01*
X56871919Y42099997D01*
X56892177Y41920194D01*
X56892178Y41920188D01*
X56951943Y41749388D01*
X57038851Y41611076D01*
X57048217Y41596170D01*
X57176170Y41468217D01*
X57329387Y41371944D01*
X57500185Y41312179D01*
X57500191Y41312179D01*
X57500193Y41312178D01*
X57679996Y41291919D01*
X57680000Y41291919D01*
X57680004Y41291919D01*
X57859806Y41312178D01*
X57859805Y41312178D01*
X57859815Y41312179D01*
X58030613Y41371944D01*
X58183830Y41468217D01*
X58192593Y41476982D01*
X58253917Y41510466D01*
X58280275Y41513300D01*
X60693980Y41513300D01*
X60761019Y41493615D01*
X60806361Y41441708D01*
X60808432Y41437266D01*
X60938954Y41250859D01*
X61099858Y41089955D01*
X61099861Y41089953D01*
X61286266Y40959432D01*
X61338562Y40935046D01*
X61344275Y40932382D01*
X61396714Y40886209D01*
X61415866Y40819016D01*
X61395650Y40752135D01*
X61344275Y40707618D01*
X61286267Y40680569D01*
X61286265Y40680568D01*
X61099858Y40550046D01*
X60938954Y40389142D01*
X60808432Y40202735D01*
X60806361Y40198292D01*
X60760187Y40145854D01*
X60693980Y40126700D01*
X57520275Y40126700D01*
X57453236Y40146385D01*
X57432594Y40163019D01*
X57413830Y40181783D01*
X57260612Y40278057D01*
X57089812Y40337822D01*
X57089806Y40337823D01*
X56910004Y40358081D01*
X56909996Y40358081D01*
X56730193Y40337823D01*
X56730187Y40337822D01*
X56559387Y40278057D01*
X56406169Y40181783D01*
X56278217Y40053831D01*
X56181943Y39900613D01*
X56122178Y39729813D01*
X56122177Y39729807D01*
X56101919Y39550004D01*
X56101919Y39549997D01*
X56122177Y39370194D01*
X56122178Y39370188D01*
X56181943Y39199388D01*
X56242192Y39103503D01*
X56278217Y39046170D01*
X56406170Y38918217D01*
X56559387Y38821944D01*
X56730185Y38762179D01*
X56730191Y38762179D01*
X56730193Y38762178D01*
X56909996Y38741919D01*
X56910000Y38741919D01*
X56910004Y38741919D01*
X57089806Y38762178D01*
X57089805Y38762178D01*
X57089815Y38762179D01*
X57260613Y38821944D01*
X57413830Y38918217D01*
X57432593Y38936981D01*
X57493917Y38970466D01*
X57520275Y38973300D01*
X60693980Y38973300D01*
X60761019Y38953615D01*
X60806361Y38901708D01*
X60808432Y38897266D01*
X60938954Y38710859D01*
X61099858Y38549955D01*
X61099861Y38549953D01*
X61286266Y38419432D01*
X61338562Y38395046D01*
X61344275Y38392382D01*
X61396714Y38346209D01*
X61415866Y38279016D01*
X61395650Y38212135D01*
X61344275Y38167618D01*
X61286267Y38140569D01*
X61286265Y38140568D01*
X61099858Y38010046D01*
X60938954Y37849142D01*
X60808432Y37662735D01*
X60808431Y37662733D01*
X60712261Y37456498D01*
X60712258Y37456489D01*
X60653366Y37236698D01*
X60653364Y37236687D01*
X60633532Y37010002D01*
X60633532Y37009999D01*
X60653364Y36783314D01*
X60653366Y36783303D01*
X60712258Y36563512D01*
X60712261Y36563503D01*
X60808431Y36357268D01*
X60808432Y36357266D01*
X60938954Y36170859D01*
X61099858Y36009955D01*
X61134682Y35985571D01*
X61286266Y35879432D01*
X61344865Y35852107D01*
X61397305Y35805935D01*
X61416457Y35738742D01*
X61396242Y35671861D01*
X61344867Y35627343D01*
X61286511Y35600131D01*
X61213526Y35549027D01*
X61755133Y35007420D01*
X61788618Y34946097D01*
X61783634Y34876405D01*
X61741762Y34820472D01*
X61723748Y34809255D01*
X61700956Y34797642D01*
X61700949Y34797637D01*
X61611363Y34708051D01*
X61611358Y34708044D01*
X61599745Y34685252D01*
X61551770Y34634456D01*
X61483949Y34617662D01*
X61417814Y34640200D01*
X61401580Y34653867D01*
X60859973Y35195474D01*
X60808868Y35122487D01*
X60712734Y34916327D01*
X60712730Y34916318D01*
X60653860Y34696611D01*
X60653858Y34696600D01*
X60634034Y34470003D01*
X60634034Y34469998D01*
X60653858Y34243401D01*
X60653860Y34243390D01*
X60712730Y34023683D01*
X60712734Y34023674D01*
X60808865Y33817519D01*
X60808866Y33817517D01*
X60859973Y33744529D01*
X60859973Y33744528D01*
X61401580Y34286135D01*
X61462903Y34319620D01*
X61532594Y34314636D01*
X61588528Y34272765D01*
X61599742Y34254754D01*
X61605527Y34243401D01*
X61611358Y34231956D01*
X61611363Y34231950D01*
X61700949Y34142364D01*
X61700951Y34142363D01*
X61700955Y34142359D01*
X61723747Y34130746D01*
X61774542Y34082772D01*
X61791337Y34014951D01*
X61768799Y33948816D01*
X61755132Y33932581D01*
X61213526Y33390975D01*
X61213526Y33390974D01*
X61286512Y33339869D01*
X61286520Y33339865D01*
X61344865Y33312658D01*
X61397305Y33266486D01*
X61416457Y33199293D01*
X61396242Y33132411D01*
X61344867Y33087895D01*
X61296982Y33065565D01*
X61286264Y33060567D01*
X61099858Y32930046D01*
X60938954Y32769142D01*
X60808432Y32582735D01*
X60806361Y32578292D01*
X60760187Y32525854D01*
X60693980Y32506700D01*
X59330275Y32506700D01*
X59263236Y32526385D01*
X59242594Y32543019D01*
X59223830Y32561783D01*
X59070612Y32658057D01*
X58899812Y32717822D01*
X58899806Y32717823D01*
X58720004Y32738081D01*
X58719996Y32738081D01*
X58540193Y32717823D01*
X58540187Y32717822D01*
X58369387Y32658057D01*
X58227468Y32568883D01*
X58160231Y32549883D01*
X58093396Y32570251D01*
X58048182Y32623519D01*
X58038945Y32692775D01*
X58044455Y32714832D01*
X58045329Y32717329D01*
X58077821Y32810185D01*
X58086286Y32885318D01*
X58098081Y32989997D01*
X58098081Y32990004D01*
X58077822Y33169807D01*
X58077821Y33169813D01*
X58077821Y33169815D01*
X58018056Y33340613D01*
X57921783Y33493830D01*
X57793830Y33621783D01*
X57746999Y33651209D01*
X57640612Y33718057D01*
X57469812Y33777822D01*
X57469806Y33777823D01*
X57290004Y33798081D01*
X57289996Y33798081D01*
X57110193Y33777823D01*
X57110187Y33777822D01*
X56939387Y33718057D01*
X56786169Y33621783D01*
X56767406Y33603019D01*
X56706083Y33569534D01*
X56679725Y33566700D01*
X47892322Y33566700D01*
X47825283Y33586385D01*
X47779528Y33639189D01*
X47769584Y33708347D01*
X47790746Y33761822D01*
X47796062Y33769414D01*
X47829568Y33817266D01*
X47925739Y34023504D01*
X47984635Y34243308D01*
X48004468Y34470000D01*
X47984635Y34696692D01*
X47966115Y34765807D01*
X47967779Y34835657D01*
X48006942Y34893519D01*
X48071170Y34921023D01*
X48085891Y34921900D01*
X58821125Y34921900D01*
X58888164Y34902215D01*
X58908806Y34885582D01*
X59036170Y34758217D01*
X59189387Y34661944D01*
X59360185Y34602179D01*
X59360191Y34602179D01*
X59360193Y34602178D01*
X59539996Y34581919D01*
X59540000Y34581919D01*
X59540004Y34581919D01*
X59719806Y34602178D01*
X59719805Y34602178D01*
X59719815Y34602179D01*
X59890613Y34661944D01*
X60043830Y34758217D01*
X60171783Y34886170D01*
X60268056Y35039387D01*
X60327821Y35210185D01*
X60338021Y35300710D01*
X60348081Y35389997D01*
X60348081Y35390004D01*
X60327822Y35569807D01*
X60327821Y35569813D01*
X60327821Y35569815D01*
X60268056Y35740613D01*
X60171783Y35893830D01*
X60043830Y36021783D01*
X59890612Y36118057D01*
X59719812Y36177822D01*
X59719806Y36177823D01*
X59540004Y36198081D01*
X59539996Y36198081D01*
X59360193Y36177823D01*
X59360187Y36177822D01*
X59189387Y36118057D01*
X59151589Y36094306D01*
X59085617Y36075300D01*
X51719221Y36075300D01*
X51706166Y36079134D01*
X51702173Y36077160D01*
X51680779Y36075300D01*
X47870335Y36075300D01*
X47803296Y36094985D01*
X47757541Y36147789D01*
X47747597Y36216947D01*
X47768760Y36270423D01*
X47775818Y36280503D01*
X47829568Y36357266D01*
X47925739Y36563504D01*
X47984635Y36783308D01*
X48004468Y37010000D01*
X47994959Y37118677D01*
X48008727Y37187177D01*
X48057342Y37237360D01*
X48125370Y37253293D01*
X48191214Y37229918D01*
X48206169Y37217165D01*
X48681514Y36741820D01*
X48686867Y36735717D01*
X48696754Y36722833D01*
X48707604Y36708693D01*
X48733704Y36688666D01*
X48737849Y36685485D01*
X48828071Y36616254D01*
X48828072Y36616254D01*
X48828073Y36616253D01*
X48910964Y36581919D01*
X48968362Y36558144D01*
X49081114Y36543300D01*
X49118910Y36538324D01*
X49118911Y36538324D01*
X49118912Y36538324D01*
X49131905Y36540035D01*
X49152676Y36542770D01*
X49160775Y36543300D01*
X51099725Y36543300D01*
X51166764Y36523615D01*
X51187406Y36506981D01*
X51196170Y36498217D01*
X51349387Y36401944D01*
X51520185Y36342179D01*
X51520191Y36342179D01*
X51520193Y36342178D01*
X51694662Y36322520D01*
X51698122Y36321066D01*
X51705338Y36322520D01*
X51879806Y36342178D01*
X51879805Y36342178D01*
X51879815Y36342179D01*
X52050613Y36401944D01*
X52203830Y36498217D01*
X52331783Y36626170D01*
X52428056Y36779387D01*
X52487821Y36950185D01*
X52494560Y37009999D01*
X52508081Y37129997D01*
X52508081Y37130004D01*
X52487822Y37309807D01*
X52487821Y37309813D01*
X52487821Y37309815D01*
X52428056Y37480613D01*
X52331783Y37633830D01*
X52203830Y37761783D01*
X52180192Y37776636D01*
X52050612Y37858057D01*
X51879812Y37917822D01*
X51879806Y37917823D01*
X51700004Y37938081D01*
X51699996Y37938081D01*
X51520193Y37917823D01*
X51520187Y37917822D01*
X51349387Y37858057D01*
X51196169Y37761783D01*
X51167406Y37733019D01*
X51106083Y37699534D01*
X51079725Y37696700D01*
X49409150Y37696700D01*
X49342111Y37716385D01*
X49321469Y37733019D01*
X49167217Y37887271D01*
X49133732Y37948594D01*
X49138716Y38018286D01*
X49149904Y38040924D01*
X49198369Y38118056D01*
X49218056Y38149387D01*
X49277821Y38320185D01*
X49289003Y38419432D01*
X49298081Y38499997D01*
X49298081Y38500004D01*
X49277822Y38679807D01*
X49277821Y38679813D01*
X49277821Y38679815D01*
X49218056Y38850613D01*
X49121783Y39003830D01*
X48993830Y39131783D01*
X48961370Y39152179D01*
X48840612Y39228057D01*
X48669812Y39287822D01*
X48669806Y39287823D01*
X48490004Y39308081D01*
X48489996Y39308081D01*
X48310193Y39287823D01*
X48310187Y39287822D01*
X48152366Y39232598D01*
X48082587Y39229037D01*
X48021960Y39263766D01*
X47989733Y39325760D01*
X47987884Y39360448D01*
X47989263Y39376203D01*
X48004468Y39550000D01*
X47984635Y39776692D01*
X47925739Y39996496D01*
X47829568Y40202734D01*
X47699047Y40389139D01*
X47699045Y40389142D01*
X47538141Y40550046D01*
X47351734Y40680568D01*
X47351728Y40680571D01*
X47293725Y40707618D01*
X47241285Y40753790D01*
X47222133Y40820983D01*
X47242348Y40887865D01*
X47293725Y40932382D01*
X47299438Y40935046D01*
X47351734Y40959432D01*
X47538139Y41089953D01*
X47699047Y41250861D01*
X47829568Y41437266D01*
X47925739Y41643504D01*
X47984635Y41863308D01*
X48004468Y42090000D01*
X48003593Y42099997D01*
X47991380Y42239597D01*
X47984635Y42316692D01*
X47930680Y42518056D01*
X47925741Y42536489D01*
X47925738Y42536498D01*
X47913808Y42562082D01*
X47829568Y42742734D01*
X47699047Y42929139D01*
X47699045Y42929142D01*
X47538141Y43090046D01*
X47351734Y43220568D01*
X47351728Y43220571D01*
X47293725Y43247618D01*
X47241285Y43293790D01*
X47222133Y43360983D01*
X47242348Y43427865D01*
X47293725Y43472382D01*
X47351734Y43499432D01*
X47538139Y43629953D01*
X47699047Y43790861D01*
X47829568Y43977266D01*
X47925739Y44183504D01*
X47984635Y44403308D01*
X48002574Y44608347D01*
X48004468Y44629999D01*
X48004468Y44630002D01*
X47997804Y44706170D01*
X47984635Y44856692D01*
X47966115Y44925807D01*
X47967779Y44995657D01*
X48006942Y45053519D01*
X48071170Y45081023D01*
X48085891Y45081900D01*
X55096101Y45081900D01*
X55163140Y45062215D01*
X55208895Y45009411D01*
X55213137Y44998869D01*
X55238703Y44925807D01*
X55261943Y44859388D01*
X55293097Y44809807D01*
X55358217Y44706170D01*
X55486170Y44578217D01*
X55639387Y44481944D01*
X55810185Y44422179D01*
X55810191Y44422179D01*
X55810193Y44422178D01*
X55989996Y44401919D01*
X55990000Y44401919D01*
X55990004Y44401919D01*
X56169806Y44422178D01*
X56169805Y44422178D01*
X56169815Y44422179D01*
X56340613Y44481944D01*
X56493830Y44578217D01*
X56621783Y44706170D01*
X56718056Y44859387D01*
X56777821Y45030185D01*
X56789499Y45133831D01*
X56798081Y45209997D01*
X56798081Y45210005D01*
X56780571Y45365417D01*
X56792626Y45434239D01*
X56839975Y45485618D01*
X56903791Y45503300D01*
X58120128Y45503300D01*
X58187167Y45483615D01*
G37*
%TD.AperFunction*%
%TA.AperFunction,Conductor*%
G36*
X29611002Y34689808D02*
G01*
X29649871Y34663500D01*
X29826590Y34486781D01*
X29860075Y34425458D01*
X29855091Y34355766D01*
X29813219Y34299833D01*
X29747755Y34275416D01*
X29738909Y34275100D01*
X29514840Y34275100D01*
X29447801Y34294785D01*
X29402046Y34347589D01*
X29392102Y34416747D01*
X29395065Y34431192D01*
X29442415Y34607911D01*
X29478779Y34667572D01*
X29541626Y34698102D01*
X29611002Y34689808D01*
G37*
%TD.AperFunction*%
%TA.AperFunction,Conductor*%
G36*
X39568051Y39343615D02*
G01*
X39613806Y39290811D01*
X39623750Y39221653D01*
X39613394Y39186895D01*
X39543261Y39036498D01*
X39543258Y39036489D01*
X39484366Y38816698D01*
X39484364Y38816687D01*
X39464532Y38590002D01*
X39464532Y38589999D01*
X39484364Y38363314D01*
X39484366Y38363303D01*
X39543258Y38143512D01*
X39543261Y38143503D01*
X39639431Y37937268D01*
X39639432Y37937266D01*
X39769955Y37750857D01*
X39770338Y37750401D01*
X39770443Y37750161D01*
X39773058Y37746426D01*
X39772307Y37745901D01*
X39798348Y37686392D01*
X39787305Y37617400D01*
X39740716Y37565331D01*
X39675345Y37546700D01*
X34243998Y37546700D01*
X34176959Y37566385D01*
X34131204Y37619189D01*
X34121260Y37688347D01*
X34147177Y37746315D01*
X34146556Y37746750D01*
X34148815Y37749977D01*
X34149005Y37750401D01*
X34149654Y37751176D01*
X34280134Y37937518D01*
X34376265Y38143674D01*
X34376269Y38143683D01*
X34428872Y38340000D01*
X33660576Y38340000D01*
X33593537Y38359685D01*
X33547782Y38412489D01*
X33537838Y38481647D01*
X33538103Y38483397D01*
X33554986Y38589997D01*
X33554986Y38590004D01*
X33538103Y38696603D01*
X33547058Y38765896D01*
X33592054Y38819348D01*
X33658806Y38839987D01*
X33660576Y38840000D01*
X34428872Y38840000D01*
X34428872Y38840001D01*
X34376269Y39036318D01*
X34376265Y39036327D01*
X34324975Y39146320D01*
X34314483Y39215397D01*
X34343003Y39279182D01*
X34401479Y39317421D01*
X34471347Y39317976D01*
X34503329Y39303718D01*
X34649383Y39211945D01*
X34711469Y39190221D01*
X34820185Y39152179D01*
X34820191Y39152179D01*
X34820193Y39152178D01*
X34999996Y39131919D01*
X35000000Y39131919D01*
X35000004Y39131919D01*
X35179806Y39152178D01*
X35179805Y39152178D01*
X35179815Y39152179D01*
X35350613Y39211944D01*
X35503830Y39308217D01*
X35522593Y39326982D01*
X35583917Y39360466D01*
X35610275Y39363300D01*
X39501012Y39363300D01*
X39568051Y39343615D01*
G37*
%TD.AperFunction*%
%TA.AperFunction,Conductor*%
G36*
X45521019Y44033615D02*
G01*
X45566361Y43981708D01*
X45568432Y43977266D01*
X45698954Y43790859D01*
X45859858Y43629955D01*
X45893361Y43606496D01*
X46046266Y43499432D01*
X46104275Y43472382D01*
X46156714Y43426209D01*
X46175866Y43359016D01*
X46155650Y43292135D01*
X46104275Y43247618D01*
X46046267Y43220569D01*
X46046265Y43220568D01*
X45859858Y43090046D01*
X45698954Y42929142D01*
X45568432Y42742735D01*
X45568431Y42742733D01*
X45472261Y42536498D01*
X45472258Y42536489D01*
X45413366Y42316698D01*
X45413364Y42316687D01*
X45393532Y42090002D01*
X45393532Y42089999D01*
X45401274Y42001508D01*
X45387507Y41933008D01*
X45338892Y41882825D01*
X45277746Y41866701D01*
X44949149Y41866701D01*
X44882110Y41886386D01*
X44861468Y41903020D01*
X44757217Y42007271D01*
X44723732Y42068594D01*
X44728716Y42138286D01*
X44739904Y42160924D01*
X44789334Y42239592D01*
X44808056Y42269387D01*
X44867821Y42440185D01*
X44878672Y42536489D01*
X44888081Y42619997D01*
X44888081Y42620004D01*
X44867822Y42799807D01*
X44867821Y42799813D01*
X44867821Y42799815D01*
X44808056Y42970613D01*
X44711783Y43123830D01*
X44583830Y43251783D01*
X44531228Y43284835D01*
X44430612Y43348057D01*
X44259812Y43407822D01*
X44259806Y43407823D01*
X44080004Y43428081D01*
X44079996Y43428081D01*
X43900193Y43407823D01*
X43900187Y43407822D01*
X43729387Y43348057D01*
X43576169Y43251783D01*
X43557406Y43233019D01*
X43496083Y43199534D01*
X43469725Y43196700D01*
X42150639Y43196700D01*
X42083600Y43216385D01*
X42037845Y43269189D01*
X42027901Y43338347D01*
X42030864Y43352794D01*
X42048872Y43420000D01*
X41280576Y43420000D01*
X41213537Y43439685D01*
X41167782Y43492489D01*
X41157838Y43561647D01*
X41158103Y43563397D01*
X41174986Y43669997D01*
X41174986Y43670004D01*
X41158103Y43776603D01*
X41167058Y43845896D01*
X41212054Y43899348D01*
X41278806Y43919987D01*
X41280576Y43920000D01*
X41885353Y43920000D01*
X41951326Y43900993D01*
X42029387Y43851944D01*
X42200185Y43792179D01*
X42200191Y43792179D01*
X42200193Y43792178D01*
X42379996Y43771919D01*
X42380000Y43771919D01*
X42380004Y43771919D01*
X42554373Y43791566D01*
X42559815Y43792179D01*
X42730613Y43851944D01*
X42883830Y43948217D01*
X42952594Y44016981D01*
X43013917Y44050466D01*
X43040275Y44053300D01*
X45453980Y44053300D01*
X45521019Y44033615D01*
G37*
%TD.AperFunction*%
%TA.AperFunction,Conductor*%
G36*
X39566271Y44418615D02*
G01*
X39612026Y44365811D01*
X39621970Y44296653D01*
X39611614Y44261895D01*
X39543734Y44116327D01*
X39543730Y44116318D01*
X39491127Y43920001D01*
X39491128Y43920000D01*
X40259424Y43920000D01*
X40326463Y43900315D01*
X40372218Y43847511D01*
X40382162Y43778353D01*
X40381897Y43776603D01*
X40365014Y43670004D01*
X40365014Y43669997D01*
X40381897Y43563397D01*
X40372942Y43494104D01*
X40327946Y43440652D01*
X40261194Y43420013D01*
X40259424Y43420000D01*
X39491128Y43420000D01*
X39509136Y43352794D01*
X39507473Y43282944D01*
X39468311Y43225081D01*
X39404082Y43197577D01*
X39389361Y43196700D01*
X34530639Y43196700D01*
X34463600Y43216385D01*
X34417845Y43269189D01*
X34407901Y43338347D01*
X34410864Y43352794D01*
X34428872Y43420000D01*
X33660576Y43420000D01*
X33593537Y43439685D01*
X33547782Y43492489D01*
X33537838Y43561647D01*
X33538103Y43563397D01*
X33554986Y43669997D01*
X33554986Y43670004D01*
X33538103Y43776603D01*
X33547058Y43845896D01*
X33592054Y43899348D01*
X33658806Y43919987D01*
X33660576Y43920000D01*
X34428872Y43920000D01*
X34428872Y43920001D01*
X34376269Y44116318D01*
X34376265Y44116327D01*
X34308386Y44261895D01*
X34297894Y44330972D01*
X34326414Y44394757D01*
X34384890Y44432996D01*
X34420768Y44438300D01*
X39499232Y44438300D01*
X39566271Y44418615D01*
G37*
%TD.AperFunction*%
%TA.AperFunction,Conductor*%
G36*
X40963039Y44418615D02*
G01*
X41008794Y44365811D01*
X41020000Y44314300D01*
X41020000Y44180576D01*
X41000315Y44113537D01*
X40947511Y44067782D01*
X40878353Y44057838D01*
X40876602Y44058103D01*
X40801486Y44070000D01*
X40801481Y44070000D01*
X40738519Y44070000D01*
X40738514Y44070000D01*
X40663398Y44058103D01*
X40594104Y44067058D01*
X40540652Y44112054D01*
X40520013Y44178806D01*
X40520000Y44180576D01*
X40520000Y44314300D01*
X40539685Y44381339D01*
X40592489Y44427094D01*
X40644000Y44438300D01*
X40896000Y44438300D01*
X40963039Y44418615D01*
G37*
%TD.AperFunction*%
%TA.AperFunction,Conductor*%
G36*
X23410364Y46958615D02*
G01*
X23456119Y46905811D01*
X23466063Y46836653D01*
X23437038Y46773097D01*
X23431006Y46766619D01*
X23318217Y46653831D01*
X23221943Y46500613D01*
X23162178Y46329813D01*
X23162177Y46329807D01*
X23141919Y46150004D01*
X23141919Y46149997D01*
X23162177Y45970194D01*
X23162178Y45970188D01*
X23221943Y45799388D01*
X23306895Y45664189D01*
X23318217Y45646170D01*
X23446170Y45518217D01*
X23599387Y45421944D01*
X23770185Y45362179D01*
X23770191Y45362179D01*
X23770193Y45362178D01*
X23949996Y45341919D01*
X23950000Y45341919D01*
X23950004Y45341919D01*
X24129802Y45362177D01*
X24129806Y45362179D01*
X24129815Y45362179D01*
X24129822Y45362182D01*
X24133319Y45362980D01*
X24135659Y45362837D01*
X24136735Y45362958D01*
X24136756Y45362770D01*
X24203059Y45358715D01*
X24259421Y45317423D01*
X24284512Y45252214D01*
X24284454Y45231285D01*
X24265532Y45015003D01*
X24265532Y45014999D01*
X24285364Y44788314D01*
X24285366Y44788303D01*
X24329714Y44622793D01*
X24328051Y44552943D01*
X24288888Y44495081D01*
X24224660Y44467577D01*
X24209939Y44466700D01*
X16378939Y44466700D01*
X16311900Y44486385D01*
X16266145Y44539189D01*
X16256201Y44608347D01*
X16266263Y44642471D01*
X16271805Y44654532D01*
X16282346Y44699953D01*
X16317802Y44852746D01*
X16322957Y45056158D01*
X16322956Y45056159D01*
X16322957Y45056163D01*
X16295383Y45210005D01*
X16287059Y45256449D01*
X16287057Y45256455D01*
X16276560Y45282733D01*
X16232393Y45393303D01*
X16225806Y45462861D01*
X16257870Y45524939D01*
X16318405Y45559827D01*
X16347547Y45563300D01*
X20338136Y45563300D01*
X20346234Y45562770D01*
X20367005Y45560035D01*
X20379999Y45558324D01*
X20380000Y45558324D01*
X20380001Y45558324D01*
X20430182Y45564931D01*
X20530549Y45578144D01*
X20670838Y45636254D01*
X20761062Y45705485D01*
X20761062Y45705486D01*
X20784000Y45723086D01*
X20784005Y45723090D01*
X20791305Y45728691D01*
X20794878Y45733347D01*
X20812043Y45755719D01*
X20817385Y45761810D01*
X21767767Y46712192D01*
X21829088Y46745675D01*
X21841564Y46747729D01*
X21969809Y46762178D01*
X21969811Y46762179D01*
X21969815Y46762179D01*
X21969818Y46762181D01*
X21969822Y46762181D01*
X22140610Y46821943D01*
X22140609Y46821943D01*
X22140613Y46821944D01*
X22293830Y46918217D01*
X22317594Y46941981D01*
X22378917Y46975466D01*
X22405275Y46978300D01*
X23343325Y46978300D01*
X23410364Y46958615D01*
G37*
%TD.AperFunction*%
%TA.AperFunction,Conductor*%
G36*
X39461759Y46683615D02*
G01*
X39507514Y46630811D01*
X39517458Y46561653D01*
X39514495Y46547206D01*
X39491128Y46460001D01*
X39491128Y46460000D01*
X40259424Y46460000D01*
X40326463Y46440315D01*
X40372218Y46387511D01*
X40382162Y46318353D01*
X40381897Y46316603D01*
X40365014Y46210004D01*
X40365014Y46209997D01*
X40381897Y46103397D01*
X40372942Y46034104D01*
X40327946Y45980652D01*
X40261194Y45960013D01*
X40259424Y45960000D01*
X39491128Y45960000D01*
X39543730Y45763683D01*
X39545583Y45758594D01*
X39543258Y45757748D01*
X39552147Y45698936D01*
X39523580Y45635174D01*
X39465075Y45596977D01*
X39429285Y45591700D01*
X34491266Y45591700D01*
X34424227Y45611385D01*
X34378472Y45664189D01*
X34368528Y45733347D01*
X34375900Y45758055D01*
X34374889Y45758423D01*
X34376734Y45763496D01*
X34376739Y45763504D01*
X34435635Y45983308D01*
X34455468Y46210000D01*
X34435635Y46436692D01*
X34408586Y46537641D01*
X34406023Y46547207D01*
X34407686Y46617057D01*
X34446849Y46674919D01*
X34511077Y46702423D01*
X34525798Y46703300D01*
X39394720Y46703300D01*
X39461759Y46683615D01*
G37*
%TD.AperFunction*%
%TA.AperFunction,Conductor*%
G36*
X60627562Y50173615D02*
G01*
X60673317Y50120811D01*
X60683261Y50051653D01*
X60680299Y50037215D01*
X60675687Y50020000D01*
X60653365Y49936695D01*
X60653364Y49936687D01*
X60633532Y49710002D01*
X60633532Y49709999D01*
X60653364Y49483314D01*
X60653366Y49483303D01*
X60712258Y49263512D01*
X60712261Y49263503D01*
X60808431Y49057268D01*
X60808432Y49057266D01*
X60938954Y48870859D01*
X61099858Y48709955D01*
X61133361Y48686496D01*
X61286266Y48579432D01*
X61344275Y48552382D01*
X61396714Y48506209D01*
X61415866Y48439016D01*
X61395650Y48372135D01*
X61344275Y48327619D01*
X61327272Y48319690D01*
X61286267Y48300569D01*
X61286265Y48300568D01*
X61099858Y48170046D01*
X60938954Y48009142D01*
X60808432Y47822735D01*
X60808431Y47822733D01*
X60712261Y47616498D01*
X60712258Y47616489D01*
X60653366Y47396698D01*
X60653364Y47396687D01*
X60633532Y47170002D01*
X60633532Y47169999D01*
X60653364Y46943314D01*
X60653366Y46943303D01*
X60686264Y46820524D01*
X60684601Y46750674D01*
X60654182Y46700761D01*
X60646453Y46693030D01*
X60585134Y46659537D01*
X60558760Y46656700D01*
X48069439Y46656700D01*
X48002400Y46676385D01*
X47956645Y46729189D01*
X47946701Y46798347D01*
X47949664Y46812793D01*
X47958046Y46844078D01*
X47984635Y46943308D01*
X48004468Y47170000D01*
X47984635Y47396692D01*
X47925739Y47616496D01*
X47829568Y47822734D01*
X47699047Y48009139D01*
X47699045Y48009142D01*
X47538141Y48170046D01*
X47351734Y48300568D01*
X47351728Y48300571D01*
X47324038Y48313483D01*
X47293724Y48327619D01*
X47241285Y48373790D01*
X47222133Y48440983D01*
X47242348Y48507865D01*
X47293725Y48552382D01*
X47351734Y48579432D01*
X47538139Y48709953D01*
X47699047Y48870861D01*
X47829568Y49057266D01*
X47925739Y49263504D01*
X47984635Y49483308D01*
X48004468Y49710000D01*
X47984635Y49936692D01*
X47957702Y50037208D01*
X47959365Y50107056D01*
X47998527Y50164919D01*
X48062756Y50192423D01*
X48077477Y50193300D01*
X60560523Y50193300D01*
X60627562Y50173615D01*
G37*
%TD.AperFunction*%
%TA.AperFunction,Conductor*%
G36*
X23887504Y50893615D02*
G01*
X23933259Y50840811D01*
X23943203Y50771653D01*
X23914178Y50708097D01*
X23855400Y50670323D01*
X23836651Y50666362D01*
X23801355Y50661715D01*
X23764450Y50656856D01*
X23723361Y50639837D01*
X23624166Y50598750D01*
X23624161Y50598747D01*
X23543926Y50537180D01*
X23503691Y50506306D01*
X23482960Y50479289D01*
X23477608Y50473187D01*
X22419571Y49415148D01*
X22358248Y49381663D01*
X22331890Y49378829D01*
X11626628Y49378829D01*
X11559589Y49398514D01*
X11513834Y49451318D01*
X11503890Y49520476D01*
X11514246Y49555234D01*
X11524799Y49577865D01*
X11557739Y49648504D01*
X11616635Y49868308D01*
X11632540Y50050109D01*
X11657992Y50115176D01*
X11714583Y50156155D01*
X11756068Y50163300D01*
X21079725Y50163300D01*
X21146764Y50143615D01*
X21167406Y50126981D01*
X21186170Y50108217D01*
X21339387Y50011944D01*
X21510185Y49952179D01*
X21510191Y49952179D01*
X21510193Y49952178D01*
X21689996Y49931919D01*
X21690000Y49931919D01*
X21690004Y49931919D01*
X21869806Y49952178D01*
X21869805Y49952178D01*
X21869815Y49952179D01*
X22040613Y50011944D01*
X22193830Y50108217D01*
X22321783Y50236170D01*
X22418056Y50389387D01*
X22477821Y50560185D01*
X22486522Y50637410D01*
X22498081Y50739997D01*
X22498081Y50740004D01*
X22494091Y50775417D01*
X22506146Y50844239D01*
X22553495Y50895618D01*
X22617311Y50913300D01*
X23820465Y50913300D01*
X23887504Y50893615D01*
G37*
%TD.AperFunction*%
%TA.AperFunction,Conductor*%
G36*
X59540256Y58239815D02*
G01*
X59560898Y58223181D01*
X61267420Y56516660D01*
X61385593Y56420302D01*
X61565951Y56326091D01*
X61658394Y56299640D01*
X61717432Y56262273D01*
X61746896Y56198919D01*
X61737431Y56129694D01*
X61692042Y56076575D01*
X61656377Y56060649D01*
X61492509Y56016741D01*
X61492502Y56016739D01*
X61286267Y55920569D01*
X61286265Y55920568D01*
X61099858Y55790046D01*
X60938954Y55629142D01*
X60808432Y55442735D01*
X60808431Y55442733D01*
X60712261Y55236498D01*
X60712258Y55236489D01*
X60653366Y55016698D01*
X60653364Y55016687D01*
X60633532Y54790002D01*
X60633532Y54789999D01*
X60653364Y54563314D01*
X60653366Y54563303D01*
X60712258Y54343512D01*
X60712261Y54343503D01*
X60808431Y54137268D01*
X60808432Y54137266D01*
X60938954Y53950859D01*
X61099858Y53789955D01*
X61214857Y53709433D01*
X61286266Y53659432D01*
X61344278Y53632381D01*
X61396713Y53586212D01*
X61415866Y53519018D01*
X61395651Y53452137D01*
X61344277Y53407620D01*
X61286268Y53380570D01*
X61286265Y53380568D01*
X61099858Y53250046D01*
X60938954Y53089142D01*
X60808432Y52902735D01*
X60808431Y52902733D01*
X60712261Y52696498D01*
X60712258Y52696489D01*
X60653366Y52476698D01*
X60653364Y52476687D01*
X60633532Y52250002D01*
X60633532Y52249999D01*
X60653364Y52023314D01*
X60653366Y52023303D01*
X60686264Y51900524D01*
X60684601Y51830674D01*
X60654182Y51780761D01*
X60646453Y51773030D01*
X60585134Y51739537D01*
X60558760Y51736700D01*
X48069439Y51736700D01*
X48002400Y51756385D01*
X47956645Y51809189D01*
X47946701Y51878347D01*
X47949664Y51892793D01*
X47966913Y51957170D01*
X47984635Y52023308D01*
X48004468Y52250000D01*
X47984635Y52476692D01*
X47925739Y52696496D01*
X47829568Y52902734D01*
X47811751Y52928179D01*
X47789425Y52994385D01*
X47806437Y53062152D01*
X47857386Y53109964D01*
X47913328Y53123300D01*
X53529729Y53123300D01*
X53596768Y53103615D01*
X53617410Y53086981D01*
X53636174Y53068217D01*
X53789391Y52971944D01*
X53960189Y52912179D01*
X53960195Y52912179D01*
X53960197Y52912178D01*
X54140000Y52891919D01*
X54140004Y52891919D01*
X54140008Y52891919D01*
X54319810Y52912178D01*
X54319809Y52912178D01*
X54319819Y52912179D01*
X54490617Y52971944D01*
X54643834Y53068217D01*
X54771787Y53196170D01*
X54868060Y53349387D01*
X54927825Y53520185D01*
X54928856Y53529338D01*
X54948085Y53699997D01*
X54948085Y53700004D01*
X54927826Y53879807D01*
X54927825Y53879813D01*
X54927825Y53879815D01*
X54868060Y54050613D01*
X54771787Y54203830D01*
X54643834Y54331783D01*
X54625180Y54343504D01*
X54490616Y54428057D01*
X54319816Y54487822D01*
X54319810Y54487823D01*
X54140008Y54508081D01*
X54140000Y54508081D01*
X53960197Y54487823D01*
X53960191Y54487822D01*
X53789391Y54428057D01*
X53636173Y54331783D01*
X53617410Y54313019D01*
X53556087Y54279534D01*
X53529729Y54276700D01*
X48123500Y54276700D01*
X48056461Y54296385D01*
X48010706Y54349189D01*
X47999500Y54400700D01*
X47999499Y55637871D01*
X47999498Y55637877D01*
X47999497Y55637884D01*
X47993091Y55697483D01*
X47978405Y55736857D01*
X47942797Y55832329D01*
X47942793Y55832336D01*
X47856547Y55947545D01*
X47856544Y55947548D01*
X47741335Y56033794D01*
X47741328Y56033798D01*
X47606482Y56084092D01*
X47606483Y56084092D01*
X47546883Y56090499D01*
X47546881Y56090500D01*
X47546873Y56090500D01*
X47546864Y56090500D01*
X45851129Y56090500D01*
X45851123Y56090499D01*
X45791516Y56084092D01*
X45656671Y56033798D01*
X45656664Y56033794D01*
X45541455Y55947548D01*
X45541452Y55947545D01*
X45455206Y55832336D01*
X45455202Y55832329D01*
X45404908Y55697483D01*
X45402894Y55678746D01*
X45398501Y55637877D01*
X45398322Y55634548D01*
X45396611Y55634640D01*
X45378815Y55574032D01*
X45326011Y55528277D01*
X45256853Y55518333D01*
X45233546Y55524029D01*
X45079812Y55577822D01*
X45079806Y55577823D01*
X44900004Y55598081D01*
X44899996Y55598081D01*
X44720193Y55577823D01*
X44720187Y55577822D01*
X44549387Y55518057D01*
X44440924Y55449904D01*
X44373688Y55430904D01*
X44306852Y55451272D01*
X44287271Y55467217D01*
X44261753Y55492735D01*
X44201294Y55553194D01*
X44195950Y55559289D01*
X44184637Y55574032D01*
X44175218Y55586307D01*
X44175216Y55586309D01*
X44175215Y55586310D01*
X44137291Y55615409D01*
X44054746Y55678748D01*
X43914460Y55736856D01*
X43914458Y55736857D01*
X43763912Y55756676D01*
X43763910Y55756676D01*
X43750916Y55754966D01*
X43730145Y55752231D01*
X43722047Y55751700D01*
X42110715Y55751700D01*
X42043676Y55771385D01*
X41997921Y55824189D01*
X41987977Y55893347D01*
X41995384Y55918242D01*
X41994417Y55918594D01*
X41996269Y55923683D01*
X42055139Y56143390D01*
X42055141Y56143401D01*
X42074966Y56369998D01*
X42074966Y56370003D01*
X42060225Y56538493D01*
X42073992Y56606993D01*
X42122607Y56657176D01*
X42183753Y56673300D01*
X57069725Y56673300D01*
X57136764Y56653615D01*
X57157406Y56636981D01*
X57176170Y56618217D01*
X57329387Y56521944D01*
X57500185Y56462179D01*
X57500191Y56462179D01*
X57500193Y56462178D01*
X57679996Y56441919D01*
X57680000Y56441919D01*
X57680004Y56441919D01*
X57859806Y56462178D01*
X57859805Y56462178D01*
X57859815Y56462179D01*
X58030613Y56521944D01*
X58183830Y56618217D01*
X58311783Y56746170D01*
X58408056Y56899387D01*
X58467821Y57070185D01*
X58471201Y57100185D01*
X58488081Y57249997D01*
X58488081Y57250004D01*
X58467822Y57429807D01*
X58467821Y57429813D01*
X58467821Y57429815D01*
X58408056Y57600613D01*
X58311783Y57753830D01*
X58183830Y57881783D01*
X58183829Y57881784D01*
X58030612Y57978057D01*
X57957948Y58003483D01*
X57915148Y58018459D01*
X57858374Y58059180D01*
X57832626Y58124132D01*
X57846082Y58192694D01*
X57894469Y58243097D01*
X57956104Y58259500D01*
X59473217Y58259500D01*
X59540256Y58239815D01*
G37*
%TD.AperFunction*%
%TA.AperFunction,Conductor*%
G36*
X63789859Y53769815D02*
G01*
X63793931Y53767083D01*
X63876266Y53709432D01*
X63891975Y53702107D01*
X63944414Y53655936D01*
X63963567Y53588743D01*
X63943352Y53521862D01*
X63891979Y53477344D01*
X63876512Y53470132D01*
X63803526Y53419027D01*
X64345133Y52877420D01*
X64378618Y52816097D01*
X64373634Y52746405D01*
X64331762Y52690472D01*
X64313748Y52679255D01*
X64290956Y52667642D01*
X64290949Y52667637D01*
X64201363Y52578051D01*
X64201358Y52578044D01*
X64189745Y52555252D01*
X64141770Y52504456D01*
X64073949Y52487662D01*
X64007814Y52510200D01*
X63991580Y52523867D01*
X63449973Y53065474D01*
X63398867Y52992487D01*
X63325673Y52835522D01*
X63279500Y52783083D01*
X63212307Y52763931D01*
X63145425Y52784147D01*
X63100909Y52835523D01*
X63069568Y52902734D01*
X62939047Y53089139D01*
X62939045Y53089142D01*
X62778141Y53250046D01*
X62591734Y53380568D01*
X62591728Y53380571D01*
X62533725Y53407618D01*
X62481285Y53453790D01*
X62462133Y53520983D01*
X62482348Y53587865D01*
X62533725Y53632382D01*
X62591734Y53659432D01*
X62745465Y53767076D01*
X62811671Y53789402D01*
X62816588Y53789500D01*
X63722820Y53789500D01*
X63789859Y53769815D01*
G37*
%TD.AperFunction*%
%TA.AperFunction,Conductor*%
G36*
X12876397Y64307407D02*
G01*
X12883836Y64300551D01*
X12916170Y64268217D01*
X13069387Y64171944D01*
X13240185Y64112179D01*
X13240191Y64112179D01*
X13240193Y64112178D01*
X13419996Y64091919D01*
X13420000Y64091919D01*
X13420004Y64091919D01*
X13599806Y64112178D01*
X13599805Y64112178D01*
X13599815Y64112179D01*
X13770613Y64171944D01*
X13923830Y64268217D01*
X13942594Y64286981D01*
X14003917Y64320466D01*
X14030275Y64323300D01*
X23277873Y64323300D01*
X23344912Y64303615D01*
X23390667Y64250811D01*
X23400611Y64181653D01*
X23371586Y64118097D01*
X23343845Y64094307D01*
X23334156Y64088218D01*
X23276169Y64051783D01*
X23148217Y63923831D01*
X23051945Y63770616D01*
X23051944Y63770615D01*
X23020191Y63679871D01*
X22979469Y63623095D01*
X22917033Y63597607D01*
X22830193Y63587823D01*
X22830187Y63587822D01*
X22659387Y63528057D01*
X22506169Y63431783D01*
X22378217Y63303831D01*
X22281943Y63150613D01*
X22222178Y62979813D01*
X22222177Y62979807D01*
X22201919Y62800004D01*
X22201919Y62799997D01*
X22222177Y62620194D01*
X22222178Y62620188D01*
X22281946Y62449380D01*
X22281986Y62449297D01*
X22281995Y62449239D01*
X22284244Y62442813D01*
X22283118Y62442420D01*
X22293336Y62380355D01*
X22265610Y62316222D01*
X22207614Y62277259D01*
X22170264Y62271500D01*
X21036662Y62271500D01*
X21028562Y62272031D01*
X20994800Y62276476D01*
X20994796Y62276476D01*
X20963087Y62272302D01*
X20963071Y62272299D01*
X20844251Y62256656D01*
X20844250Y62256656D01*
X20738984Y62213053D01*
X20703966Y62198549D01*
X20703965Y62198548D01*
X20703962Y62198547D01*
X20703962Y62198546D01*
X20683483Y62182832D01*
X20644431Y62152866D01*
X20583493Y62106108D01*
X20562760Y62079089D01*
X20557408Y62072987D01*
X20482233Y61997812D01*
X20420910Y61964327D01*
X20408436Y61962273D01*
X20280190Y61947823D01*
X20109387Y61888057D01*
X19956169Y61791783D01*
X19828217Y61663831D01*
X19731943Y61510613D01*
X19672178Y61339813D01*
X19672177Y61339807D01*
X19651919Y61160004D01*
X19651919Y61159997D01*
X19672177Y60980194D01*
X19672178Y60980188D01*
X19731943Y60809388D01*
X19828217Y60656170D01*
X19956169Y60528218D01*
X19956172Y60528216D01*
X19976101Y60515693D01*
X20022392Y60463358D01*
X20033039Y60394304D01*
X20004663Y60330456D01*
X19946273Y60292085D01*
X19910128Y60286700D01*
X13300275Y60286700D01*
X13233236Y60306385D01*
X13212594Y60323019D01*
X13193830Y60341783D01*
X13040612Y60438057D01*
X12869812Y60497822D01*
X12869806Y60497823D01*
X12690004Y60518081D01*
X12689996Y60518081D01*
X12510193Y60497823D01*
X12510187Y60497822D01*
X12339387Y60438057D01*
X12186169Y60341783D01*
X12058217Y60213831D01*
X11961943Y60060613D01*
X11902178Y59889813D01*
X11902177Y59889807D01*
X11881919Y59710004D01*
X11881919Y59709997D01*
X11894923Y59594581D01*
X11882868Y59525760D01*
X11835519Y59474380D01*
X11771703Y59456698D01*
X11588329Y59456698D01*
X11521290Y59476383D01*
X11475535Y59529187D01*
X11465591Y59598345D01*
X11475945Y59633100D01*
X11557739Y59808504D01*
X11616635Y60028308D01*
X11636468Y60255000D01*
X11633223Y60292085D01*
X11622832Y60410858D01*
X11616635Y60481692D01*
X11557739Y60701496D01*
X11461568Y60907734D01*
X11331047Y61094139D01*
X11331045Y61094142D01*
X11170143Y61255044D01*
X11145536Y61272274D01*
X11101912Y61326851D01*
X11094719Y61396350D01*
X11126241Y61458704D01*
X11186471Y61494118D01*
X11203404Y61497139D01*
X11238483Y61500909D01*
X11373331Y61551204D01*
X11488546Y61637454D01*
X11574796Y61752669D01*
X11625091Y61887517D01*
X11631500Y61947127D01*
X11631499Y63642872D01*
X11625091Y63702483D01*
X11625091Y63702484D01*
X11586656Y63805534D01*
X11581672Y63875226D01*
X11615157Y63936549D01*
X11676481Y63970033D01*
X11743789Y63965910D01*
X11840185Y63932179D01*
X11840191Y63932179D01*
X11840192Y63932178D01*
X12019996Y63911919D01*
X12020000Y63911919D01*
X12020004Y63911919D01*
X12199806Y63932178D01*
X12199805Y63932178D01*
X12199815Y63932179D01*
X12370613Y63991944D01*
X12523830Y64088217D01*
X12651783Y64216170D01*
X12691164Y64278845D01*
X12743494Y64325132D01*
X12812548Y64335782D01*
X12876397Y64307407D01*
G37*
%TD.AperFunction*%
%TA.AperFunction,Conductor*%
G36*
X65002208Y68699343D02*
G01*
X65233020Y68682835D01*
X65250529Y68680317D01*
X65470144Y68632542D01*
X65487103Y68627563D01*
X65697694Y68549017D01*
X65713777Y68541673D01*
X65911036Y68433960D01*
X65925919Y68424395D01*
X66105836Y68289711D01*
X66119207Y68278125D01*
X66278124Y68119208D01*
X66289710Y68105837D01*
X66424394Y67925920D01*
X66433959Y67911037D01*
X66541669Y67713783D01*
X66549019Y67697689D01*
X66627559Y67487113D01*
X66632543Y67470138D01*
X66680316Y67250530D01*
X66682834Y67233018D01*
X66695774Y67052094D01*
X66698781Y67010047D01*
X66699342Y67002211D01*
X66699500Y66997787D01*
X66699500Y2002214D01*
X66699342Y1997790D01*
X66682834Y1766983D01*
X66680316Y1749471D01*
X66632543Y1529863D01*
X66627559Y1512888D01*
X66549019Y1302312D01*
X66541669Y1286218D01*
X66433959Y1088964D01*
X66424394Y1074081D01*
X66289710Y894164D01*
X66278124Y880793D01*
X66119207Y721876D01*
X66105836Y710290D01*
X65925919Y575606D01*
X65911036Y566041D01*
X65713782Y458331D01*
X65697688Y450981D01*
X65487112Y372441D01*
X65470137Y367457D01*
X65250529Y319684D01*
X65233017Y317166D01*
X65019172Y301872D01*
X65002208Y300658D01*
X64997786Y300500D01*
X38548713Y300500D01*
X38481674Y320185D01*
X38435919Y372989D01*
X38425975Y442147D01*
X38431671Y465454D01*
X38457821Y540185D01*
X38478081Y720000D01*
X38470011Y791616D01*
X38482066Y860438D01*
X38529415Y911818D01*
X38593232Y929500D01*
X41670753Y929500D01*
X41822449Y944926D01*
X42016589Y1005838D01*
X42016590Y1005839D01*
X42016598Y1005841D01*
X42194512Y1104591D01*
X42348905Y1237134D01*
X42473458Y1398042D01*
X42563070Y1580729D01*
X42614073Y1777715D01*
X42624379Y1980936D01*
X42593566Y2182071D01*
X42548683Y2303259D01*
X42522898Y2372882D01*
X42522897Y2372883D01*
X42522896Y2372887D01*
X42424997Y2529953D01*
X42415264Y2545568D01*
X42415260Y2545573D01*
X42275071Y2693051D01*
X42275070Y2693052D01*
X42275069Y2693053D01*
X42225539Y2727527D01*
X42181762Y2781980D01*
X42174374Y2851458D01*
X42205721Y2913901D01*
X42265851Y2949484D01*
X42296378Y2953300D01*
X45420501Y2953300D01*
X45487540Y2933615D01*
X45533295Y2880811D01*
X45544501Y2829300D01*
X45544501Y2682124D01*
X45550908Y2622517D01*
X45601202Y2487672D01*
X45601206Y2487665D01*
X45687452Y2372456D01*
X45687455Y2372453D01*
X45802664Y2286207D01*
X45802671Y2286203D01*
X45937517Y2235909D01*
X45937516Y2235909D01*
X45944444Y2235165D01*
X45997127Y2229500D01*
X47692872Y2229501D01*
X47752483Y2235909D01*
X47887331Y2286204D01*
X48002546Y2372454D01*
X48088796Y2487669D01*
X48139091Y2622517D01*
X48142862Y2657599D01*
X48169599Y2722145D01*
X48226990Y2761994D01*
X48296816Y2764489D01*
X48356905Y2728837D01*
X48367725Y2715465D01*
X48383417Y2693054D01*
X48384956Y2690857D01*
X48545858Y2529955D01*
X48545861Y2529953D01*
X48732266Y2399432D01*
X48938504Y2303261D01*
X49158308Y2244365D01*
X49320230Y2230199D01*
X49384998Y2224532D01*
X49385000Y2224532D01*
X49385002Y2224532D01*
X49441807Y2229502D01*
X49611692Y2244365D01*
X49831496Y2303261D01*
X50037734Y2399432D01*
X50224139Y2529953D01*
X50385047Y2690861D01*
X50515568Y2877266D01*
X50542618Y2935276D01*
X50588790Y2987715D01*
X50655983Y3006867D01*
X50722865Y2986652D01*
X50767381Y2935276D01*
X50774290Y2920460D01*
X50794429Y2877272D01*
X50794432Y2877266D01*
X50924954Y2690859D01*
X51085858Y2529955D01*
X51085861Y2529953D01*
X51272266Y2399432D01*
X51478504Y2303261D01*
X51698308Y2244365D01*
X51860230Y2230199D01*
X51924998Y2224532D01*
X51925000Y2224532D01*
X51925002Y2224532D01*
X51981807Y2229502D01*
X52151692Y2244365D01*
X52371496Y2303261D01*
X52577734Y2399432D01*
X52764139Y2529953D01*
X52925047Y2690861D01*
X53055568Y2877266D01*
X53082618Y2935276D01*
X53128790Y2987715D01*
X53195983Y3006867D01*
X53262865Y2986652D01*
X53307381Y2935276D01*
X53314290Y2920460D01*
X53334429Y2877272D01*
X53334432Y2877266D01*
X53464954Y2690859D01*
X53625858Y2529955D01*
X53625861Y2529953D01*
X53812266Y2399432D01*
X54018504Y2303261D01*
X54238308Y2244365D01*
X54400230Y2230199D01*
X54464998Y2224532D01*
X54465000Y2224532D01*
X54465002Y2224532D01*
X54521807Y2229502D01*
X54691692Y2244365D01*
X54911496Y2303261D01*
X55117734Y2399432D01*
X55304139Y2529953D01*
X55465047Y2690861D01*
X55595568Y2877266D01*
X55622618Y2935276D01*
X55668790Y2987715D01*
X55735983Y3006867D01*
X55802865Y2986652D01*
X55847381Y2935276D01*
X55854290Y2920460D01*
X55874429Y2877272D01*
X55874432Y2877266D01*
X56004954Y2690859D01*
X56165858Y2529955D01*
X56165861Y2529953D01*
X56352266Y2399432D01*
X56558504Y2303261D01*
X56778308Y2244365D01*
X56940230Y2230199D01*
X57004998Y2224532D01*
X57005000Y2224532D01*
X57005002Y2224532D01*
X57061807Y2229502D01*
X57231692Y2244365D01*
X57451496Y2303261D01*
X57657734Y2399432D01*
X57844139Y2529953D01*
X58005047Y2690861D01*
X58135568Y2877266D01*
X58162618Y2935276D01*
X58208790Y2987715D01*
X58275983Y3006867D01*
X58342865Y2986652D01*
X58387381Y2935276D01*
X58394290Y2920460D01*
X58414429Y2877272D01*
X58414432Y2877266D01*
X58544954Y2690859D01*
X58705858Y2529955D01*
X58705861Y2529953D01*
X58892266Y2399432D01*
X59098504Y2303261D01*
X59318308Y2244365D01*
X59480230Y2230199D01*
X59544998Y2224532D01*
X59545000Y2224532D01*
X59545002Y2224532D01*
X59601807Y2229502D01*
X59771692Y2244365D01*
X59991496Y2303261D01*
X60197734Y2399432D01*
X60384139Y2529953D01*
X60545047Y2690861D01*
X60675568Y2877266D01*
X60702895Y2935871D01*
X60749064Y2988305D01*
X60816257Y3007458D01*
X60883139Y2987243D01*
X60927657Y2935867D01*
X60954865Y2877518D01*
X61085342Y2691180D01*
X61246179Y2530343D01*
X61432517Y2399866D01*
X61638673Y2303735D01*
X61638682Y2303731D01*
X61834999Y2251128D01*
X61835000Y2251129D01*
X61835000Y3019425D01*
X61854685Y3086464D01*
X61907489Y3132219D01*
X61976647Y3142163D01*
X61978331Y3141909D01*
X62010699Y3136782D01*
X62053515Y3130000D01*
X62053519Y3130000D01*
X62116485Y3130000D01*
X62159300Y3136782D01*
X62191602Y3141898D01*
X62260894Y3132944D01*
X62314347Y3087948D01*
X62334987Y3021197D01*
X62335000Y3019425D01*
X62335000Y2251128D01*
X62531317Y2303731D01*
X62531326Y2303735D01*
X62737482Y2399866D01*
X62923820Y2530343D01*
X63084657Y2691180D01*
X63215134Y2877518D01*
X63311265Y3083674D01*
X63311269Y3083683D01*
X63363872Y3280000D01*
X62595576Y3280000D01*
X62528537Y3299685D01*
X62482782Y3352489D01*
X62472838Y3421647D01*
X62473103Y3423397D01*
X62489986Y3529997D01*
X62489986Y3530004D01*
X62473103Y3636603D01*
X62482058Y3705896D01*
X62527054Y3759348D01*
X62593806Y3779987D01*
X62595576Y3780000D01*
X63363872Y3780000D01*
X63363872Y3780001D01*
X63311269Y3976318D01*
X63311265Y3976327D01*
X63215134Y4182483D01*
X63084657Y4368821D01*
X62923820Y4529658D01*
X62737482Y4660135D01*
X62531328Y4756266D01*
X62335000Y4808873D01*
X62335000Y4040576D01*
X62315315Y3973537D01*
X62262511Y3927782D01*
X62193353Y3917838D01*
X62191602Y3918103D01*
X62116486Y3930000D01*
X62116481Y3930000D01*
X62053519Y3930000D01*
X62053514Y3930000D01*
X61978398Y3918103D01*
X61909104Y3927058D01*
X61855652Y3972054D01*
X61835013Y4038806D01*
X61835000Y4040576D01*
X61835000Y4808873D01*
X61638671Y4756266D01*
X61432517Y4660135D01*
X61246179Y4529658D01*
X61085342Y4368821D01*
X60954867Y4182485D01*
X60927657Y4124133D01*
X60881484Y4071694D01*
X60814290Y4052543D01*
X60747409Y4072759D01*
X60702893Y4124135D01*
X60685337Y4161783D01*
X60675568Y4182734D01*
X60545047Y4369139D01*
X60545045Y4369142D01*
X60384141Y4530046D01*
X60197734Y4660568D01*
X60197732Y4660569D01*
X59991497Y4756739D01*
X59991488Y4756742D01*
X59771697Y4815634D01*
X59771693Y4815635D01*
X59771692Y4815635D01*
X59771691Y4815636D01*
X59771686Y4815636D01*
X59545002Y4835468D01*
X59544998Y4835468D01*
X59318313Y4815636D01*
X59318302Y4815634D01*
X59098511Y4756742D01*
X59098502Y4756739D01*
X58892267Y4660569D01*
X58892265Y4660568D01*
X58705858Y4530046D01*
X58544954Y4369142D01*
X58414432Y4182735D01*
X58414431Y4182733D01*
X58387382Y4124725D01*
X58341209Y4072286D01*
X58274016Y4053134D01*
X58207135Y4073350D01*
X58162618Y4124725D01*
X58148031Y4156007D01*
X58135568Y4182734D01*
X58005047Y4369139D01*
X58005045Y4369142D01*
X57844141Y4530046D01*
X57657734Y4660568D01*
X57657732Y4660569D01*
X57451497Y4756739D01*
X57451488Y4756742D01*
X57231697Y4815634D01*
X57231693Y4815635D01*
X57231692Y4815635D01*
X57231691Y4815636D01*
X57231686Y4815636D01*
X57005002Y4835468D01*
X57004998Y4835468D01*
X56778313Y4815636D01*
X56778302Y4815634D01*
X56558511Y4756742D01*
X56558502Y4756739D01*
X56352267Y4660569D01*
X56352265Y4660568D01*
X56165858Y4530046D01*
X56004954Y4369142D01*
X55874432Y4182735D01*
X55874431Y4182733D01*
X55847382Y4124725D01*
X55801209Y4072286D01*
X55734016Y4053134D01*
X55667135Y4073350D01*
X55622618Y4124725D01*
X55608031Y4156007D01*
X55595568Y4182734D01*
X55465047Y4369139D01*
X55465045Y4369142D01*
X55304141Y4530046D01*
X55117734Y4660568D01*
X55117732Y4660569D01*
X54911497Y4756739D01*
X54911488Y4756742D01*
X54691697Y4815634D01*
X54691693Y4815635D01*
X54691692Y4815635D01*
X54691691Y4815636D01*
X54691686Y4815636D01*
X54465002Y4835468D01*
X54464998Y4835468D01*
X54238313Y4815636D01*
X54238302Y4815634D01*
X54115522Y4782735D01*
X54045672Y4784398D01*
X53995748Y4814829D01*
X53502758Y5307819D01*
X53469273Y5369142D01*
X53474257Y5438834D01*
X53516129Y5494767D01*
X53581593Y5519184D01*
X53590439Y5519500D01*
X56616726Y5519500D01*
X56657681Y5512541D01*
X56659386Y5511945D01*
X56659387Y5511944D01*
X56830185Y5452179D01*
X56830191Y5452179D01*
X56830193Y5452178D01*
X57009996Y5431919D01*
X57010000Y5431919D01*
X57010004Y5431919D01*
X57189806Y5452178D01*
X57189805Y5452178D01*
X57189815Y5452179D01*
X57360613Y5511944D01*
X57513830Y5608217D01*
X57641783Y5736170D01*
X57738056Y5889387D01*
X57797821Y6060185D01*
X57801201Y6090185D01*
X57818081Y6239997D01*
X57818081Y6240004D01*
X57797822Y6419807D01*
X57797821Y6419813D01*
X57797821Y6419815D01*
X57738056Y6590613D01*
X57641783Y6743830D01*
X57513830Y6871783D01*
X57495948Y6883019D01*
X57360612Y6968057D01*
X57189812Y7027822D01*
X57189806Y7027823D01*
X57010004Y7048081D01*
X57009996Y7048081D01*
X56830193Y7027823D01*
X56830187Y7027822D01*
X56659383Y6968056D01*
X56613950Y6939507D01*
X56547978Y6920500D01*
X52390192Y6920500D01*
X52324219Y6939507D01*
X52310613Y6948056D01*
X52310612Y6948057D01*
X52310611Y6948057D01*
X52139812Y7007822D01*
X52139806Y7007823D01*
X51960004Y7028081D01*
X51959996Y7028081D01*
X51780193Y7007823D01*
X51780187Y7007822D01*
X51609387Y6948057D01*
X51456169Y6851783D01*
X51328217Y6723831D01*
X51231943Y6570613D01*
X51172178Y6399813D01*
X51172177Y6399807D01*
X51151919Y6220004D01*
X51151919Y6219998D01*
X51164923Y6104584D01*
X51152869Y6035762D01*
X51105520Y5984382D01*
X51041703Y5966700D01*
X49009887Y5966700D01*
X48942848Y5986385D01*
X48897093Y6039189D01*
X48887149Y6108347D01*
X48892846Y6131655D01*
X48909000Y6177821D01*
X48937821Y6260185D01*
X48951810Y6384341D01*
X48958081Y6439997D01*
X48958081Y6440004D01*
X48937822Y6619807D01*
X48937821Y6619813D01*
X48937821Y6619815D01*
X48878056Y6790613D01*
X48781783Y6943830D01*
X48653830Y7071783D01*
X48623547Y7090811D01*
X48500612Y7168057D01*
X48329812Y7227822D01*
X48329806Y7227823D01*
X48150004Y7248081D01*
X48149996Y7248081D01*
X47970193Y7227823D01*
X47970187Y7227822D01*
X47799387Y7168057D01*
X47646169Y7071783D01*
X47627406Y7053019D01*
X47566083Y7019534D01*
X47539725Y7016700D01*
X40274500Y7016700D01*
X40207461Y7036385D01*
X40161706Y7089189D01*
X40150500Y7140700D01*
X40150499Y8637871D01*
X40150498Y8637877D01*
X40144091Y8697484D01*
X40093797Y8832329D01*
X40093793Y8832336D01*
X40007547Y8947545D01*
X40007544Y8947548D01*
X39892335Y9033794D01*
X39892328Y9033798D01*
X39757482Y9084092D01*
X39757483Y9084092D01*
X39697883Y9090499D01*
X39697881Y9090500D01*
X39697873Y9090500D01*
X39697864Y9090500D01*
X37902129Y9090500D01*
X37902123Y9090499D01*
X37842516Y9084092D01*
X37707671Y9033798D01*
X37707664Y9033794D01*
X37592455Y8947548D01*
X37592452Y8947545D01*
X37506206Y8832336D01*
X37506203Y8832331D01*
X37457189Y8700917D01*
X37415317Y8644984D01*
X37349853Y8620567D01*
X37281580Y8635419D01*
X37253326Y8656570D01*
X37131402Y8778494D01*
X37131395Y8778499D01*
X37114771Y8790139D01*
X37092521Y8805719D01*
X36937834Y8914033D01*
X36937830Y8914035D01*
X36937828Y8914036D01*
X36723663Y9013903D01*
X36723659Y9013904D01*
X36723655Y9013906D01*
X36495413Y9075062D01*
X36495403Y9075064D01*
X36260001Y9095659D01*
X36259999Y9095659D01*
X36024596Y9075064D01*
X36024586Y9075062D01*
X35796344Y9013906D01*
X35796335Y9013902D01*
X35582171Y8914036D01*
X35582169Y8914035D01*
X35388597Y8778495D01*
X35221505Y8611403D01*
X35091575Y8425842D01*
X35036998Y8382217D01*
X34967500Y8375023D01*
X34905145Y8406546D01*
X34888425Y8425842D01*
X34758494Y8611403D01*
X34591402Y8778494D01*
X34591395Y8778499D01*
X34574771Y8790139D01*
X34552521Y8805719D01*
X34397834Y8914033D01*
X34397830Y8914035D01*
X34397828Y8914036D01*
X34183663Y9013903D01*
X34183659Y9013904D01*
X34183655Y9013906D01*
X33955413Y9075062D01*
X33955403Y9075064D01*
X33720001Y9095659D01*
X33719999Y9095659D01*
X33484596Y9075064D01*
X33484586Y9075062D01*
X33256344Y9013906D01*
X33256335Y9013902D01*
X33042171Y8914036D01*
X33042169Y8914035D01*
X32848597Y8778495D01*
X32681505Y8611403D01*
X32551575Y8425842D01*
X32496998Y8382217D01*
X32427500Y8375023D01*
X32365145Y8406546D01*
X32348425Y8425842D01*
X32218494Y8611403D01*
X32051402Y8778494D01*
X32051395Y8778499D01*
X32034771Y8790139D01*
X32012521Y8805719D01*
X31857834Y8914033D01*
X31857830Y8914035D01*
X31857828Y8914036D01*
X31643663Y9013903D01*
X31643659Y9013904D01*
X31643655Y9013906D01*
X31415413Y9075062D01*
X31415403Y9075064D01*
X31180001Y9095659D01*
X31179999Y9095659D01*
X30944596Y9075064D01*
X30944586Y9075062D01*
X30716344Y9013906D01*
X30716335Y9013902D01*
X30502171Y8914036D01*
X30502169Y8914035D01*
X30308597Y8778495D01*
X30141505Y8611403D01*
X30011575Y8425842D01*
X29956998Y8382217D01*
X29887500Y8375023D01*
X29825145Y8406546D01*
X29808425Y8425842D01*
X29678494Y8611403D01*
X29511402Y8778494D01*
X29511395Y8778499D01*
X29494771Y8790139D01*
X29472521Y8805719D01*
X29317834Y8914033D01*
X29317830Y8914035D01*
X29317830Y8914036D01*
X29103663Y9013903D01*
X29103659Y9013904D01*
X29103655Y9013906D01*
X28875413Y9075062D01*
X28875403Y9075064D01*
X28640001Y9095659D01*
X28639999Y9095659D01*
X28404596Y9075064D01*
X28404586Y9075062D01*
X28176344Y9013906D01*
X28176335Y9013902D01*
X27962171Y8914036D01*
X27962169Y8914035D01*
X27768597Y8778495D01*
X27601505Y8611403D01*
X27471269Y8425405D01*
X27416692Y8381780D01*
X27347194Y8374586D01*
X27284839Y8406109D01*
X27268119Y8425405D01*
X27214925Y8501374D01*
X27214925Y8501375D01*
X26708949Y7995398D01*
X26647626Y7961913D01*
X26577934Y7966897D01*
X26522001Y8008769D01*
X26516953Y8016039D01*
X26481761Y8070798D01*
X26366398Y8170759D01*
X26368708Y8173426D01*
X26334005Y8213472D01*
X26324058Y8282630D01*
X26353080Y8346187D01*
X26359116Y8352670D01*
X26861373Y8854927D01*
X26861373Y8854928D01*
X26777583Y8913598D01*
X26777579Y8913600D01*
X26563492Y9013430D01*
X26563483Y9013434D01*
X26335326Y9074568D01*
X26335315Y9074570D01*
X26100002Y9095157D01*
X26099998Y9095157D01*
X25864684Y9074570D01*
X25864673Y9074568D01*
X25636516Y9013434D01*
X25636507Y9013430D01*
X25422419Y8913599D01*
X25338625Y8854928D01*
X25840883Y8352670D01*
X25874368Y8291347D01*
X25869384Y8221655D01*
X25832357Y8172195D01*
X25833602Y8170759D01*
X25718238Y8070798D01*
X25683046Y8016038D01*
X25630242Y7970283D01*
X25561083Y7960340D01*
X25497528Y7989366D01*
X25491050Y7995397D01*
X24985072Y8501375D01*
X24926401Y8417581D01*
X24826570Y8203493D01*
X24826566Y8203484D01*
X24765432Y7975327D01*
X24765430Y7975316D01*
X24744843Y7740002D01*
X24744843Y7739999D01*
X24765430Y7504685D01*
X24765432Y7504674D01*
X24826566Y7276517D01*
X24826570Y7276508D01*
X24926400Y7062421D01*
X24926402Y7062417D01*
X24985072Y6978627D01*
X24985073Y6978627D01*
X25491050Y7484605D01*
X25552373Y7518090D01*
X25622064Y7513106D01*
X25677998Y7471235D01*
X25683039Y7463975D01*
X25694893Y7445530D01*
X25718239Y7409202D01*
X25833602Y7309241D01*
X25831293Y7306578D01*
X25866006Y7266501D01*
X25875935Y7197340D01*
X25846898Y7133790D01*
X25840882Y7127331D01*
X25338625Y6625075D01*
X25422421Y6566401D01*
X25636507Y6466571D01*
X25636516Y6466567D01*
X25864673Y6405433D01*
X25864684Y6405431D01*
X26099998Y6384843D01*
X26100002Y6384843D01*
X26335315Y6405431D01*
X26335326Y6405433D01*
X26563483Y6466567D01*
X26563492Y6466571D01*
X26777578Y6566400D01*
X26777582Y6566402D01*
X26861373Y6625074D01*
X26861373Y6625075D01*
X26359116Y7127331D01*
X26325631Y7188654D01*
X26330615Y7258345D01*
X26367640Y7307807D01*
X26366398Y7309241D01*
X26373100Y7315048D01*
X26481761Y7409202D01*
X26516954Y7463963D01*
X26569755Y7509717D01*
X26638914Y7519661D01*
X26702470Y7490637D01*
X26708949Y7484604D01*
X27214925Y6978627D01*
X27268119Y7054595D01*
X27322696Y7098219D01*
X27392195Y7105412D01*
X27454549Y7073890D01*
X27471269Y7054595D01*
X27601505Y6868599D01*
X27768599Y6701505D01*
X27865384Y6633736D01*
X27962165Y6565968D01*
X27962167Y6565967D01*
X27962170Y6565965D01*
X28176337Y6466097D01*
X28404592Y6404937D01*
X28592918Y6388461D01*
X28639999Y6384341D01*
X28640000Y6384341D01*
X28640001Y6384341D01*
X28679234Y6387774D01*
X28875408Y6404937D01*
X29103663Y6466097D01*
X29317830Y6565965D01*
X29511401Y6701505D01*
X29678495Y6868599D01*
X29808424Y7054158D01*
X29863002Y7097783D01*
X29932500Y7104977D01*
X29994855Y7073454D01*
X30011575Y7054158D01*
X30139275Y6871783D01*
X30141505Y6868599D01*
X30308599Y6701505D01*
X30405384Y6633736D01*
X30502165Y6565968D01*
X30502167Y6565967D01*
X30502170Y6565965D01*
X30716337Y6466097D01*
X30944592Y6404937D01*
X31132918Y6388461D01*
X31179999Y6384341D01*
X31180000Y6384341D01*
X31180001Y6384341D01*
X31219234Y6387774D01*
X31415408Y6404937D01*
X31643663Y6466097D01*
X31857830Y6565965D01*
X32051401Y6701505D01*
X32218495Y6868599D01*
X32348424Y7054158D01*
X32403002Y7097783D01*
X32472500Y7104977D01*
X32534855Y7073454D01*
X32551575Y7054158D01*
X32679275Y6871783D01*
X32681505Y6868599D01*
X32848599Y6701505D01*
X32945384Y6633736D01*
X33042165Y6565968D01*
X33042167Y6565967D01*
X33042170Y6565965D01*
X33256337Y6466097D01*
X33484592Y6404937D01*
X33672918Y6388461D01*
X33719999Y6384341D01*
X33720000Y6384341D01*
X33720001Y6384341D01*
X33759234Y6387774D01*
X33955408Y6404937D01*
X34183663Y6466097D01*
X34397830Y6565965D01*
X34591401Y6701505D01*
X34758495Y6868599D01*
X34888424Y7054158D01*
X34943002Y7097783D01*
X35012500Y7104977D01*
X35074855Y7073454D01*
X35091575Y7054158D01*
X35219275Y6871783D01*
X35221505Y6868599D01*
X35388599Y6701505D01*
X35485384Y6633736D01*
X35582165Y6565968D01*
X35582167Y6565967D01*
X35582170Y6565965D01*
X35796337Y6466097D01*
X36024592Y6404937D01*
X36212918Y6388461D01*
X36259999Y6384341D01*
X36260000Y6384341D01*
X36260001Y6384341D01*
X36299234Y6387774D01*
X36495408Y6404937D01*
X36650302Y6446441D01*
X36720151Y6444778D01*
X36770076Y6414347D01*
X37006042Y6178381D01*
X37039527Y6117058D01*
X37034543Y6047366D01*
X36992671Y5991433D01*
X36927207Y5967016D01*
X36918361Y5966700D01*
X33200275Y5966700D01*
X33133236Y5986385D01*
X33112594Y6003019D01*
X33093830Y6021783D01*
X32940612Y6118057D01*
X32769812Y6177822D01*
X32769806Y6177823D01*
X32590004Y6198081D01*
X32589996Y6198081D01*
X32410193Y6177823D01*
X32410187Y6177822D01*
X32239387Y6118057D01*
X32086169Y6021783D01*
X31958217Y5893831D01*
X31861943Y5740613D01*
X31802178Y5569813D01*
X31802177Y5569808D01*
X31789447Y5456817D01*
X31762381Y5392403D01*
X31704786Y5352848D01*
X31666227Y5346700D01*
X30710275Y5346700D01*
X30643236Y5366385D01*
X30622594Y5383019D01*
X30573830Y5431783D01*
X30420612Y5528057D01*
X30249812Y5587822D01*
X30249806Y5587823D01*
X30070004Y5608081D01*
X30069996Y5608081D01*
X29890193Y5587823D01*
X29890187Y5587822D01*
X29719387Y5528057D01*
X29566169Y5431783D01*
X29438217Y5303831D01*
X29341943Y5150613D01*
X29282178Y4979813D01*
X29282177Y4979807D01*
X29261919Y4800004D01*
X29261919Y4799997D01*
X29282177Y4620194D01*
X29282178Y4620188D01*
X29341943Y4449388D01*
X29410268Y4340651D01*
X29438217Y4296170D01*
X29566170Y4168217D01*
X29719387Y4071944D01*
X29890185Y4012179D01*
X29890191Y4012179D01*
X29890193Y4012178D01*
X30069996Y3991919D01*
X30070000Y3991919D01*
X30070004Y3991919D01*
X30249806Y4012178D01*
X30249805Y4012178D01*
X30249815Y4012179D01*
X30420613Y4071944D01*
X30573830Y4168217D01*
X30573830Y4168218D01*
X30579726Y4171922D01*
X30580856Y4170123D01*
X30636038Y4192655D01*
X30648672Y4193300D01*
X31704057Y4193300D01*
X31771096Y4173615D01*
X31816851Y4120811D01*
X31826795Y4051653D01*
X31809051Y4003328D01*
X31731943Y3880613D01*
X31672178Y3709813D01*
X31672177Y3709807D01*
X31651919Y3530004D01*
X31651919Y3530000D01*
X31672177Y3350194D01*
X31672178Y3350188D01*
X31731944Y3179386D01*
X31768962Y3120473D01*
X31787963Y3053236D01*
X31767596Y2986401D01*
X31714328Y2941186D01*
X31663969Y2930500D01*
X21619000Y2930500D01*
X21551961Y2950185D01*
X21506206Y3002989D01*
X21495000Y3054500D01*
X21495000Y3530000D01*
X20655003Y3530000D01*
X20587964Y3549685D01*
X20542209Y3602489D01*
X20532265Y3671647D01*
X20534112Y3681592D01*
X20548810Y3745993D01*
X20548810Y3745994D01*
X20537979Y3890532D01*
X20540079Y3890690D01*
X20543595Y3948139D01*
X20584890Y4004499D01*
X20650101Y4029587D01*
X20660216Y4030000D01*
X21495000Y4030000D01*
X21495000Y4727828D01*
X21494999Y4727845D01*
X21488598Y4787373D01*
X21488596Y4787380D01*
X21438354Y4922087D01*
X21438350Y4922094D01*
X21352190Y5037188D01*
X21352187Y5037191D01*
X21237093Y5123351D01*
X21237086Y5123355D01*
X21102379Y5173597D01*
X21102372Y5173599D01*
X21042844Y5180000D01*
X20345000Y5180000D01*
X20345000Y4341822D01*
X20325315Y4274783D01*
X20272511Y4229028D01*
X20203353Y4219084D01*
X20184454Y4223330D01*
X20162829Y4230000D01*
X20162827Y4230000D01*
X20061276Y4230000D01*
X20061266Y4230000D01*
X19987479Y4218878D01*
X19918255Y4228351D01*
X19865141Y4273746D01*
X19845002Y4340651D01*
X19844999Y4341493D01*
X19845000Y5180000D01*
X19147155Y5180000D01*
X19087627Y5173599D01*
X19087620Y5173597D01*
X18952913Y5123355D01*
X18952906Y5123351D01*
X18837812Y5037191D01*
X18837809Y5037188D01*
X18751649Y4922094D01*
X18751646Y4922089D01*
X18722924Y4845080D01*
X18681052Y4789147D01*
X18615588Y4764730D01*
X18547315Y4779582D01*
X18515514Y4804429D01*
X18506784Y4813913D01*
X18506779Y4813917D01*
X18506777Y4813919D01*
X18323634Y4956465D01*
X18323628Y4956469D01*
X18119504Y5066936D01*
X18119495Y5066939D01*
X17899984Y5142298D01*
X17712404Y5173599D01*
X17671049Y5180500D01*
X17438951Y5180500D01*
X17397596Y5173599D01*
X17210018Y5142298D01*
X17133044Y5115874D01*
X17063245Y5112725D01*
X17005102Y5145475D01*
X16668958Y5481619D01*
X16635473Y5542942D01*
X16640457Y5612634D01*
X16682329Y5668567D01*
X16747793Y5692984D01*
X16756639Y5693300D01*
X21629725Y5693300D01*
X21696764Y5673615D01*
X21717406Y5656981D01*
X21736170Y5638217D01*
X21889387Y5541944D01*
X22060185Y5482179D01*
X22060191Y5482179D01*
X22060193Y5482178D01*
X22239996Y5461919D01*
X22240000Y5461919D01*
X22240004Y5461919D01*
X22419806Y5482178D01*
X22419805Y5482178D01*
X22419815Y5482179D01*
X22590613Y5541944D01*
X22743830Y5638217D01*
X22871783Y5766170D01*
X22968056Y5919387D01*
X23027821Y6090185D01*
X23030961Y6118057D01*
X23048081Y6269997D01*
X23048081Y6270004D01*
X23027822Y6449807D01*
X23027821Y6449813D01*
X23027821Y6449815D01*
X22968056Y6620613D01*
X22871783Y6773830D01*
X22743830Y6901783D01*
X22676913Y6943830D01*
X22590612Y6998057D01*
X22419812Y7057822D01*
X22419806Y7057823D01*
X22240004Y7078081D01*
X22239996Y7078081D01*
X22060193Y7057823D01*
X22060187Y7057822D01*
X21889387Y6998057D01*
X21736169Y6901783D01*
X21717406Y6883019D01*
X21656083Y6849534D01*
X21629725Y6846700D01*
X12240275Y6846700D01*
X12173236Y6866385D01*
X12152594Y6883019D01*
X12133830Y6901783D01*
X12082070Y6934306D01*
X12035779Y6986641D01*
X12025131Y7055695D01*
X12053506Y7119543D01*
X12111896Y7157915D01*
X12148042Y7163300D01*
X16762136Y7163300D01*
X16770234Y7162770D01*
X16787730Y7160466D01*
X16803999Y7158324D01*
X16804000Y7158324D01*
X16804001Y7158324D01*
X16877923Y7168056D01*
X16877931Y7168057D01*
X16954549Y7178144D01*
X17094838Y7236254D01*
X17139247Y7270331D01*
X17204412Y7295524D01*
X17254992Y7289236D01*
X17310064Y7270329D01*
X17341018Y7259702D01*
X17455484Y7240601D01*
X17569951Y7221500D01*
X17569952Y7221500D01*
X17802048Y7221500D01*
X17802049Y7221500D01*
X18030981Y7259702D01*
X18250503Y7335064D01*
X18454626Y7445530D01*
X18504829Y7484604D01*
X18530509Y7504592D01*
X18637784Y7588087D01*
X18646511Y7597568D01*
X18706394Y7633559D01*
X18776232Y7631462D01*
X18833850Y7591940D01*
X18853924Y7556920D01*
X18882645Y7479914D01*
X18882649Y7479907D01*
X18968809Y7364813D01*
X18968812Y7364810D01*
X19083906Y7278650D01*
X19083913Y7278646D01*
X19218620Y7228404D01*
X19218627Y7228402D01*
X19278155Y7222001D01*
X19278172Y7222000D01*
X19975999Y7222000D01*
X19975999Y8060180D01*
X19995683Y8127219D01*
X20048487Y8172974D01*
X20117646Y8182918D01*
X20136544Y8178672D01*
X20158173Y8172000D01*
X20259723Y8172000D01*
X20259724Y8172000D01*
X20333518Y8183123D01*
X20402741Y8173651D01*
X20455855Y8128256D01*
X20475996Y8061352D01*
X20475999Y8060508D01*
X20475999Y7222001D01*
X20476001Y7222000D01*
X21173828Y7222000D01*
X21173844Y7222001D01*
X21233372Y7228402D01*
X21233379Y7228404D01*
X21368086Y7278646D01*
X21368093Y7278650D01*
X21483187Y7364810D01*
X21483190Y7364813D01*
X21569350Y7479907D01*
X21569354Y7479914D01*
X21619596Y7614621D01*
X21619598Y7614628D01*
X21625999Y7674156D01*
X21626000Y7674173D01*
X21626000Y8372000D01*
X20786003Y8372000D01*
X20718964Y8391685D01*
X20673209Y8444489D01*
X20663265Y8513647D01*
X20665112Y8523592D01*
X20679810Y8587993D01*
X20679810Y8587994D01*
X20668979Y8732532D01*
X20671079Y8732690D01*
X20674595Y8790139D01*
X20715890Y8846499D01*
X20781101Y8871587D01*
X20791216Y8872000D01*
X21626000Y8872000D01*
X21626000Y9569828D01*
X21625999Y9569845D01*
X21619598Y9629373D01*
X21619596Y9629380D01*
X21569354Y9764087D01*
X21569350Y9764094D01*
X21483190Y9879188D01*
X21483187Y9879191D01*
X21368093Y9965351D01*
X21368086Y9965355D01*
X21233379Y10015597D01*
X21233372Y10015599D01*
X21173844Y10022000D01*
X20476000Y10022000D01*
X20476000Y9183822D01*
X20456315Y9116783D01*
X20403511Y9071028D01*
X20334353Y9061084D01*
X20315454Y9065330D01*
X20293829Y9072000D01*
X20293827Y9072000D01*
X20192276Y9072000D01*
X20192268Y9072000D01*
X20118481Y9060878D01*
X20049256Y9070351D01*
X19996143Y9115746D01*
X19976003Y9182650D01*
X19976000Y9183493D01*
X19976000Y10022000D01*
X19278155Y10022000D01*
X19218627Y10015599D01*
X19218620Y10015597D01*
X19083913Y9965355D01*
X19083906Y9965351D01*
X18968812Y9879191D01*
X18968809Y9879188D01*
X18882649Y9764094D01*
X18882646Y9764089D01*
X18853924Y9687080D01*
X18812052Y9631147D01*
X18746588Y9606730D01*
X18678315Y9621582D01*
X18646514Y9646429D01*
X18637784Y9655913D01*
X18637779Y9655917D01*
X18637777Y9655919D01*
X18454634Y9798465D01*
X18454628Y9798469D01*
X18250504Y9908936D01*
X18250495Y9908939D01*
X18030984Y9984298D01*
X17843404Y10015599D01*
X17802049Y10022500D01*
X17569951Y10022500D01*
X17528596Y10015599D01*
X17341015Y9984298D01*
X17121504Y9908939D01*
X17121495Y9908936D01*
X16917371Y9798469D01*
X16917365Y9798465D01*
X16734222Y9655919D01*
X16734219Y9655916D01*
X16734216Y9655914D01*
X16734216Y9655913D01*
X16697630Y9616170D01*
X16577016Y9485148D01*
X16450075Y9290849D01*
X16356842Y9078301D01*
X16299866Y8853309D01*
X16299864Y8853298D01*
X16280700Y8622007D01*
X16280700Y8621995D01*
X16294874Y8450940D01*
X16280793Y8382504D01*
X16231948Y8332545D01*
X16171298Y8316700D01*
X13375249Y8316700D01*
X13308210Y8336385D01*
X13262455Y8389189D01*
X13252511Y8458347D01*
X13281536Y8521903D01*
X13287568Y8528381D01*
X13320045Y8560859D01*
X13320047Y8560861D01*
X13450568Y8747266D01*
X13546739Y8953504D01*
X13605635Y9173308D01*
X13625468Y9400000D01*
X13605635Y9626692D01*
X13546739Y9846496D01*
X13450568Y10052734D01*
X13320047Y10239139D01*
X13320045Y10239142D01*
X13159141Y10400046D01*
X12972734Y10530568D01*
X12972732Y10530569D01*
X12766497Y10626739D01*
X12766488Y10626742D01*
X12546697Y10685634D01*
X12546693Y10685635D01*
X12546692Y10685635D01*
X12546691Y10685636D01*
X12546686Y10685636D01*
X12320002Y10705468D01*
X12319998Y10705468D01*
X12093313Y10685636D01*
X12093302Y10685634D01*
X11873511Y10626742D01*
X11873502Y10626739D01*
X11667267Y10530569D01*
X11667265Y10530568D01*
X11480858Y10400046D01*
X11319954Y10239142D01*
X11189432Y10052735D01*
X11189431Y10052733D01*
X11093261Y9846498D01*
X11093258Y9846489D01*
X11034366Y9626698D01*
X11034364Y9626687D01*
X11014532Y9400002D01*
X11014532Y9399999D01*
X11034364Y9173314D01*
X11034366Y9173303D01*
X11093258Y8953512D01*
X11093261Y8953503D01*
X11189431Y8747268D01*
X11189432Y8747266D01*
X11319954Y8560859D01*
X11352432Y8528381D01*
X11385917Y8467058D01*
X11380933Y8397366D01*
X11339061Y8341433D01*
X11273597Y8317016D01*
X11264751Y8316700D01*
X10265249Y8316700D01*
X10198210Y8336385D01*
X10152455Y8389189D01*
X10142511Y8458347D01*
X10171536Y8521903D01*
X10177568Y8528381D01*
X10210045Y8560859D01*
X10210045Y8560860D01*
X10210047Y8560861D01*
X10340568Y8747266D01*
X10436739Y8953504D01*
X10495635Y9173308D01*
X10515468Y9400000D01*
X10495635Y9626692D01*
X10436739Y9846496D01*
X10340568Y10052734D01*
X10210047Y10239139D01*
X10210045Y10239142D01*
X10049141Y10400046D01*
X9862734Y10530568D01*
X9862732Y10530569D01*
X9656497Y10626739D01*
X9656488Y10626742D01*
X9436697Y10685634D01*
X9436693Y10685635D01*
X9436692Y10685635D01*
X9436691Y10685636D01*
X9436686Y10685636D01*
X9210002Y10705468D01*
X9209998Y10705468D01*
X8983313Y10685636D01*
X8983302Y10685634D01*
X8763511Y10626742D01*
X8763502Y10626739D01*
X8557267Y10530569D01*
X8557265Y10530568D01*
X8370858Y10400046D01*
X8209954Y10239142D01*
X8079432Y10052735D01*
X8079431Y10052733D01*
X7983261Y9846498D01*
X7983258Y9846489D01*
X7924366Y9626698D01*
X7924364Y9626687D01*
X7904532Y9400002D01*
X7904532Y9399999D01*
X7924364Y9173314D01*
X7924366Y9173303D01*
X7983258Y8953512D01*
X7983261Y8953503D01*
X8079431Y8747268D01*
X8079432Y8747266D01*
X8209954Y8560859D01*
X8370858Y8399955D01*
X8370861Y8399953D01*
X8481676Y8322360D01*
X8486354Y8319085D01*
X8529979Y8264509D01*
X8537173Y8195011D01*
X8520225Y8151538D01*
X8481943Y8090614D01*
X8422178Y7919813D01*
X8422177Y7919807D01*
X8401919Y7740004D01*
X8401919Y7739997D01*
X8422177Y7560194D01*
X8422178Y7560188D01*
X8422178Y7560186D01*
X8422179Y7560185D01*
X8426426Y7548047D01*
X8481943Y7389388D01*
X8540922Y7295524D01*
X8578217Y7236170D01*
X8706170Y7108217D01*
X8859387Y7011944D01*
X9030185Y6952179D01*
X9030191Y6952179D01*
X9030193Y6952178D01*
X9209996Y6931919D01*
X9210000Y6931919D01*
X9210004Y6931919D01*
X9389806Y6952178D01*
X9389805Y6952178D01*
X9389815Y6952179D01*
X9560613Y7011944D01*
X9713830Y7108217D01*
X9732594Y7126982D01*
X9793917Y7160466D01*
X9820275Y7163300D01*
X11111958Y7163300D01*
X11178997Y7143615D01*
X11224752Y7090811D01*
X11234696Y7021653D01*
X11205671Y6958097D01*
X11177930Y6934306D01*
X11126169Y6901783D01*
X10998217Y6773831D01*
X10901943Y6620613D01*
X10842178Y6449813D01*
X10842177Y6449807D01*
X10821919Y6270004D01*
X10821919Y6269997D01*
X10842177Y6090194D01*
X10842178Y6090188D01*
X10901943Y5919388D01*
X10920794Y5889387D01*
X10998217Y5766170D01*
X11126170Y5638217D01*
X11279387Y5541944D01*
X11440190Y5485677D01*
X11496964Y5444956D01*
X11522712Y5380004D01*
X11522455Y5354755D01*
X11521919Y5349998D01*
X11521919Y5349997D01*
X11542177Y5170194D01*
X11542178Y5170188D01*
X11585824Y5045454D01*
X11589385Y4975675D01*
X11554656Y4915048D01*
X11492662Y4882821D01*
X11468782Y4880500D01*
X6239257Y4880500D01*
X6087560Y4865075D01*
X5893420Y4804163D01*
X5893405Y4804156D01*
X5715500Y4705411D01*
X5715495Y4705408D01*
X5561106Y4572868D01*
X5561104Y4572866D01*
X5436554Y4411963D01*
X5436553Y4411960D01*
X5346940Y4229272D01*
X5295937Y4032286D01*
X5285631Y3829064D01*
X5316442Y3627937D01*
X5316445Y3627925D01*
X5387111Y3437119D01*
X5387113Y3437116D01*
X5387114Y3437113D01*
X5407758Y3403993D01*
X5494745Y3264433D01*
X5494749Y3264428D01*
X5619734Y3132944D01*
X5634941Y3116947D01*
X5738056Y3045177D01*
X5801949Y3000706D01*
X5801950Y3000706D01*
X5801951Y3000705D01*
X5988942Y2920460D01*
X6188259Y2879500D01*
X8170951Y2879500D01*
X8237990Y2859815D01*
X8283745Y2807011D01*
X8293689Y2737853D01*
X8264664Y2674297D01*
X8258632Y2667819D01*
X8209954Y2619142D01*
X8079432Y2432735D01*
X8079431Y2432733D01*
X7983261Y2226498D01*
X7983258Y2226489D01*
X7924366Y2006698D01*
X7924364Y2006687D01*
X7904532Y1780002D01*
X7904532Y1779999D01*
X7924364Y1553314D01*
X7924366Y1553303D01*
X7983258Y1333512D01*
X7983261Y1333503D01*
X8079431Y1127268D01*
X8079432Y1127266D01*
X8209954Y940859D01*
X8370858Y779955D01*
X8370861Y779953D01*
X8557266Y649432D01*
X8763504Y553261D01*
X8763509Y553260D01*
X8763511Y553259D01*
X8797039Y544275D01*
X8856700Y507910D01*
X8887229Y445063D01*
X8878934Y375688D01*
X8834449Y321810D01*
X8767897Y300535D01*
X8764946Y300500D01*
X2002214Y300500D01*
X1997791Y300658D01*
X1979142Y301992D01*
X1766982Y317166D01*
X1749470Y319684D01*
X1529862Y367457D01*
X1512887Y372441D01*
X1504181Y375688D01*
X1302311Y450981D01*
X1286217Y458331D01*
X1088963Y566041D01*
X1074080Y575606D01*
X894163Y710290D01*
X880792Y721876D01*
X721875Y880793D01*
X710289Y894164D01*
X575605Y1074081D01*
X566040Y1088964D01*
X458327Y1286223D01*
X450983Y1302306D01*
X372437Y1512897D01*
X367458Y1529856D01*
X319683Y1749471D01*
X317165Y1766983D01*
X316397Y1777715D01*
X300657Y1997792D01*
X300500Y2002214D01*
X300500Y35494526D01*
X1194662Y35494526D01*
X1196707Y35478473D01*
X1199003Y35460440D01*
X1199500Y35452612D01*
X1199500Y32839257D01*
X1214925Y32687561D01*
X1275837Y32493421D01*
X1275844Y32493406D01*
X1374589Y32315501D01*
X1374592Y32315496D01*
X1507132Y32161107D01*
X1507134Y32161105D01*
X1668037Y32036555D01*
X1668038Y32036555D01*
X1668042Y32036552D01*
X1850729Y31946940D01*
X2047715Y31895937D01*
X2250936Y31885631D01*
X2452071Y31916444D01*
X2642887Y31987114D01*
X2815571Y32094748D01*
X2963053Y32234941D01*
X3079295Y32401951D01*
X3159540Y32588942D01*
X3200500Y32788259D01*
X3200500Y33656620D01*
X3220185Y33723659D01*
X3272989Y33769414D01*
X3342147Y33779358D01*
X3395628Y33758192D01*
X3407517Y33749866D01*
X3613673Y33653735D01*
X3613682Y33653731D01*
X3809999Y33601128D01*
X3810000Y33601129D01*
X3810000Y34369425D01*
X3829685Y34436464D01*
X3882489Y34482219D01*
X3951647Y34492163D01*
X3953331Y34491909D01*
X3985699Y34486782D01*
X4028515Y34480000D01*
X4028519Y34480000D01*
X4091485Y34480000D01*
X4134300Y34486782D01*
X4166602Y34491898D01*
X4235894Y34482944D01*
X4289347Y34437948D01*
X4309987Y34371197D01*
X4310000Y34369425D01*
X4310000Y33601128D01*
X4506317Y33653731D01*
X4506326Y33653735D01*
X4712482Y33749866D01*
X4898820Y33880343D01*
X5059657Y34041180D01*
X5190134Y34227518D01*
X5286265Y34433674D01*
X5286269Y34433683D01*
X5338872Y34630000D01*
X4570576Y34630000D01*
X4503537Y34649685D01*
X4457782Y34702489D01*
X4447838Y34771647D01*
X4448103Y34773397D01*
X4464986Y34879997D01*
X4464986Y34880004D01*
X4448103Y34986603D01*
X4457058Y35055896D01*
X4502054Y35109348D01*
X4568806Y35129987D01*
X4570576Y35130000D01*
X5338872Y35130000D01*
X5341314Y35133184D01*
X5342707Y35191737D01*
X5381869Y35249600D01*
X5446097Y35277105D01*
X5515000Y35265519D01*
X5526789Y35258978D01*
X5649387Y35181944D01*
X5820185Y35122179D01*
X5820191Y35122179D01*
X5820193Y35122178D01*
X5999996Y35101919D01*
X6000000Y35101919D01*
X6000004Y35101919D01*
X6179806Y35122178D01*
X6179805Y35122178D01*
X6179815Y35122179D01*
X6286309Y35159444D01*
X6356087Y35163005D01*
X6416714Y35128277D01*
X6448942Y35066283D01*
X6450791Y35031595D01*
X6435341Y34855002D01*
X6435341Y34855000D01*
X6455936Y34619597D01*
X6455938Y34619587D01*
X6517094Y34391345D01*
X6517096Y34391341D01*
X6517097Y34391337D01*
X6616965Y34177170D01*
X6745289Y33993904D01*
X6752501Y33983605D01*
X6752506Y33983598D01*
X6919597Y33816507D01*
X6919603Y33816502D01*
X7105158Y33686575D01*
X7148783Y33631998D01*
X7155977Y33562500D01*
X7124454Y33500145D01*
X7105158Y33483425D01*
X6919597Y33353495D01*
X6752505Y33186403D01*
X6616965Y32992831D01*
X6616964Y32992829D01*
X6517098Y32778665D01*
X6517094Y32778656D01*
X6455938Y32550414D01*
X6455936Y32550404D01*
X6435341Y32315001D01*
X6435341Y32315000D01*
X6455936Y32079597D01*
X6455939Y32079584D01*
X6468507Y32032676D01*
X6466843Y31962826D01*
X6427680Y31904964D01*
X6363451Y31877461D01*
X6307778Y31883542D01*
X6301805Y31885632D01*
X6209815Y31917821D01*
X6209814Y31917822D01*
X6209812Y31917822D01*
X6209806Y31917823D01*
X6030004Y31938081D01*
X6029996Y31938081D01*
X5850193Y31917823D01*
X5850187Y31917822D01*
X5679387Y31858057D01*
X5526169Y31761783D01*
X5398217Y31633831D01*
X5301943Y31480613D01*
X5242178Y31309813D01*
X5242177Y31309807D01*
X5221919Y31130004D01*
X5221919Y31129997D01*
X5242177Y30950194D01*
X5242178Y30950188D01*
X5301943Y30779388D01*
X5335358Y30726209D01*
X5398217Y30626170D01*
X5526170Y30498217D01*
X5679387Y30401944D01*
X5850185Y30342179D01*
X5850191Y30342179D01*
X5850193Y30342178D01*
X6029996Y30321919D01*
X6030000Y30321919D01*
X6030004Y30321919D01*
X6209806Y30342178D01*
X6209805Y30342178D01*
X6209815Y30342179D01*
X6358153Y30394086D01*
X6427931Y30397646D01*
X6488559Y30362917D01*
X6520786Y30300924D01*
X6516409Y30244453D01*
X6518498Y30243893D01*
X6455938Y30010414D01*
X6455936Y30010404D01*
X6435341Y29775001D01*
X6435341Y29775000D01*
X6455936Y29539597D01*
X6455938Y29539587D01*
X6517094Y29311345D01*
X6517096Y29311341D01*
X6517097Y29311337D01*
X6586124Y29163308D01*
X6616965Y29097170D01*
X6616967Y29097166D01*
X6713640Y28959104D01*
X6751067Y28905652D01*
X6752501Y28903605D01*
X6752506Y28903598D01*
X6919597Y28736507D01*
X6919603Y28736502D01*
X7105158Y28606575D01*
X7148783Y28551998D01*
X7155977Y28482500D01*
X7124454Y28420145D01*
X7105158Y28403425D01*
X6919597Y28273495D01*
X6752505Y28106403D01*
X6616965Y27912831D01*
X6616962Y27912825D01*
X6603193Y27883296D01*
X6557021Y27830856D01*
X6490811Y27811700D01*
X3935275Y27811700D01*
X3868236Y27831385D01*
X3847594Y27848019D01*
X3833830Y27861783D01*
X3680612Y27958057D01*
X3509812Y28017822D01*
X3509806Y28017823D01*
X3330004Y28038081D01*
X3329996Y28038081D01*
X3150193Y28017823D01*
X3150187Y28017822D01*
X2979387Y27958057D01*
X2826169Y27861783D01*
X2698217Y27733831D01*
X2601943Y27580613D01*
X2542178Y27409813D01*
X2542177Y27409807D01*
X2521919Y27230004D01*
X2521919Y27229997D01*
X2542177Y27050194D01*
X2542178Y27050188D01*
X2601943Y26879388D01*
X2671186Y26769189D01*
X2698217Y26726170D01*
X2826170Y26598217D01*
X2979387Y26501944D01*
X3150185Y26442179D01*
X3150191Y26442179D01*
X3150193Y26442178D01*
X3329996Y26421919D01*
X3330000Y26421919D01*
X3330004Y26421919D01*
X3509806Y26442178D01*
X3509805Y26442178D01*
X3509815Y26442179D01*
X3680613Y26501944D01*
X3833830Y26598217D01*
X3857593Y26621981D01*
X3918917Y26655466D01*
X3945275Y26658300D01*
X6490810Y26658300D01*
X6557849Y26638615D01*
X6603192Y26586706D01*
X6616966Y26557168D01*
X6657424Y26499388D01*
X6726454Y26400803D01*
X6752501Y26363605D01*
X6752506Y26363598D01*
X6919597Y26196507D01*
X6919603Y26196502D01*
X7105158Y26066575D01*
X7148783Y26011998D01*
X7155977Y25942500D01*
X7124454Y25880145D01*
X7105158Y25863425D01*
X6919597Y25733495D01*
X6752505Y25566403D01*
X6616965Y25372831D01*
X6616964Y25372829D01*
X6517098Y25158665D01*
X6517094Y25158656D01*
X6455938Y24930414D01*
X6455936Y24930404D01*
X6435341Y24695001D01*
X6435341Y24695000D01*
X6455936Y24459597D01*
X6455938Y24459587D01*
X6517094Y24231345D01*
X6517096Y24231341D01*
X6517097Y24231337D01*
X6589206Y24076700D01*
X6616965Y24017170D01*
X6616967Y24017166D01*
X6752501Y23823605D01*
X6752506Y23823598D01*
X6919597Y23656507D01*
X6919603Y23656502D01*
X7105158Y23526575D01*
X7148783Y23471998D01*
X7155977Y23402500D01*
X7124454Y23340145D01*
X7105158Y23323425D01*
X6919597Y23193495D01*
X6752505Y23026403D01*
X6616965Y22832831D01*
X6616964Y22832829D01*
X6517098Y22618665D01*
X6517094Y22618656D01*
X6455938Y22390414D01*
X6455936Y22390404D01*
X6435341Y22155001D01*
X6435341Y22155000D01*
X6455936Y21919597D01*
X6455938Y21919587D01*
X6517094Y21691345D01*
X6517096Y21691341D01*
X6517097Y21691337D01*
X6605262Y21502268D01*
X6616965Y21477170D01*
X6616967Y21477166D01*
X6697760Y21361783D01*
X6739690Y21301900D01*
X6752501Y21283605D01*
X6752506Y21283598D01*
X6919597Y21116507D01*
X6919603Y21116502D01*
X7105158Y20986575D01*
X7148783Y20931998D01*
X7155977Y20862500D01*
X7124454Y20800145D01*
X7105158Y20783425D01*
X6919597Y20653495D01*
X6752505Y20486403D01*
X6616965Y20292831D01*
X6616964Y20292829D01*
X6517098Y20078665D01*
X6517094Y20078656D01*
X6455938Y19850414D01*
X6455936Y19850404D01*
X6435341Y19615001D01*
X6435341Y19615000D01*
X6455936Y19379597D01*
X6455938Y19379587D01*
X6517094Y19151345D01*
X6517096Y19151341D01*
X6517097Y19151337D01*
X6590663Y18993574D01*
X6616965Y18937170D01*
X6616967Y18937166D01*
X6695935Y18824389D01*
X6748708Y18749021D01*
X6752501Y18743605D01*
X6752506Y18743598D01*
X6919597Y18576507D01*
X6919603Y18576502D01*
X7105158Y18446575D01*
X7148783Y18391998D01*
X7155977Y18322500D01*
X7124454Y18260145D01*
X7105158Y18243425D01*
X6919597Y18113495D01*
X6752505Y17946403D01*
X6616965Y17752831D01*
X6616964Y17752829D01*
X6517098Y17538665D01*
X6517094Y17538656D01*
X6455938Y17310414D01*
X6455936Y17310404D01*
X6435341Y17075001D01*
X6435341Y17075000D01*
X6455936Y16839597D01*
X6455938Y16839587D01*
X6497440Y16684699D01*
X6495777Y16614849D01*
X6465346Y16564925D01*
X6141813Y16241391D01*
X6135710Y16236040D01*
X6108694Y16215308D01*
X6108693Y16215307D01*
X6085485Y16185063D01*
X6073021Y16168820D01*
X6016253Y16094839D01*
X5958144Y15954550D01*
X5958143Y15954548D01*
X5938324Y15804002D01*
X5938324Y15804000D01*
X5941185Y15782266D01*
X5942769Y15770239D01*
X5943300Y15762138D01*
X5943300Y13971865D01*
X5942769Y13963764D01*
X5938324Y13930002D01*
X5938324Y13929998D01*
X5940981Y13909813D01*
X5943300Y13892204D01*
X5943300Y13892203D01*
X5944759Y13881117D01*
X5958144Y13779452D01*
X5958144Y13779451D01*
X6016252Y13639165D01*
X6016253Y13639163D01*
X6016254Y13639162D01*
X6108693Y13518693D01*
X6122889Y13507800D01*
X6135711Y13497961D01*
X6141806Y13492617D01*
X6359758Y13274665D01*
X6576042Y13058381D01*
X6609527Y12997058D01*
X6604543Y12927366D01*
X6562671Y12871433D01*
X6497207Y12847016D01*
X6488361Y12846700D01*
X6480275Y12846700D01*
X6413236Y12866385D01*
X6392594Y12883019D01*
X6373830Y12901783D01*
X6220612Y12998057D01*
X6049812Y13057822D01*
X6049806Y13057823D01*
X5870004Y13078081D01*
X5869996Y13078081D01*
X5690193Y13057823D01*
X5690187Y13057822D01*
X5519387Y12998057D01*
X5366169Y12901783D01*
X5238217Y12773831D01*
X5141943Y12620613D01*
X5082178Y12449813D01*
X5082177Y12449807D01*
X5061919Y12270004D01*
X5061919Y12269997D01*
X5082177Y12090194D01*
X5082178Y12090188D01*
X5141943Y11919388D01*
X5141944Y11919387D01*
X5238217Y11766170D01*
X5366170Y11638217D01*
X5519387Y11541944D01*
X5690185Y11482179D01*
X5690191Y11482179D01*
X5690193Y11482178D01*
X5869996Y11461919D01*
X5870000Y11461919D01*
X5870004Y11461919D01*
X6049806Y11482178D01*
X6049805Y11482178D01*
X6049815Y11482179D01*
X6220613Y11541944D01*
X6373830Y11638217D01*
X6392593Y11656981D01*
X6453917Y11690466D01*
X6480275Y11693300D01*
X6496300Y11693300D01*
X6563339Y11673615D01*
X6609094Y11620811D01*
X6619519Y11583185D01*
X6622179Y11559585D01*
X6628352Y11541944D01*
X6681943Y11388788D01*
X6778217Y11235571D01*
X6778217Y11235570D01*
X6906170Y11107617D01*
X7059387Y11011344D01*
X7230185Y10951579D01*
X7230191Y10951579D01*
X7230193Y10951578D01*
X7409996Y10931319D01*
X7410000Y10931319D01*
X7410004Y10931319D01*
X7589806Y10951578D01*
X7589805Y10951578D01*
X7589815Y10951579D01*
X7760613Y11011344D01*
X7913830Y11107617D01*
X7932593Y11126381D01*
X7993917Y11159866D01*
X8020275Y11162700D01*
X21344911Y11162700D01*
X21411950Y11143015D01*
X21457705Y11090211D01*
X21467649Y11021053D01*
X21461954Y10997751D01*
X21455898Y10980445D01*
X21452178Y10969813D01*
X21452177Y10969807D01*
X21431919Y10790004D01*
X21431919Y10789997D01*
X21452177Y10610194D01*
X21452178Y10610188D01*
X21511943Y10439388D01*
X21592704Y10310859D01*
X21608217Y10286170D01*
X21736170Y10158217D01*
X21889387Y10061944D01*
X22060185Y10002179D01*
X22060191Y10002179D01*
X22060193Y10002178D01*
X22239996Y9981919D01*
X22240000Y9981919D01*
X22240004Y9981919D01*
X22419806Y10002178D01*
X22419805Y10002178D01*
X22419815Y10002179D01*
X22590613Y10061944D01*
X22743830Y10158217D01*
X22743834Y10158222D01*
X22749273Y10162558D01*
X22750622Y10160866D01*
X22802817Y10189366D01*
X22829175Y10192200D01*
X29495365Y10192200D01*
X29562404Y10172515D01*
X29608159Y10119711D01*
X29618584Y10082086D01*
X29622179Y10050185D01*
X29651080Y9967591D01*
X29681943Y9879388D01*
X29702611Y9846496D01*
X29778217Y9726170D01*
X29906170Y9598217D01*
X30059387Y9501944D01*
X30230185Y9442179D01*
X30230191Y9442179D01*
X30230193Y9442178D01*
X30409996Y9421919D01*
X30410000Y9421919D01*
X30410004Y9421919D01*
X30589806Y9442178D01*
X30589805Y9442178D01*
X30589815Y9442179D01*
X30760613Y9501944D01*
X30913830Y9598217D01*
X30932593Y9616982D01*
X30993917Y9650466D01*
X31020275Y9653300D01*
X33109725Y9653300D01*
X33176764Y9633615D01*
X33197406Y9616981D01*
X33216170Y9598217D01*
X33369387Y9501944D01*
X33540185Y9442179D01*
X33540191Y9442179D01*
X33540193Y9442178D01*
X33719996Y9421919D01*
X33720000Y9421919D01*
X33720004Y9421919D01*
X33899806Y9442178D01*
X33899805Y9442178D01*
X33899815Y9442179D01*
X34070613Y9501944D01*
X34223830Y9598217D01*
X34351783Y9726170D01*
X34448056Y9879387D01*
X34502411Y10034725D01*
X34543132Y10091499D01*
X34608084Y10117247D01*
X34676646Y10103791D01*
X34707133Y10081450D01*
X35046763Y9741820D01*
X35052116Y9735717D01*
X35057250Y9729027D01*
X35072853Y9708693D01*
X35097271Y9689957D01*
X35101452Y9686748D01*
X35101462Y9686740D01*
X35173913Y9631147D01*
X35193322Y9616254D01*
X35333611Y9558144D01*
X35408885Y9548235D01*
X35484159Y9538324D01*
X35484160Y9538324D01*
X35484161Y9538324D01*
X35497154Y9540035D01*
X35517925Y9542770D01*
X35526024Y9543300D01*
X40189725Y9543300D01*
X40256764Y9523615D01*
X40277406Y9506981D01*
X40296170Y9488217D01*
X40449387Y9391944D01*
X40620185Y9332179D01*
X40620191Y9332179D01*
X40620193Y9332178D01*
X40799996Y9311919D01*
X40800000Y9311919D01*
X40800004Y9311919D01*
X40979806Y9332178D01*
X40979805Y9332178D01*
X40979815Y9332179D01*
X41150613Y9391944D01*
X41303830Y9488217D01*
X41431783Y9616170D01*
X41528056Y9769387D01*
X41587821Y9940185D01*
X41587822Y9940193D01*
X41598998Y10039383D01*
X41626064Y10103797D01*
X41683659Y10143352D01*
X41722218Y10149500D01*
X42862412Y10149500D01*
X42929451Y10129815D01*
X42933523Y10127083D01*
X43087266Y10019432D01*
X43102975Y10012107D01*
X43155414Y9965936D01*
X43174567Y9898743D01*
X43154352Y9831862D01*
X43102979Y9787344D01*
X43087512Y9780132D01*
X43014526Y9729027D01*
X43556133Y9187420D01*
X43589618Y9126097D01*
X43584634Y9056405D01*
X43542762Y9000472D01*
X43524748Y8989255D01*
X43501956Y8977642D01*
X43501949Y8977637D01*
X43412363Y8888051D01*
X43412358Y8888044D01*
X43400745Y8865252D01*
X43352770Y8814456D01*
X43284949Y8797662D01*
X43218814Y8820200D01*
X43202580Y8833867D01*
X42660973Y9375474D01*
X42609868Y9302487D01*
X42513734Y9096327D01*
X42513730Y9096318D01*
X42454860Y8876611D01*
X42454858Y8876600D01*
X42435034Y8650003D01*
X42435034Y8649998D01*
X42454858Y8423401D01*
X42454860Y8423390D01*
X42513730Y8203683D01*
X42513734Y8203674D01*
X42609865Y7997519D01*
X42609866Y7997517D01*
X42660973Y7924529D01*
X42660973Y7924528D01*
X43202580Y8466135D01*
X43263903Y8499620D01*
X43333594Y8494636D01*
X43389528Y8452765D01*
X43400742Y8434754D01*
X43405283Y8425842D01*
X43412358Y8411956D01*
X43412363Y8411950D01*
X43501949Y8322364D01*
X43501951Y8322363D01*
X43501955Y8322359D01*
X43524747Y8310746D01*
X43575542Y8262772D01*
X43592337Y8194951D01*
X43569799Y8128816D01*
X43556132Y8112581D01*
X43014526Y7570975D01*
X43014526Y7570974D01*
X43087512Y7519869D01*
X43087516Y7519867D01*
X43293673Y7423735D01*
X43293682Y7423731D01*
X43513389Y7364861D01*
X43513400Y7364859D01*
X43739998Y7345034D01*
X43740002Y7345034D01*
X43966599Y7364859D01*
X43966610Y7364861D01*
X44186317Y7423731D01*
X44186331Y7423736D01*
X44392478Y7519864D01*
X44465472Y7570975D01*
X43923866Y8112581D01*
X43890381Y8173904D01*
X43895365Y8243596D01*
X43937237Y8299529D01*
X43955245Y8310742D01*
X43978045Y8322359D01*
X44067641Y8411955D01*
X44079254Y8434748D01*
X44127225Y8485542D01*
X44195046Y8502339D01*
X44261181Y8479803D01*
X44277419Y8466134D01*
X44819025Y7924528D01*
X44870136Y7997522D01*
X44966264Y8203669D01*
X44966269Y8203683D01*
X45025139Y8423390D01*
X45025141Y8423401D01*
X45044966Y8649998D01*
X45044966Y8650003D01*
X45025141Y8876600D01*
X45025139Y8876611D01*
X44966269Y9096318D01*
X44966265Y9096327D01*
X44870133Y9302484D01*
X44870131Y9302488D01*
X44819026Y9375474D01*
X44819025Y9375474D01*
X44277419Y8833868D01*
X44216096Y8800383D01*
X44146404Y8805367D01*
X44090471Y8847239D01*
X44079256Y8865249D01*
X44067641Y8888045D01*
X44067637Y8888049D01*
X44067636Y8888051D01*
X43978050Y8977637D01*
X43978044Y8977642D01*
X43960022Y8986824D01*
X43955250Y8989256D01*
X43904456Y9037227D01*
X43887660Y9105048D01*
X43910197Y9171183D01*
X43923865Y9187420D01*
X44465472Y9729027D01*
X44392483Y9780134D01*
X44392481Y9780135D01*
X44377023Y9787343D01*
X44324584Y9833516D01*
X44305432Y9900710D01*
X44325648Y9967591D01*
X44377023Y10012107D01*
X44392734Y10019432D01*
X44546465Y10127076D01*
X44612671Y10149402D01*
X44617588Y10149500D01*
X45967412Y10149500D01*
X46034451Y10129815D01*
X46038523Y10127083D01*
X46192266Y10019432D01*
X46398504Y9923261D01*
X46618308Y9864365D01*
X46780230Y9850199D01*
X46844998Y9844532D01*
X46845000Y9844532D01*
X46845001Y9844532D01*
X46863304Y9846134D01*
X47071692Y9864365D01*
X47071697Y9864367D01*
X47076881Y9864820D01*
X47145381Y9851054D01*
X47175370Y9828973D01*
X47803399Y9200944D01*
X47805935Y9198250D01*
X47842610Y9156852D01*
X47847070Y9151818D01*
X47898106Y9116590D01*
X47901122Y9114370D01*
X47924153Y9096327D01*
X47949943Y9076122D01*
X47953392Y9074570D01*
X47959182Y9071964D01*
X47978733Y9060937D01*
X47987070Y9055182D01*
X48045065Y9033188D01*
X48048474Y9031777D01*
X48095787Y9010483D01*
X48105064Y9006307D01*
X48105065Y9006307D01*
X48105069Y9006305D01*
X48115034Y9004479D01*
X48136656Y8998452D01*
X48136667Y8998448D01*
X48146128Y8994860D01*
X48191251Y8989382D01*
X48207674Y8987387D01*
X48211371Y8986825D01*
X48272394Y8975642D01*
X48327752Y8978991D01*
X48334303Y8979387D01*
X48338048Y8979500D01*
X50431952Y8979500D01*
X50435697Y8979387D01*
X50443042Y8978943D01*
X50497606Y8975642D01*
X50535314Y8982553D01*
X50558621Y8986823D01*
X50562325Y8987387D01*
X50580170Y8989554D01*
X50623872Y8994860D01*
X50633335Y8998450D01*
X50654961Y9004478D01*
X50655893Y9004649D01*
X50664932Y9006305D01*
X50721512Y9031771D01*
X50724942Y9033191D01*
X50782930Y9055182D01*
X50791266Y9060938D01*
X50810821Y9071966D01*
X50820057Y9076122D01*
X50868896Y9114387D01*
X50871876Y9116579D01*
X50922929Y9151817D01*
X50964065Y9198252D01*
X50966599Y9200944D01*
X51594630Y9828975D01*
X51655951Y9862458D01*
X51693117Y9864820D01*
X51698303Y9864367D01*
X51698308Y9864365D01*
X51902529Y9846498D01*
X51924999Y9844532D01*
X51925000Y9844532D01*
X51925002Y9844532D01*
X51981672Y9849491D01*
X52151692Y9864365D01*
X52371496Y9923261D01*
X52577734Y10019432D01*
X52764139Y10149953D01*
X52925047Y10310861D01*
X53055568Y10497266D01*
X53082618Y10555276D01*
X53128790Y10607715D01*
X53195983Y10626867D01*
X53262865Y10606652D01*
X53307382Y10555275D01*
X53334429Y10497272D01*
X53334432Y10497266D01*
X53464954Y10310859D01*
X53625858Y10149955D01*
X53625861Y10149953D01*
X53812266Y10019432D01*
X54018504Y9923261D01*
X54238308Y9864365D01*
X54400230Y9850199D01*
X54464998Y9844532D01*
X54465000Y9844532D01*
X54465002Y9844532D01*
X54521673Y9849491D01*
X54691692Y9864365D01*
X54911496Y9923261D01*
X55117734Y10019432D01*
X55304139Y10149953D01*
X55465047Y10310861D01*
X55595568Y10497266D01*
X55622618Y10555276D01*
X55668790Y10607715D01*
X55735983Y10626867D01*
X55802865Y10606652D01*
X55847382Y10555275D01*
X55874429Y10497272D01*
X55874432Y10497266D01*
X56004954Y10310859D01*
X56165858Y10149955D01*
X56165861Y10149953D01*
X56352266Y10019432D01*
X56558504Y9923261D01*
X56778308Y9864365D01*
X56940230Y9850199D01*
X57004998Y9844532D01*
X57005000Y9844532D01*
X57005002Y9844532D01*
X57061672Y9849491D01*
X57231692Y9864365D01*
X57451496Y9923261D01*
X57657734Y10019432D01*
X57844139Y10149953D01*
X58005047Y10310861D01*
X58135568Y10497266D01*
X58162618Y10555276D01*
X58208790Y10607715D01*
X58275983Y10626867D01*
X58342865Y10606652D01*
X58387382Y10555275D01*
X58414429Y10497272D01*
X58414432Y10497266D01*
X58544954Y10310859D01*
X58705858Y10149955D01*
X58705861Y10149953D01*
X58892266Y10019432D01*
X59098504Y9923261D01*
X59318308Y9864365D01*
X59480230Y9850199D01*
X59544998Y9844532D01*
X59545000Y9844532D01*
X59545002Y9844532D01*
X59601672Y9849491D01*
X59771692Y9864365D01*
X59991496Y9923261D01*
X60197734Y10019432D01*
X60384139Y10149953D01*
X60545047Y10310861D01*
X60675568Y10497266D01*
X60702618Y10555276D01*
X60748790Y10607715D01*
X60815983Y10626867D01*
X60882865Y10606652D01*
X60927382Y10555275D01*
X60954429Y10497272D01*
X60954432Y10497266D01*
X61084954Y10310859D01*
X61245858Y10149955D01*
X61245861Y10149953D01*
X61432266Y10019432D01*
X61638504Y9923261D01*
X61858308Y9864365D01*
X62020230Y9850199D01*
X62084998Y9844532D01*
X62085000Y9844532D01*
X62085002Y9844532D01*
X62141672Y9849491D01*
X62311692Y9864365D01*
X62531496Y9923261D01*
X62737734Y10019432D01*
X62924139Y10149953D01*
X63085047Y10310861D01*
X63215568Y10497266D01*
X63311739Y10703504D01*
X63370635Y10923308D01*
X63390468Y11150000D01*
X63370635Y11376692D01*
X63311739Y11596496D01*
X63215568Y11802734D01*
X63085047Y11989139D01*
X63085045Y11989142D01*
X62924141Y12150046D01*
X62737734Y12280568D01*
X62737732Y12280569D01*
X62531497Y12376739D01*
X62531488Y12376742D01*
X62311697Y12435634D01*
X62311693Y12435635D01*
X62311692Y12435635D01*
X62311691Y12435636D01*
X62311686Y12435636D01*
X62085002Y12455468D01*
X62084998Y12455468D01*
X61858313Y12435636D01*
X61858302Y12435634D01*
X61735522Y12402735D01*
X61665672Y12404398D01*
X61615748Y12434829D01*
X60929566Y13121011D01*
X60896081Y13182334D01*
X60901065Y13252026D01*
X60912251Y13274661D01*
X60978056Y13379387D01*
X61037821Y13550185D01*
X61047846Y13639162D01*
X61058081Y13729997D01*
X61058081Y13730004D01*
X61037822Y13909807D01*
X61037821Y13909813D01*
X61037821Y13909815D01*
X60978056Y14080613D01*
X60881783Y14233830D01*
X60753830Y14361783D01*
X60724838Y14380000D01*
X60600612Y14458057D01*
X60429812Y14517822D01*
X60429806Y14517823D01*
X60250004Y14538081D01*
X60249996Y14538081D01*
X60070193Y14517823D01*
X60070187Y14517822D01*
X59899387Y14458057D01*
X59746169Y14361783D01*
X59727406Y14343019D01*
X59666083Y14309534D01*
X59639725Y14306700D01*
X49097153Y14306700D01*
X49030114Y14326385D01*
X48984359Y14379189D01*
X48973933Y14416817D01*
X48957822Y14559808D01*
X48957821Y14559813D01*
X48957821Y14559815D01*
X48898056Y14730613D01*
X48801783Y14883830D01*
X48673830Y15011783D01*
X48641833Y15031888D01*
X48520612Y15108057D01*
X48349812Y15167822D01*
X48349806Y15167823D01*
X48170004Y15188081D01*
X48169996Y15188081D01*
X47990193Y15167823D01*
X47990187Y15167822D01*
X47819387Y15108057D01*
X47666169Y15011783D01*
X47647406Y14993019D01*
X47586083Y14959534D01*
X47559725Y14956700D01*
X41219532Y14956700D01*
X41152493Y14976385D01*
X41106738Y15029189D01*
X41096794Y15098347D01*
X41125819Y15161903D01*
X41184597Y15199677D01*
X41187439Y15200475D01*
X41205629Y15205350D01*
X41216496Y15208261D01*
X41422734Y15304432D01*
X41609139Y15434953D01*
X41770047Y15595861D01*
X41900568Y15782266D01*
X41996739Y15988504D01*
X42055635Y16208308D01*
X42075468Y16435000D01*
X42075029Y16440013D01*
X42062485Y16583397D01*
X42055635Y16661692D01*
X42020610Y16792408D01*
X42022273Y16862256D01*
X42061435Y16920119D01*
X42125664Y16947623D01*
X42140385Y16948500D01*
X45153336Y16948500D01*
X45161434Y16947970D01*
X45182205Y16945235D01*
X45195199Y16943524D01*
X45195200Y16943524D01*
X45326057Y16960752D01*
X45395089Y16949987D01*
X45407482Y16940000D01*
X46188424Y16940000D01*
X46255463Y16920315D01*
X46301218Y16867511D01*
X46311162Y16798353D01*
X46310897Y16796603D01*
X46294014Y16690004D01*
X46294014Y16689997D01*
X46310897Y16583397D01*
X46301942Y16514104D01*
X46256946Y16460652D01*
X46190194Y16440013D01*
X46188424Y16440000D01*
X45420128Y16440000D01*
X45472730Y16243683D01*
X45472734Y16243674D01*
X45568865Y16037518D01*
X45699342Y15851180D01*
X45860179Y15690343D01*
X46046517Y15559866D01*
X46252673Y15463735D01*
X46252682Y15463731D01*
X46448999Y15411128D01*
X46449000Y15411129D01*
X46449000Y16179425D01*
X46468685Y16246464D01*
X46521489Y16292219D01*
X46590647Y16302163D01*
X46592331Y16301909D01*
X46624699Y16296782D01*
X46667515Y16290000D01*
X46667519Y16290000D01*
X46730485Y16290000D01*
X46773300Y16296782D01*
X46805602Y16301898D01*
X46874894Y16292944D01*
X46928347Y16247948D01*
X46948987Y16181197D01*
X46949000Y16179425D01*
X46949000Y15411128D01*
X47145317Y15463731D01*
X47145326Y15463735D01*
X47351482Y15559866D01*
X47537820Y15690343D01*
X47698657Y15851180D01*
X47829134Y16037518D01*
X47925265Y16243674D01*
X47925269Y16243683D01*
X47977872Y16440000D01*
X47209576Y16440000D01*
X47142537Y16459685D01*
X47096782Y16512489D01*
X47086838Y16581647D01*
X47087103Y16583397D01*
X47103986Y16689997D01*
X47103986Y16690004D01*
X47087103Y16796603D01*
X47096058Y16865896D01*
X47141054Y16919348D01*
X47207806Y16939987D01*
X47209576Y16940000D01*
X47977872Y16940000D01*
X47977871Y16940001D01*
X47926317Y17132406D01*
X47927980Y17202256D01*
X47967142Y17260119D01*
X48031371Y17287623D01*
X48046092Y17288500D01*
X55173340Y17288500D01*
X55240379Y17268815D01*
X55286134Y17216011D01*
X55296078Y17146853D01*
X55278334Y17098528D01*
X55241943Y17040613D01*
X55182178Y16869813D01*
X55182177Y16869807D01*
X55161919Y16690004D01*
X55161919Y16689997D01*
X55182177Y16510194D01*
X55182178Y16510188D01*
X55241943Y16339388D01*
X55306881Y16236040D01*
X55338217Y16186170D01*
X55466170Y16058217D01*
X55619387Y15961944D01*
X55790185Y15902179D01*
X55790191Y15902179D01*
X55790193Y15902178D01*
X55969996Y15881919D01*
X55970000Y15881919D01*
X55970004Y15881919D01*
X56149806Y15902178D01*
X56149805Y15902178D01*
X56149815Y15902179D01*
X56320613Y15961944D01*
X56473830Y16058217D01*
X56492594Y16076981D01*
X56553917Y16110466D01*
X56580275Y16113300D01*
X60693980Y16113300D01*
X60761019Y16093615D01*
X60806360Y16041709D01*
X60808431Y16037268D01*
X60808432Y16037266D01*
X60938954Y15850859D01*
X61099858Y15689955D01*
X61099861Y15689953D01*
X61286266Y15559432D01*
X61492504Y15463261D01*
X61712308Y15404365D01*
X61874215Y15390200D01*
X61938998Y15384532D01*
X61939000Y15384532D01*
X61939002Y15384532D01*
X61995673Y15389491D01*
X62165692Y15404365D01*
X62385496Y15463261D01*
X62591734Y15559432D01*
X62778139Y15689953D01*
X62939047Y15850861D01*
X63069568Y16037266D01*
X63165739Y16243504D01*
X63224635Y16463308D01*
X63244468Y16690000D01*
X63224635Y16916692D01*
X63165739Y17136496D01*
X63069568Y17342734D01*
X62939047Y17529139D01*
X62939045Y17529142D01*
X62778141Y17690046D01*
X62591734Y17820568D01*
X62591728Y17820571D01*
X62533725Y17847618D01*
X62481285Y17893790D01*
X62462133Y17960983D01*
X62482348Y18027865D01*
X62533725Y18072382D01*
X62539438Y18075046D01*
X62591734Y18099432D01*
X62778139Y18229953D01*
X62939047Y18390861D01*
X63069568Y18577266D01*
X63165739Y18783504D01*
X63224635Y19003308D01*
X63244468Y19230000D01*
X63242718Y19249997D01*
X63227714Y19421496D01*
X63224635Y19456692D01*
X63165739Y19676496D01*
X63069568Y19882734D01*
X62939047Y20069139D01*
X62939045Y20069142D01*
X62778141Y20230046D01*
X62591734Y20360568D01*
X62591728Y20360571D01*
X62564038Y20373483D01*
X62533724Y20387619D01*
X62481285Y20433790D01*
X62462133Y20500983D01*
X62482348Y20567865D01*
X62533725Y20612382D01*
X62539438Y20615046D01*
X62591734Y20639432D01*
X62778139Y20769953D01*
X62939047Y20930861D01*
X63069568Y21117266D01*
X63165739Y21323504D01*
X63224635Y21543308D01*
X63241992Y21741698D01*
X63244468Y21769999D01*
X63244468Y21770002D01*
X63224635Y21996687D01*
X63224635Y21996692D01*
X63174732Y22182934D01*
X63165741Y22216489D01*
X63165738Y22216498D01*
X63165717Y22216544D01*
X63069568Y22422734D01*
X62939047Y22609139D01*
X62939045Y22609142D01*
X62778141Y22770046D01*
X62591734Y22900568D01*
X62591728Y22900571D01*
X62533725Y22927618D01*
X62481285Y22973790D01*
X62462133Y23040983D01*
X62482348Y23107865D01*
X62533725Y23152382D01*
X62591734Y23179432D01*
X62778139Y23309953D01*
X62939047Y23470861D01*
X63069568Y23657266D01*
X63165739Y23863504D01*
X63224635Y24083308D01*
X63244468Y24310000D01*
X63243621Y24319677D01*
X63238801Y24374770D01*
X63224635Y24536692D01*
X63165739Y24756496D01*
X63069568Y24962734D01*
X62939047Y25149139D01*
X62939045Y25149142D01*
X62778141Y25310046D01*
X62591734Y25440568D01*
X62591728Y25440571D01*
X62564038Y25453483D01*
X62533724Y25467619D01*
X62481285Y25513790D01*
X62462133Y25580983D01*
X62482348Y25647865D01*
X62533725Y25692382D01*
X62591734Y25719432D01*
X62778139Y25849953D01*
X62939047Y26010861D01*
X63069568Y26197266D01*
X63165739Y26403504D01*
X63224635Y26623308D01*
X63241992Y26821698D01*
X63244468Y26849999D01*
X63244468Y26850002D01*
X63232950Y26981653D01*
X63224635Y27076692D01*
X63165739Y27296496D01*
X63069568Y27502734D01*
X62939047Y27689139D01*
X62939045Y27689142D01*
X62778141Y27850046D01*
X62591734Y27980568D01*
X62591728Y27980571D01*
X62533725Y28007618D01*
X62481285Y28053790D01*
X62462133Y28120983D01*
X62482348Y28187865D01*
X62533725Y28232382D01*
X62549648Y28239807D01*
X62591734Y28259432D01*
X62778139Y28389953D01*
X62939047Y28550861D01*
X63069568Y28737266D01*
X63165739Y28943504D01*
X63224635Y29163308D01*
X63244468Y29390000D01*
X63241138Y29428057D01*
X63235910Y29487822D01*
X63224635Y29616692D01*
X63171521Y29814918D01*
X63165741Y29836489D01*
X63165738Y29836498D01*
X63105023Y29966700D01*
X63069568Y30042734D01*
X62939047Y30229139D01*
X62939045Y30229142D01*
X62778141Y30390046D01*
X62591734Y30520568D01*
X62591728Y30520571D01*
X62533725Y30547618D01*
X62481285Y30593790D01*
X62462133Y30660983D01*
X62482348Y30727865D01*
X62533725Y30772382D01*
X62539438Y30775046D01*
X62591734Y30799432D01*
X62778139Y30929953D01*
X62939047Y31090861D01*
X63069568Y31277266D01*
X63165739Y31483504D01*
X63224635Y31703308D01*
X63243282Y31916446D01*
X63244468Y31929999D01*
X63244468Y31930002D01*
X63238801Y31994770D01*
X63224635Y32156692D01*
X63170637Y32358218D01*
X63165741Y32376489D01*
X63165738Y32376498D01*
X63157756Y32393615D01*
X63069568Y32582734D01*
X62939047Y32769139D01*
X62939045Y32769142D01*
X62778141Y32930046D01*
X62609603Y33048056D01*
X62591734Y33060568D01*
X62533132Y33087895D01*
X62480694Y33134067D01*
X62461543Y33201261D01*
X62481759Y33268142D01*
X62533135Y33312659D01*
X62591482Y33339867D01*
X62664472Y33390975D01*
X62122866Y33932581D01*
X62089381Y33993904D01*
X62094365Y34063596D01*
X62136237Y34119529D01*
X62154245Y34130742D01*
X62177045Y34142359D01*
X62266641Y34231955D01*
X62278254Y34254748D01*
X62326225Y34305542D01*
X62394046Y34322339D01*
X62460181Y34299803D01*
X62476419Y34286134D01*
X63018025Y33744528D01*
X63069136Y33817522D01*
X63165264Y34023669D01*
X63165269Y34023683D01*
X63224139Y34243390D01*
X63224141Y34243401D01*
X63243966Y34469998D01*
X63243966Y34470003D01*
X63224141Y34696600D01*
X63224139Y34696611D01*
X63165269Y34916318D01*
X63165265Y34916327D01*
X63069133Y35122484D01*
X63069131Y35122488D01*
X63018026Y35195474D01*
X63018025Y35195474D01*
X62476419Y34653868D01*
X62415096Y34620383D01*
X62345404Y34625367D01*
X62289471Y34667239D01*
X62278256Y34685249D01*
X62266641Y34708045D01*
X62266637Y34708049D01*
X62266636Y34708051D01*
X62177050Y34797637D01*
X62177044Y34797642D01*
X62167109Y34802704D01*
X62154250Y34809256D01*
X62103456Y34857227D01*
X62086660Y34925048D01*
X62109197Y34991183D01*
X62122865Y35007420D01*
X62664472Y35549027D01*
X62591483Y35600134D01*
X62591481Y35600135D01*
X62533133Y35627343D01*
X62480694Y35673516D01*
X62461542Y35740709D01*
X62481758Y35807590D01*
X62533129Y35852105D01*
X62591734Y35879432D01*
X62778139Y36009953D01*
X62939047Y36170861D01*
X63069568Y36357266D01*
X63165739Y36563504D01*
X63224635Y36783308D01*
X63244468Y37010000D01*
X63224635Y37236692D01*
X63165739Y37456496D01*
X63069568Y37662734D01*
X62939047Y37849139D01*
X62939045Y37849142D01*
X62778141Y38010046D01*
X62591734Y38140568D01*
X62591728Y38140571D01*
X62533725Y38167618D01*
X62481285Y38213790D01*
X62462133Y38280983D01*
X62482348Y38347865D01*
X62533725Y38392382D01*
X62591734Y38419432D01*
X62778139Y38549953D01*
X62939047Y38710861D01*
X63069568Y38897266D01*
X63165739Y39103504D01*
X63224635Y39323308D01*
X63244468Y39550000D01*
X63224635Y39776692D01*
X63165739Y39996496D01*
X63069568Y40202734D01*
X62939047Y40389139D01*
X62939045Y40389142D01*
X62778141Y40550046D01*
X62591734Y40680568D01*
X62591728Y40680571D01*
X62533725Y40707618D01*
X62481285Y40753790D01*
X62462133Y40820983D01*
X62482348Y40887865D01*
X62533725Y40932382D01*
X62539438Y40935046D01*
X62591734Y40959432D01*
X62778139Y41089953D01*
X62939047Y41250861D01*
X63069568Y41437266D01*
X63165739Y41643504D01*
X63224635Y41863308D01*
X63244468Y42090000D01*
X63243593Y42099997D01*
X63231380Y42239597D01*
X63224635Y42316692D01*
X63170680Y42518056D01*
X63165741Y42536489D01*
X63165738Y42536498D01*
X63153808Y42562082D01*
X63069568Y42742734D01*
X62939047Y42929139D01*
X62939045Y42929142D01*
X62778141Y43090046D01*
X62591734Y43220568D01*
X62591728Y43220571D01*
X62533725Y43247618D01*
X62481285Y43293790D01*
X62462133Y43360983D01*
X62482348Y43427865D01*
X62533725Y43472382D01*
X62591734Y43499432D01*
X62778139Y43629953D01*
X62939047Y43790861D01*
X63069568Y43977266D01*
X63165739Y44183504D01*
X63224635Y44403308D01*
X63242574Y44608347D01*
X63244468Y44629999D01*
X63244468Y44630002D01*
X63237804Y44706170D01*
X63224635Y44856692D01*
X63165739Y45076496D01*
X63069568Y45282734D01*
X62954608Y45446916D01*
X62939045Y45469142D01*
X62778141Y45630046D01*
X62591734Y45760568D01*
X62591728Y45760571D01*
X62533725Y45787618D01*
X62481285Y45833790D01*
X62462133Y45900983D01*
X62482348Y45967865D01*
X62533725Y46012382D01*
X62591734Y46039432D01*
X62778139Y46169953D01*
X62939047Y46330861D01*
X63069568Y46517266D01*
X63165739Y46723504D01*
X63224635Y46943308D01*
X63244468Y47170000D01*
X63224635Y47396692D01*
X63165739Y47616496D01*
X63069568Y47822734D01*
X62939047Y48009139D01*
X62939045Y48009142D01*
X62778141Y48170046D01*
X62591734Y48300568D01*
X62591728Y48300571D01*
X62564038Y48313483D01*
X62533724Y48327619D01*
X62481285Y48373790D01*
X62462133Y48440983D01*
X62482348Y48507865D01*
X62533725Y48552382D01*
X62591734Y48579432D01*
X62778139Y48709953D01*
X62939047Y48870861D01*
X63069568Y49057266D01*
X63165739Y49263504D01*
X63224635Y49483308D01*
X63244468Y49710000D01*
X63224635Y49936692D01*
X63175301Y50120811D01*
X63165741Y50156489D01*
X63165738Y50156498D01*
X63128586Y50236170D01*
X63069568Y50362734D01*
X62939047Y50549139D01*
X62939045Y50549142D01*
X62778141Y50710046D01*
X62591734Y50840568D01*
X62591728Y50840571D01*
X62533725Y50867618D01*
X62481285Y50913790D01*
X62462133Y50980983D01*
X62482348Y51047865D01*
X62533725Y51092382D01*
X62591734Y51119432D01*
X62778139Y51249953D01*
X62939047Y51410861D01*
X63069568Y51597266D01*
X63142878Y51754480D01*
X63189049Y51806918D01*
X63256243Y51826070D01*
X63323124Y51805854D01*
X63367641Y51754479D01*
X63398865Y51687519D01*
X63398866Y51687517D01*
X63449973Y51614529D01*
X63449973Y51614528D01*
X63991580Y52156135D01*
X64052903Y52189620D01*
X64122594Y52184636D01*
X64178528Y52142765D01*
X64189742Y52124754D01*
X64195527Y52113401D01*
X64201358Y52101956D01*
X64201363Y52101950D01*
X64290949Y52012364D01*
X64290951Y52012363D01*
X64290955Y52012359D01*
X64313747Y52000746D01*
X64364542Y51952772D01*
X64381337Y51884951D01*
X64358799Y51818816D01*
X64345132Y51802581D01*
X63803526Y51260975D01*
X63803526Y51260974D01*
X63876512Y51209869D01*
X63876516Y51209867D01*
X64082673Y51113735D01*
X64082682Y51113731D01*
X64302389Y51054861D01*
X64302400Y51054859D01*
X64528998Y51035034D01*
X64529002Y51035034D01*
X64755599Y51054859D01*
X64755610Y51054861D01*
X64975317Y51113731D01*
X64975331Y51113736D01*
X65181478Y51209864D01*
X65254472Y51260975D01*
X64712866Y51802581D01*
X64679381Y51863904D01*
X64684365Y51933596D01*
X64726237Y51989529D01*
X64744245Y52000742D01*
X64767045Y52012359D01*
X64856641Y52101955D01*
X64868254Y52124748D01*
X64916225Y52175542D01*
X64984046Y52192339D01*
X65050181Y52169803D01*
X65066419Y52156134D01*
X65608025Y51614528D01*
X65659136Y51687522D01*
X65755264Y51893669D01*
X65755269Y51893683D01*
X65814139Y52113390D01*
X65814141Y52113401D01*
X65833966Y52339998D01*
X65833966Y52340003D01*
X65814141Y52566600D01*
X65814139Y52566611D01*
X65755269Y52786318D01*
X65755265Y52786327D01*
X65659133Y52992484D01*
X65659131Y52992488D01*
X65608026Y53065474D01*
X65608025Y53065474D01*
X65066419Y52523868D01*
X65005096Y52490383D01*
X64935404Y52495367D01*
X64879471Y52537239D01*
X64868256Y52555249D01*
X64856641Y52578045D01*
X64856637Y52578049D01*
X64856636Y52578051D01*
X64767050Y52667637D01*
X64767044Y52667642D01*
X64757109Y52672704D01*
X64744250Y52679256D01*
X64693456Y52727227D01*
X64676660Y52795048D01*
X64699197Y52861183D01*
X64712865Y52877420D01*
X65254472Y53419027D01*
X65181483Y53470134D01*
X65181481Y53470135D01*
X65166023Y53477343D01*
X65113584Y53523516D01*
X65094432Y53590710D01*
X65114648Y53657591D01*
X65166023Y53702107D01*
X65181734Y53709432D01*
X65368139Y53839953D01*
X65529047Y54000861D01*
X65659568Y54187266D01*
X65755739Y54393504D01*
X65814635Y54613308D01*
X65834468Y54840000D01*
X65814635Y55066692D01*
X65755739Y55286496D01*
X65659568Y55492734D01*
X65529047Y55679139D01*
X65529045Y55679142D01*
X65368141Y55840046D01*
X65181734Y55970568D01*
X65181732Y55970569D01*
X64975497Y56066739D01*
X64975488Y56066742D01*
X64755697Y56125634D01*
X64755693Y56125635D01*
X64755692Y56125635D01*
X64755691Y56125636D01*
X64755686Y56125636D01*
X64529002Y56145468D01*
X64528998Y56145468D01*
X64302313Y56125636D01*
X64302302Y56125634D01*
X64082511Y56066742D01*
X64082502Y56066739D01*
X63876267Y55970569D01*
X63876265Y55970568D01*
X63689858Y55840046D01*
X63676632Y55826819D01*
X63615309Y55793334D01*
X63588951Y55790500D01*
X62816588Y55790500D01*
X62749549Y55810185D01*
X62745465Y55812925D01*
X62729378Y55824189D01*
X62591734Y55920568D01*
X62503628Y55961653D01*
X62385497Y56016739D01*
X62385491Y56016741D01*
X62223634Y56060110D01*
X62163974Y56096475D01*
X62133445Y56159322D01*
X62141740Y56228698D01*
X62186225Y56282576D01*
X62215617Y56297218D01*
X62358872Y56346184D01*
X62534227Y56449410D01*
X62685213Y56585821D01*
X62692803Y56596158D01*
X62748344Y56638543D01*
X62817986Y56644173D01*
X62858723Y56627763D01*
X62979387Y56551944D01*
X63150185Y56492179D01*
X63150191Y56492179D01*
X63150193Y56492178D01*
X63329996Y56471919D01*
X63330000Y56471919D01*
X63330004Y56471919D01*
X63504373Y56491566D01*
X63509815Y56492179D01*
X63680613Y56551944D01*
X63833830Y56648217D01*
X63961783Y56776170D01*
X64058056Y56929387D01*
X64117821Y57100185D01*
X64134701Y57250000D01*
X64138081Y57279997D01*
X64138081Y57280004D01*
X64117822Y57459807D01*
X64117821Y57459813D01*
X64117821Y57459815D01*
X64058056Y57630613D01*
X63961783Y57783830D01*
X63833830Y57911783D01*
X63786221Y57941698D01*
X63680612Y58008057D01*
X63509809Y58067823D01*
X63381562Y58082273D01*
X63317148Y58109340D01*
X63307765Y58117812D01*
X62156547Y59269030D01*
X62123062Y59330353D01*
X62128046Y59400045D01*
X62169918Y59455978D01*
X62235382Y59480395D01*
X62257483Y59480000D01*
X62262127Y59479500D01*
X64057872Y59479501D01*
X64117483Y59485909D01*
X64252331Y59536204D01*
X64367546Y59622454D01*
X64453796Y59737669D01*
X64504091Y59872517D01*
X64510500Y59932127D01*
X64510499Y61727872D01*
X64504091Y61787483D01*
X64502487Y61791783D01*
X64453797Y61922329D01*
X64453793Y61922336D01*
X64367547Y62037545D01*
X64367544Y62037548D01*
X64252335Y62123794D01*
X64252328Y62123798D01*
X64120917Y62172811D01*
X64064983Y62214682D01*
X64040566Y62280147D01*
X64055418Y62348420D01*
X64076563Y62376668D01*
X64198495Y62498599D01*
X64334035Y62692170D01*
X64433903Y62906337D01*
X64495063Y63134592D01*
X64515659Y63370000D01*
X64495063Y63605408D01*
X64433903Y63833663D01*
X64334035Y64047829D01*
X64331267Y64051783D01*
X64198494Y64241403D01*
X64031402Y64408494D01*
X64031401Y64408495D01*
X63845405Y64538731D01*
X63801781Y64593308D01*
X63794588Y64662807D01*
X63826110Y64725161D01*
X63845405Y64741881D01*
X64031082Y64871895D01*
X64198105Y65038918D01*
X64333600Y65232422D01*
X64433429Y65446508D01*
X64433432Y65446514D01*
X64490636Y65660000D01*
X63773347Y65660000D01*
X63706308Y65679685D01*
X63660553Y65732489D01*
X63650609Y65801647D01*
X63654369Y65818933D01*
X63660000Y65838112D01*
X63660000Y65981889D01*
X63654369Y66001067D01*
X63654370Y66070936D01*
X63692145Y66129714D01*
X63755701Y66158738D01*
X63773347Y66160000D01*
X64490636Y66160000D01*
X64490635Y66160001D01*
X64433432Y66373487D01*
X64433429Y66373493D01*
X64333600Y66587578D01*
X64333599Y66587580D01*
X64198113Y66781074D01*
X64198108Y66781080D01*
X64031082Y66948106D01*
X63837578Y67083601D01*
X63623492Y67183430D01*
X63623486Y67183433D01*
X63410000Y67240636D01*
X63410000Y66522302D01*
X63390315Y66455263D01*
X63337511Y66409508D01*
X63268355Y66399564D01*
X63195766Y66410000D01*
X63195763Y66410000D01*
X63124237Y66410000D01*
X63124233Y66410000D01*
X63051645Y66399564D01*
X62982487Y66409508D01*
X62929684Y66455264D01*
X62910000Y66522302D01*
X62910000Y67240636D01*
X62909999Y67240636D01*
X62696513Y67183433D01*
X62696507Y67183430D01*
X62482422Y67083601D01*
X62482420Y67083600D01*
X62288926Y66948114D01*
X62288920Y66948109D01*
X62121891Y66781080D01*
X62121886Y66781074D01*
X61986400Y66587580D01*
X61986399Y66587578D01*
X61886570Y66373493D01*
X61886567Y66373487D01*
X61829364Y66160001D01*
X61829364Y66160000D01*
X62546653Y66160000D01*
X62613692Y66140315D01*
X62659447Y66087511D01*
X62669391Y66018353D01*
X62665631Y66001067D01*
X62660000Y65981889D01*
X62660000Y65838112D01*
X62665631Y65818933D01*
X62665630Y65749064D01*
X62627855Y65690286D01*
X62564299Y65661262D01*
X62546653Y65660000D01*
X61829364Y65660000D01*
X61886567Y65446514D01*
X61886570Y65446508D01*
X61986399Y65232422D01*
X62121894Y65038918D01*
X62288917Y64871895D01*
X62474595Y64741881D01*
X62518219Y64687304D01*
X62525412Y64617805D01*
X62493890Y64555451D01*
X62474595Y64538731D01*
X62288594Y64408492D01*
X62121505Y64241403D01*
X61985965Y64047831D01*
X61985964Y64047829D01*
X61886098Y63833665D01*
X61886094Y63833656D01*
X61824938Y63605414D01*
X61824936Y63605404D01*
X61804341Y63370001D01*
X61804341Y63370000D01*
X61824936Y63134597D01*
X61824938Y63134587D01*
X61886094Y62906345D01*
X61886096Y62906341D01*
X61886097Y62906337D01*
X61977273Y62710811D01*
X61985965Y62692170D01*
X61985967Y62692166D01*
X62065840Y62578097D01*
X62121501Y62498604D01*
X62121506Y62498598D01*
X62243430Y62376674D01*
X62276915Y62315351D01*
X62271931Y62245659D01*
X62230059Y62189726D01*
X62199083Y62172811D01*
X62067669Y62123797D01*
X62067664Y62123794D01*
X61952455Y62037548D01*
X61952452Y62037545D01*
X61866206Y61922336D01*
X61866202Y61922329D01*
X61815908Y61787483D01*
X61809501Y61727884D01*
X61809501Y61727877D01*
X61809500Y61727865D01*
X61809500Y59932130D01*
X61809501Y59932114D01*
X61810000Y59927478D01*
X61797591Y59858719D01*
X61749978Y59807584D01*
X61682278Y59790308D01*
X61615985Y59812376D01*
X61599029Y59826548D01*
X61271045Y60154532D01*
X60867383Y60558194D01*
X60862039Y60564289D01*
X60854571Y60574021D01*
X60841307Y60591307D01*
X60841305Y60591309D01*
X60841304Y60591310D01*
X60802791Y60620861D01*
X60782149Y60636700D01*
X60720838Y60683746D01*
X60720837Y60683747D01*
X60720835Y60683748D01*
X60580545Y60741858D01*
X60579881Y60741945D01*
X60467797Y60756700D01*
X60430001Y60761676D01*
X60429999Y60761676D01*
X60417005Y60759966D01*
X60396234Y60757231D01*
X60388136Y60756700D01*
X54524759Y60756700D01*
X54457720Y60776385D01*
X54411965Y60829189D01*
X54401539Y60866813D01*
X54397821Y60899815D01*
X54338056Y61070613D01*
X54241783Y61223830D01*
X54201169Y61264444D01*
X54174290Y61304672D01*
X54159733Y61339815D01*
X54149155Y61365354D01*
X54113747Y61450838D01*
X54044515Y61541062D01*
X54044514Y61541063D01*
X54021307Y61571307D01*
X54021305Y61571308D01*
X54021305Y61571309D01*
X53994283Y61592044D01*
X53988180Y61597397D01*
X52153794Y63431783D01*
X50307383Y65278194D01*
X50302039Y65284289D01*
X50292108Y65297231D01*
X50281307Y65311307D01*
X50160838Y65403746D01*
X50160837Y65403747D01*
X50160835Y65403748D01*
X50020549Y65461856D01*
X50020547Y65461857D01*
X49907797Y65476700D01*
X49870001Y65481676D01*
X49869999Y65481676D01*
X49857005Y65479966D01*
X49836234Y65477231D01*
X49828136Y65476700D01*
X43734000Y65476700D01*
X43666961Y65496385D01*
X43621206Y65549189D01*
X43610000Y65600700D01*
X43610000Y65760000D01*
X42820576Y65760000D01*
X42753537Y65779685D01*
X42707782Y65832489D01*
X42697838Y65901647D01*
X42698103Y65903397D01*
X42714986Y66009997D01*
X42714986Y66010004D01*
X42698103Y66116603D01*
X42707058Y66185896D01*
X42752054Y66239348D01*
X42818806Y66259987D01*
X42820576Y66260000D01*
X43610000Y66260000D01*
X43610000Y66857828D01*
X43609999Y66857845D01*
X43603598Y66917373D01*
X43603596Y66917380D01*
X43553354Y67052087D01*
X43553350Y67052094D01*
X43467190Y67167188D01*
X43467187Y67167191D01*
X43352093Y67253351D01*
X43352086Y67253355D01*
X43217379Y67303597D01*
X43217372Y67303599D01*
X43157844Y67310000D01*
X42560000Y67310000D01*
X42560000Y66520576D01*
X42540315Y66453537D01*
X42487511Y66407782D01*
X42418353Y66397838D01*
X42416602Y66398103D01*
X42341486Y66410000D01*
X42341481Y66410000D01*
X42278519Y66410000D01*
X42278514Y66410000D01*
X42203398Y66398103D01*
X42134104Y66407058D01*
X42080652Y66452054D01*
X42060013Y66518806D01*
X42060000Y66520576D01*
X42060000Y67310000D01*
X41462155Y67310000D01*
X41402627Y67303599D01*
X41402620Y67303597D01*
X41267913Y67253355D01*
X41267906Y67253351D01*
X41152812Y67167191D01*
X41152809Y67167188D01*
X41066649Y67052094D01*
X41066645Y67052087D01*
X41016403Y66917380D01*
X41016401Y66917374D01*
X41012574Y66881779D01*
X40985835Y66817228D01*
X40928441Y66777382D01*
X40858616Y66774890D01*
X40798528Y66810544D01*
X40787710Y66823914D01*
X40770045Y66849142D01*
X40609141Y67010046D01*
X40422734Y67140568D01*
X40422732Y67140569D01*
X40216497Y67236739D01*
X40216488Y67236742D01*
X39996697Y67295634D01*
X39996693Y67295635D01*
X39996692Y67295635D01*
X39996691Y67295636D01*
X39996686Y67295636D01*
X39770002Y67315468D01*
X39769998Y67315468D01*
X39543313Y67295636D01*
X39543302Y67295634D01*
X39420522Y67262735D01*
X39350672Y67264398D01*
X39300748Y67294829D01*
X39280109Y67315468D01*
X39178783Y67416794D01*
X39173439Y67422889D01*
X39166418Y67432038D01*
X39152707Y67449907D01*
X39032238Y67542346D01*
X39032237Y67542347D01*
X39032235Y67542348D01*
X38891949Y67600456D01*
X38891947Y67600457D01*
X38779197Y67615300D01*
X38741401Y67620276D01*
X38741399Y67620276D01*
X38728405Y67618566D01*
X38707634Y67615831D01*
X38699536Y67615300D01*
X26500464Y67615300D01*
X26492365Y67615831D01*
X26471594Y67618566D01*
X26458601Y67620276D01*
X26458599Y67620276D01*
X26420803Y67615300D01*
X26308052Y67600457D01*
X26308050Y67600456D01*
X26167764Y67542348D01*
X26167761Y67542346D01*
X26047293Y67449909D01*
X26026560Y67422889D01*
X26021208Y67416787D01*
X25592233Y66987812D01*
X25530910Y66954327D01*
X25518436Y66952273D01*
X25390190Y66937823D01*
X25219387Y66878057D01*
X25066169Y66781783D01*
X24938217Y66653831D01*
X24841943Y66500613D01*
X24782178Y66329813D01*
X24782177Y66329807D01*
X24761919Y66150004D01*
X24761919Y66149997D01*
X24782177Y65970194D01*
X24782178Y65970188D01*
X24841944Y65799384D01*
X24925334Y65666672D01*
X24944335Y65599436D01*
X24923968Y65532601D01*
X24870700Y65487386D01*
X24820341Y65476700D01*
X14030275Y65476700D01*
X13963236Y65496385D01*
X13942594Y65513019D01*
X13923830Y65531783D01*
X13770612Y65628057D01*
X13599812Y65687822D01*
X13599806Y65687823D01*
X13420004Y65708081D01*
X13419996Y65708081D01*
X13240193Y65687823D01*
X13240187Y65687822D01*
X13069387Y65628057D01*
X12916169Y65531783D01*
X12788215Y65403829D01*
X12748837Y65341158D01*
X12696503Y65294868D01*
X12627449Y65284220D01*
X12563601Y65312595D01*
X12556163Y65319450D01*
X12523830Y65351783D01*
X12370612Y65448057D01*
X12199812Y65507822D01*
X12199806Y65507823D01*
X12020004Y65528081D01*
X12019996Y65528081D01*
X11840193Y65507823D01*
X11840187Y65507822D01*
X11669387Y65448057D01*
X11516169Y65351783D01*
X11497406Y65333019D01*
X11436083Y65299534D01*
X11409725Y65296700D01*
X9757864Y65296700D01*
X9749765Y65297231D01*
X9728994Y65299966D01*
X9716001Y65301676D01*
X9715999Y65301676D01*
X9678203Y65296700D01*
X9565452Y65281857D01*
X9565450Y65281856D01*
X9425164Y65223748D01*
X9425161Y65223746D01*
X9304693Y65131309D01*
X9283960Y65104289D01*
X9278608Y65098187D01*
X8362240Y64181819D01*
X8300917Y64148334D01*
X8274559Y64145500D01*
X6893129Y64145500D01*
X6893123Y64145499D01*
X6833516Y64139092D01*
X6698671Y64088798D01*
X6698664Y64088794D01*
X6583455Y64002548D01*
X6583452Y64002545D01*
X6497206Y63887336D01*
X6497202Y63887329D01*
X6446908Y63752483D01*
X6441533Y63702484D01*
X6440500Y63692873D01*
X6440500Y62906336D01*
X6440501Y62170700D01*
X6420816Y62103661D01*
X6368013Y62057906D01*
X6316501Y62046700D01*
X6150273Y62046700D01*
X6083234Y62066385D01*
X6062592Y62083019D01*
X6043828Y62101783D01*
X5890610Y62198057D01*
X5719810Y62257822D01*
X5719804Y62257823D01*
X5540002Y62278081D01*
X5539994Y62278081D01*
X5360191Y62257823D01*
X5360185Y62257822D01*
X5189385Y62198057D01*
X5036167Y62101783D01*
X4908215Y61973831D01*
X4811941Y61820613D01*
X4752176Y61649813D01*
X4752175Y61649807D01*
X4731917Y61470004D01*
X4731917Y61469997D01*
X4752175Y61290194D01*
X4752176Y61290188D01*
X4811941Y61119388D01*
X4901754Y60976453D01*
X4908215Y60966170D01*
X5036168Y60838217D01*
X5189385Y60741944D01*
X5360183Y60682179D01*
X5360189Y60682179D01*
X5360191Y60682178D01*
X5539994Y60661919D01*
X5539998Y60661919D01*
X5540002Y60661919D01*
X5719804Y60682178D01*
X5719803Y60682178D01*
X5719813Y60682179D01*
X5890611Y60741944D01*
X6043828Y60838217D01*
X6062591Y60856981D01*
X6123915Y60890466D01*
X6150273Y60893300D01*
X6403891Y60893300D01*
X6470930Y60873615D01*
X6516685Y60820811D01*
X6526629Y60751653D01*
X6518374Y60723953D01*
X6518947Y60723744D01*
X6517094Y60718656D01*
X6455938Y60490414D01*
X6455936Y60490404D01*
X6435341Y60255001D01*
X6435341Y60255000D01*
X6455936Y60019597D01*
X6455938Y60019587D01*
X6517094Y59791345D01*
X6517096Y59791341D01*
X6517097Y59791337D01*
X6605263Y59602266D01*
X6616965Y59577170D01*
X6616967Y59577166D01*
X6752501Y59383605D01*
X6752506Y59383598D01*
X6919597Y59216507D01*
X6919603Y59216502D01*
X7105158Y59086575D01*
X7148783Y59031998D01*
X7155977Y58962500D01*
X7124454Y58900145D01*
X7105158Y58883425D01*
X6919597Y58753495D01*
X6752505Y58586403D01*
X6616965Y58392831D01*
X6616964Y58392829D01*
X6517098Y58178665D01*
X6517094Y58178656D01*
X6455938Y57950414D01*
X6455936Y57950404D01*
X6435341Y57715001D01*
X6435341Y57715000D01*
X6455936Y57479597D01*
X6455938Y57479587D01*
X6517094Y57251345D01*
X6517096Y57251341D01*
X6517097Y57251337D01*
X6587576Y57100194D01*
X6616965Y57037170D01*
X6616967Y57037166D01*
X6713441Y56899388D01*
X6741150Y56859815D01*
X6752501Y56843605D01*
X6752506Y56843598D01*
X6919597Y56676507D01*
X6919603Y56676502D01*
X7105158Y56546575D01*
X7148783Y56491998D01*
X7155977Y56422500D01*
X7124454Y56360145D01*
X7105158Y56343425D01*
X6919597Y56213495D01*
X6752505Y56046403D01*
X6616965Y55852831D01*
X6616964Y55852829D01*
X6517098Y55638665D01*
X6517094Y55638656D01*
X6455938Y55410414D01*
X6455936Y55410404D01*
X6435341Y55175001D01*
X6435341Y55175000D01*
X6455936Y54939597D01*
X6455938Y54939587D01*
X6517094Y54711345D01*
X6517096Y54711341D01*
X6517097Y54711337D01*
X6605263Y54522266D01*
X6616965Y54497170D01*
X6616967Y54497166D01*
X6721958Y54347225D01*
X6742381Y54318057D01*
X6752501Y54303605D01*
X6752506Y54303598D01*
X6919597Y54136507D01*
X6919603Y54136502D01*
X7105158Y54006575D01*
X7148783Y53951998D01*
X7155977Y53882500D01*
X7124454Y53820145D01*
X7105158Y53803425D01*
X6919597Y53673495D01*
X6752505Y53506403D01*
X6616965Y53312831D01*
X6616964Y53312829D01*
X6517098Y53098665D01*
X6517094Y53098656D01*
X6455938Y52870414D01*
X6455936Y52870404D01*
X6435341Y52635001D01*
X6435341Y52635000D01*
X6455936Y52399597D01*
X6455938Y52399587D01*
X6517094Y52171345D01*
X6517096Y52171341D01*
X6517097Y52171337D01*
X6591230Y52012359D01*
X6616965Y51957170D01*
X6616967Y51957166D01*
X6722173Y51806918D01*
X6730574Y51794919D01*
X6752501Y51763605D01*
X6752506Y51763598D01*
X6919597Y51596507D01*
X6919603Y51596502D01*
X7105158Y51466575D01*
X7148783Y51411998D01*
X7155977Y51342500D01*
X7124454Y51280145D01*
X7105158Y51263425D01*
X6919597Y51133495D01*
X6752505Y50966403D01*
X6616965Y50772831D01*
X6616964Y50772829D01*
X6517098Y50558665D01*
X6517094Y50558656D01*
X6455938Y50330414D01*
X6455936Y50330404D01*
X6435341Y50095001D01*
X6435341Y50095000D01*
X6455936Y49859597D01*
X6455938Y49859587D01*
X6517094Y49631345D01*
X6517096Y49631341D01*
X6517097Y49631337D01*
X6603192Y49446706D01*
X6616965Y49417170D01*
X6616967Y49417166D01*
X6697483Y49302178D01*
X6752505Y49223599D01*
X6792582Y49183522D01*
X6826067Y49122201D01*
X6821083Y49052510D01*
X6792582Y49008161D01*
X5965138Y48180717D01*
X5903815Y48147232D01*
X5834123Y48152216D01*
X5778190Y48194088D01*
X5753929Y48257591D01*
X5747039Y48336345D01*
X5735635Y48466692D01*
X5676739Y48686496D01*
X5580568Y48892734D01*
X5450047Y49079139D01*
X5450045Y49079142D01*
X5289141Y49240046D01*
X5102734Y49370568D01*
X5102728Y49370571D01*
X5044725Y49397618D01*
X4992285Y49443790D01*
X4973133Y49510983D01*
X4993348Y49577865D01*
X5044725Y49622382D01*
X5102734Y49649432D01*
X5289139Y49779953D01*
X5450047Y49940861D01*
X5580568Y50127266D01*
X5676739Y50333504D01*
X5735635Y50553308D01*
X5755468Y50780000D01*
X5752138Y50818057D01*
X5746910Y50877822D01*
X5735635Y51006692D01*
X5676739Y51226496D01*
X5580568Y51432734D01*
X5482839Y51572307D01*
X5450045Y51619142D01*
X5289141Y51780046D01*
X5102734Y51910568D01*
X5102732Y51910569D01*
X4896497Y52006739D01*
X4896488Y52006742D01*
X4676697Y52065634D01*
X4676693Y52065635D01*
X4676692Y52065635D01*
X4676691Y52065636D01*
X4676686Y52065636D01*
X4450002Y52085468D01*
X4449998Y52085468D01*
X4223313Y52065636D01*
X4223302Y52065634D01*
X4003511Y52006742D01*
X4003502Y52006739D01*
X3797267Y51910569D01*
X3797265Y51910568D01*
X3610858Y51780046D01*
X3449954Y51619142D01*
X3319432Y51432735D01*
X3319431Y51432733D01*
X3223261Y51226498D01*
X3223258Y51226489D01*
X3164366Y51006698D01*
X3164364Y51006687D01*
X3144532Y50780002D01*
X3144532Y50779999D01*
X3164364Y50553314D01*
X3164366Y50553303D01*
X3223258Y50333512D01*
X3223261Y50333503D01*
X3319431Y50127268D01*
X3319432Y50127266D01*
X3449954Y49940859D01*
X3610858Y49779955D01*
X3710767Y49709999D01*
X3797266Y49649432D01*
X3855278Y49622381D01*
X3907713Y49576212D01*
X3926866Y49509018D01*
X3906651Y49442137D01*
X3855277Y49397620D01*
X3797268Y49370570D01*
X3797265Y49370568D01*
X3610858Y49240046D01*
X3449954Y49079142D01*
X3319432Y48892735D01*
X3319431Y48892733D01*
X3223261Y48686498D01*
X3223258Y48686489D01*
X3164366Y48466698D01*
X3164364Y48466687D01*
X3144532Y48240002D01*
X3144532Y48239999D01*
X3164364Y48013314D01*
X3164366Y48013303D01*
X3223258Y47793512D01*
X3223261Y47793503D01*
X3319431Y47587268D01*
X3319432Y47587266D01*
X3449954Y47400859D01*
X3610858Y47239955D01*
X3610861Y47239953D01*
X3797266Y47109432D01*
X3836071Y47091337D01*
X3855275Y47082382D01*
X3907714Y47036209D01*
X3926866Y46969016D01*
X3906650Y46902135D01*
X3855275Y46857618D01*
X3797267Y46830569D01*
X3797265Y46830568D01*
X3610858Y46700046D01*
X3449954Y46539142D01*
X3319432Y46352735D01*
X3319431Y46352733D01*
X3223261Y46146498D01*
X3223258Y46146489D01*
X3164366Y45926698D01*
X3164364Y45926687D01*
X3144532Y45700002D01*
X3144532Y45699999D01*
X3164364Y45473314D01*
X3164366Y45473303D01*
X3223258Y45253512D01*
X3223261Y45253503D01*
X3319431Y45047268D01*
X3319432Y45047266D01*
X3449954Y44860859D01*
X3610858Y44699955D01*
X3610861Y44699953D01*
X3797266Y44569432D01*
X3832627Y44552943D01*
X3855275Y44542382D01*
X3907714Y44496209D01*
X3926866Y44429016D01*
X3906650Y44362135D01*
X3855275Y44317618D01*
X3797267Y44290569D01*
X3797265Y44290568D01*
X3610858Y44160046D01*
X3449954Y43999142D01*
X3319432Y43812735D01*
X3319431Y43812733D01*
X3223261Y43606498D01*
X3223258Y43606489D01*
X3164366Y43386698D01*
X3164364Y43386687D01*
X3144532Y43160002D01*
X3144532Y43159999D01*
X3164364Y42933314D01*
X3164366Y42933303D01*
X3223258Y42713512D01*
X3223261Y42713503D01*
X3319431Y42507268D01*
X3319432Y42507266D01*
X3449954Y42320859D01*
X3610858Y42159955D01*
X3635462Y42142727D01*
X3679087Y42088151D01*
X3686281Y42018652D01*
X3654758Y41956297D01*
X3594529Y41920883D01*
X3577593Y41917862D01*
X3542516Y41914092D01*
X3407671Y41863798D01*
X3407664Y41863794D01*
X3292455Y41777548D01*
X3292452Y41777545D01*
X3206206Y41662336D01*
X3206202Y41662329D01*
X3155908Y41527483D01*
X3150479Y41476981D01*
X3149501Y41467877D01*
X3149500Y41467865D01*
X3149500Y39772130D01*
X3149501Y39772124D01*
X3155908Y39712517D01*
X3206202Y39577672D01*
X3206206Y39577665D01*
X3292452Y39462456D01*
X3292455Y39462453D01*
X3407664Y39376207D01*
X3407671Y39376203D01*
X3542517Y39325909D01*
X3542516Y39325909D01*
X3549444Y39325165D01*
X3602127Y39319500D01*
X5297872Y39319501D01*
X5357483Y39325909D01*
X5492331Y39376204D01*
X5607546Y39462454D01*
X5693796Y39577669D01*
X5744091Y39712517D01*
X5750500Y39772127D01*
X5750499Y41467872D01*
X5744091Y41527483D01*
X5739949Y41538587D01*
X5693797Y41662329D01*
X5693793Y41662336D01*
X5607547Y41777545D01*
X5607544Y41777548D01*
X5492335Y41863794D01*
X5492328Y41863798D01*
X5357482Y41914092D01*
X5357483Y41914092D01*
X5322404Y41917863D01*
X5257853Y41944601D01*
X5218005Y42001994D01*
X5215512Y42071819D01*
X5251165Y42131908D01*
X5264539Y42142728D01*
X5289140Y42159954D01*
X5450045Y42320859D01*
X5450047Y42320861D01*
X5580568Y42507266D01*
X5676739Y42713504D01*
X5735635Y42933308D01*
X5755468Y43160000D01*
X5754448Y43171653D01*
X5744546Y43284835D01*
X5735635Y43386692D01*
X5676739Y43606496D01*
X5676738Y43606498D01*
X5675829Y43608996D01*
X5675754Y43610173D01*
X5675338Y43611726D01*
X5675650Y43611810D01*
X5671395Y43678725D01*
X5704666Y43739091D01*
X6391819Y44426244D01*
X6453140Y44459727D01*
X6522832Y44454743D01*
X6578765Y44412871D01*
X6591880Y44390965D01*
X6616963Y44337174D01*
X6616967Y44337166D01*
X6752501Y44143605D01*
X6752506Y44143598D01*
X6919597Y43976507D01*
X6919603Y43976502D01*
X7105158Y43846575D01*
X7148783Y43791998D01*
X7155977Y43722500D01*
X7124454Y43660145D01*
X7105158Y43643425D01*
X6919597Y43513495D01*
X6752505Y43346403D01*
X6616965Y43152831D01*
X6616964Y43152829D01*
X6517098Y42938665D01*
X6517094Y42938656D01*
X6455938Y42710414D01*
X6455936Y42710404D01*
X6435341Y42475001D01*
X6435341Y42475000D01*
X6455936Y42239597D01*
X6455938Y42239587D01*
X6517094Y42011345D01*
X6517096Y42011341D01*
X6517097Y42011337D01*
X6616964Y41797171D01*
X6616965Y41797170D01*
X6616967Y41797166D01*
X6697483Y41682178D01*
X6747893Y41610185D01*
X6752501Y41603605D01*
X6752506Y41603598D01*
X6919597Y41436507D01*
X6919603Y41436502D01*
X7105158Y41306575D01*
X7148783Y41251998D01*
X7155977Y41182500D01*
X7124454Y41120145D01*
X7105158Y41103425D01*
X6919597Y40973495D01*
X6752505Y40806403D01*
X6616965Y40612831D01*
X6616964Y40612829D01*
X6517098Y40398665D01*
X6517094Y40398656D01*
X6455938Y40170414D01*
X6455936Y40170404D01*
X6435341Y39935001D01*
X6435341Y39935000D01*
X6455936Y39699597D01*
X6455938Y39699587D01*
X6517094Y39471345D01*
X6517096Y39471341D01*
X6517097Y39471337D01*
X6589206Y39316700D01*
X6616965Y39257170D01*
X6620708Y39251825D01*
X6643036Y39185620D01*
X6626027Y39117852D01*
X6575080Y39070038D01*
X6519134Y39056700D01*
X2630275Y39056700D01*
X2563236Y39076385D01*
X2542594Y39093019D01*
X2523830Y39111783D01*
X2370612Y39208057D01*
X2199812Y39267822D01*
X2199806Y39267823D01*
X2020004Y39288081D01*
X2019996Y39288081D01*
X1840193Y39267823D01*
X1840187Y39267822D01*
X1669387Y39208057D01*
X1516169Y39111783D01*
X1388217Y38983831D01*
X1291943Y38830613D01*
X1232178Y38659813D01*
X1232177Y38659807D01*
X1211919Y38480004D01*
X1211919Y38479997D01*
X1232177Y38300194D01*
X1232178Y38300188D01*
X1291943Y38129388D01*
X1346041Y38043292D01*
X1388217Y37976170D01*
X1516170Y37848217D01*
X1669387Y37751944D01*
X1840185Y37692179D01*
X1840191Y37692179D01*
X1840193Y37692178D01*
X2019996Y37671919D01*
X2020000Y37671919D01*
X2020004Y37671919D01*
X2199806Y37692178D01*
X2199805Y37692178D01*
X2199815Y37692179D01*
X2370613Y37751944D01*
X2523830Y37848217D01*
X2542593Y37866982D01*
X2603917Y37900466D01*
X2630275Y37903300D01*
X2692240Y37903300D01*
X2759279Y37883615D01*
X2805034Y37830811D01*
X2814978Y37761653D01*
X2812015Y37747207D01*
X2774365Y37606693D01*
X2768958Y37544905D01*
X2743504Y37479837D01*
X2733111Y37468034D01*
X1501531Y36236453D01*
X1436946Y36175058D01*
X1401899Y36124706D01*
X1399062Y36120944D01*
X1360302Y36073408D01*
X1360299Y36073403D01*
X1344392Y36042953D01*
X1340324Y36036239D01*
X1320702Y36008046D01*
X1296509Y35951670D01*
X1294488Y35947416D01*
X1266091Y35893049D01*
X1266090Y35893048D01*
X1256640Y35860025D01*
X1254007Y35852629D01*
X1240459Y35821057D01*
X1228113Y35760981D01*
X1226990Y35756405D01*
X1210113Y35697423D01*
X1210113Y35697421D01*
X1207503Y35663159D01*
X1206414Y35655392D01*
X1200980Y35628948D01*
X1199500Y35621742D01*
X1199500Y35560403D01*
X1199321Y35555694D01*
X1194662Y35494526D01*
X300500Y35494526D01*
X300500Y66997787D01*
X300658Y67002211D01*
X301218Y67010046D01*
X317165Y67233023D01*
X319683Y67250530D01*
X329495Y67295635D01*
X367459Y67470149D01*
X372436Y67487100D01*
X450985Y67697701D01*
X458325Y67713773D01*
X566044Y67911044D01*
X575600Y67925914D01*
X710294Y68105844D01*
X721868Y68119201D01*
X880799Y68278132D01*
X894156Y68289706D01*
X1074086Y68424400D01*
X1088956Y68433956D01*
X1286227Y68541675D01*
X1302299Y68549015D01*
X1512900Y68627564D01*
X1529851Y68632541D01*
X1749472Y68680318D01*
X1766977Y68682835D01*
X1997791Y68699343D01*
X2002214Y68699500D01*
X2047595Y68699500D01*
X64952405Y68699500D01*
X64997786Y68699500D01*
X65002208Y68699343D01*
G37*
%TD.AperFunction*%
M02*
